<?xml version="1.0" encoding="UTF-8" standalone="no"?>
<!-- Created with Inkscape (http://www.inkscape.org/) -->

<svg
   width="63.5mm"
   height="88.899986mm"
   viewBox="0 0 63.5 88.899986"
   version="1.1"
   id="svg1"
   xmlns="http://www.w3.org/2000/svg"
   xmlns:svg="http://www.w3.org/2000/svg">
  <defs
     id="defs1" />
  <g
     id="layer1"
     transform="translate(-1431.279,113.44584)">
    <g
       id="g13">
      <path
         id="path563"
         style="fill:#f4efe7;stroke:none;stroke-width:3.81;stroke-linecap:round;paint-order:markers fill stroke"
         d="m 1437.6207,-113.44584 h 50.8166 c 3.5133,0 6.3417,2.83208 6.3417,6.34994 v 76.20011 c 0,3.51787 -2.8284,6.34994 -6.3417,6.34994 h -50.8166 c -3.5133,0 -6.3417,-2.83207 -6.3417,-6.34994 v -76.20011 c 0,-3.51786 2.8284,-6.34994 6.3417,-6.34994 z" />
      <path
         id="path564"
         style="fill:#7a5de5;fill-opacity:1;stroke-width:1.77626;stroke-linecap:round;paint-order:markers fill stroke"
         d="m 1489.274,-109.364 c -0.3622,-0.36236 -0.9454,-0.36233 -1.308,-10e-6 l -0.7114,0.71143 -0.7116,0.71163 -0.6539,0.654 -1.3656,-1.36566 -0.7114,-0.7114 c -0.3625,-0.36231 -0.9458,-0.36236 -1.3082,-2e-5 l -1.4231,1.42307 c -0.3623,0.36231 -0.3623,0.94571 0,1.30801 l 1.4231,1.42306 0.6541,0.65402 -1.3657,1.36565 -0.7114,0.71142 c -0.3623,0.36232 -0.3623,0.94566 0,1.30802 l 1.4232,1.42303 c 0.3622,0.36232 0.9455,0.36235 1.308,1e-5 l 1.423,-1.42304 0.6541,-0.65401 0.6538,0.65399 0.7117,0.71161 0.7115,0.71145 c 0.3624,0.36231 0.9457,0.36229 1.308,-2e-5 l 1.4231,-1.42304 c 0.3624,-0.36237 0.3624,-0.94569 0,-1.30799 l -0.7114,-0.71144 -0.7117,-0.71165 -0.6541,-0.65398 0.6541,-0.65401 0.7117,-0.71162 0.7114,-0.71144 c 0.3624,-0.36232 0.3624,-0.94572 0,-1.30802 z" />
      <path
         id="path565"
         style="fill:#7a5de5;fill-opacity:1;stroke-width:1.77626;stroke-linecap:round;paint-order:markers fill stroke"
         d="m 1443.5538,-38.24392 c -0.3622,-0.36236 -0.9454,-0.36233 -1.308,-10e-6 l -0.7114,0.71143 -0.7116,0.71163 -0.6539,0.654 -1.3656,-1.36566 -0.7114,-0.7114 c -0.3625,-0.36231 -0.9458,-0.36236 -1.3082,-2e-5 l -1.4231,1.42307 c -0.3623,0.36231 -0.3623,0.94571 0,1.30801 l 1.4231,1.42306 0.6541,0.65402 -1.3657,1.36565 -0.7114,0.71142 c -0.3623,0.36232 -0.3623,0.94566 0,1.30802 l 1.4232,1.42303 c 0.3622,0.36232 0.9455,0.36235 1.308,10e-6 l 1.423,-1.42304 0.6541,-0.65401 0.6538,0.65399 0.7117,0.71161 0.7115,0.71145 c 0.3624,0.36231 0.9457,0.36229 1.308,-2e-5 l 1.4231,-1.42304 c 0.3624,-0.36237 0.3624,-0.94569 0,-1.30799 l -0.7114,-0.71144 -0.7117,-0.71165 -0.6541,-0.65398 0.6541,-0.65401 0.7117,-0.71162 0.7114,-0.71144 c 0.3624,-0.36232 0.3624,-0.94572 0,-1.30802 z" />
      <text
         xml:space="preserve"
         style="font-size:12.973px;line-height:0.9;font-family:'DM Serif Display';-inkscape-font-specification:'DM Serif Display';text-align:start;letter-spacing:0px;word-spacing:0px;writing-mode:lr-tb;direction:ltr;text-anchor:start;fill:#000000;fill-opacity:1;stroke:#000000;stroke-width:0.470471;stroke-linecap:round;stroke-linejoin:round;stroke-miterlimit:1.1;stroke-dasharray:none;stroke-opacity:1;paint-order:stroke fill markers"
         x="1437.3612"
         y="-100.98107"
         id="text565"><tspan
           id="tspan565"
           style="font-size:12.973px;fill:#000000;fill-opacity:1;stroke:#000000;stroke-width:0.470471;stroke-linecap:round;stroke-linejoin:round;stroke-dasharray:none;stroke-opacity:1"
           x="1437.3612"
           y="-100.98107">A</tspan></text>
      <path
         id="path566"
         style="fill:none;fill-opacity:0;stroke:#333333;stroke-width:0.240883;stroke-linecap:round;stroke-dasharray:none;stroke-opacity:1;paint-order:markers fill stroke"
         d="m 1447.784,-98.64958 h 30.49 c 2.108,0 3.805,1.88935 3.805,4.23621 v 50.83505 c 0,2.34686 -1.697,4.23621 -3.805,4.23621 h -30.49 c -2.108,0 -3.805,-1.88935 -3.805,-4.23621 v -50.83505 c 0,-2.34686 1.697,-4.23621 3.805,-4.23621 z" />
      <text
         xml:space="preserve"
         style="font-size:12.973px;line-height:0.9;font-family:'DM Serif Display';-inkscape-font-specification:'DM Serif Display';text-align:start;letter-spacing:0px;word-spacing:0px;writing-mode:lr-tb;direction:ltr;text-anchor:start;fill:#000000;fill-opacity:1;stroke:#000000;stroke-width:0.470471;stroke-linecap:round;stroke-linejoin:round;stroke-miterlimit:1.1;stroke-dasharray:none;stroke-opacity:1;paint-order:stroke fill markers"
         x="-1488.6971"
         y="37.010601"
         id="text566"
         transform="scale(-1)"><tspan
           id="tspan566"
           style="font-size:12.973px;fill:#000000;fill-opacity:1;stroke:#000000;stroke-width:0.470471;stroke-linecap:round;stroke-linejoin:round;stroke-dasharray:none;stroke-opacity:1"
           x="-1488.6971"
           y="37.010601">A</tspan></text>
      <path
         id="path652"
         style="fill:#7a5de5;fill-opacity:1;stroke-width:1.77626;stroke-linecap:round;paint-order:markers fill stroke"
         d="m 1473.3772,-83.69496 c -1.1073,-1.10781 -2.8902,-1.10771 -3.9987,-5e-5 l -2.1749,2.17495 -2.1755,2.17557 -1.9991,1.99937 -4.1748,-4.17502 -2.1749,-2.17487 c -1.1082,-1.10763 -2.8913,-1.10779 -3.9993,-6e-5 l -4.3506,4.35054 c -1.1076,1.10764 -1.1076,2.89117 0,3.99878 l 4.3506,4.35051 1.9997,1.99945 -4.1751,4.17499 -2.1749,2.17492 c -1.1076,1.10766 -1.1076,2.89103 0,3.99881 l 4.3509,4.35042 c 1.1074,1.10766 2.8905,1.10776 3.9987,3e-5 l 4.3505,-4.35045 1.9996,-1.99941 1.9987,1.99935 2.1758,2.1755 2.1752,2.17501 c 1.1079,1.10763 2.8911,1.10757 3.9988,-7e-5 l 4.3506,-4.35044 c 1.1079,-1.10783 1.1079,-2.89111 0,-3.99872 l -2.1749,-2.17498 -2.1757,-2.17562 -1.9997,-1.99931 1.9997,-1.99942 2.1757,-2.17552 2.1749,-2.17499 c 1.1079,-1.10767 1.1079,-2.8912 0,-3.9988 z" />
      <text
         xml:space="preserve"
         style="font-size:4.44582px;font-family:'DM Serif Display';-inkscape-font-specification:'DM Serif Display';text-align:start;writing-mode:lr-tb;direction:ltr;text-anchor:start;fill:#3c3c3c;fill-opacity:1;stroke:none;stroke-width:2.62548;stroke-linecap:round;stroke-linejoin:round;stroke-miterlimit:100;stroke-dasharray:none;stroke-opacity:1;paint-order:markers fill stroke"
         x="1454.6215"
         y="-46.221294"
         id="text680"><tspan
           id="tspan680"
           style="fill:#3c3c3c;fill-opacity:1;stroke-width:2.62548"
           x="1454.6215"
           y="-46.221294">DOPAMINO</tspan></text>
      <path
         d="m 1451.7708,-49.45547 c -0.9746,0 -1.7676,0.79262 -1.7676,1.76749 0,0.97448 0.793,1.76749 1.7676,1.76749 0.9748,0 1.7677,-0.79301 1.7677,-1.76749 0,-0.97487 -0.7929,-1.76749 -1.7677,-1.76749 z m 0,3.14119 c -0.7575,0 -1.3738,-0.61623 -1.3738,-1.37369 0,-0.75779 0.6163,-1.37402 1.3738,-1.37402 0.7577,0 1.3739,0.61623 1.3739,1.37402 0,0.75746 -0.6162,1.37369 -1.3739,1.37369 z"
         id="path680"
         style="fill:#3c3c3c;fill-opacity:1;stroke-width:0.00962079" />
      <path
         d="m 1452.351,-47.36779 c -0.1129,0.19377 -0.3229,0.31397 -0.5479,0.31397 -0.3496,0 -0.6343,-0.28463 -0.6343,-0.63415 0,-0.34982 0.2847,-0.63454 0.6343,-0.63454 0.225,0 0.435,0.12064 0.5479,0.31403 l 0.015,0.0253 h 0.426 l -0.026,-0.0686 c -0.074,-0.19639 -0.2043,-0.36337 -0.3764,-0.48255 -0.1727,-0.11949 -0.3754,-0.18289 -0.5866,-0.18289 -0.5675,0 -1.0289,0.46186 -1.0289,1.02926 0,0.56743 0.4614,1.02885 1.0289,1.02885 0.2112,0 0.4139,-0.0632 0.5866,-0.18285 0.1721,-0.11921 0.3022,-0.28613 0.3764,-0.48252 l 0.026,-0.0686 h -0.426 z"
         id="path681"
         style="fill:#3c3c3c;fill-opacity:1;stroke-width:0.00962079" />
      <text
         xml:space="preserve"
         style="font-size:4.44582px;font-family:'DM Serif Display';-inkscape-font-specification:'DM Serif Display';text-align:start;writing-mode:lr-tb;direction:ltr;text-anchor:start;fill:#3c3c3c;fill-opacity:1;stroke:none;stroke-width:2.62548;stroke-linecap:round;stroke-linejoin:round;stroke-miterlimit:100;stroke-dasharray:none;stroke-opacity:1;paint-order:markers fill stroke"
         x="1458.3187"
         y="-50.051342"
         id="text682"><tspan
           id="tspan682"
           style="stroke-width:2.62548"
           x="1458.3187"
           y="-50.051342">2025</tspan></text>
    </g>
  </g>
</svg>
