<?xml version="1.0" encoding="UTF-8" standalone="no"?>
<!-- Created with Inkscape (http://www.inkscape.org/) -->

<svg
   width="63.5mm"
   height="88.899986mm"
   viewBox="0 0 63.5 88.899986"
   version="1.1"
   id="svg1"
   xmlns="http://www.w3.org/2000/svg"
   xmlns:svg="http://www.w3.org/2000/svg">
  <defs
     id="defs1" />
  <g
     id="layer1"
     transform="translate(-1431.279,-140.55414)">
    <g
       id="g39">
      <path
         id="path571"
         style="fill:#f4efe7;stroke:none;stroke-width:3.81;stroke-linecap:round;paint-order:markers fill stroke"
         d="m 1437.6207,140.55414 h 50.8166 c 3.5133,0 6.3417,2.83208 6.3417,6.34994 v 76.20011 c 0,3.51787 -2.8284,6.34994 -6.3417,6.34994 h -50.8166 c -3.5133,0 -6.3417,-2.83207 -6.3417,-6.34994 v -76.20011 c 0,-3.51786 2.8284,-6.34994 6.3417,-6.34994 z" />
      <text
         xml:space="preserve"
         style="font-size:12.973px;line-height:0.9;font-family:'DM Serif Display';-inkscape-font-specification:'DM Serif Display';text-align:start;letter-spacing:0px;word-spacing:0px;writing-mode:lr-tb;direction:ltr;text-anchor:start;fill:#000000;fill-opacity:1;stroke:#000000;stroke-width:0.470471;stroke-linecap:round;stroke-linejoin:round;stroke-miterlimit:1.1;stroke-dasharray:none;stroke-opacity:1;paint-order:stroke fill markers"
         x="1437.3612"
         y="153.01892"
         id="text571"><tspan
           id="tspan571"
           style="font-size:12.973px;fill:#000000;fill-opacity:1;stroke:#000000;stroke-width:0.470471;stroke-linecap:round;stroke-linejoin:round;stroke-dasharray:none;stroke-opacity:1"
           x="1437.3612"
           y="153.01892">A</tspan></text>
      <path
         id="path572"
         style="fill:none;stroke:#333333;stroke-width:0.240883;stroke-linecap:round;stroke-dasharray:none;stroke-opacity:1;paint-order:markers fill stroke"
         d="m 1447.784,155.3504 h 30.49 c 2.108,0 3.805,1.88935 3.805,4.23621 v 50.83505 c 0,2.34686 -1.697,4.23621 -3.805,4.23621 h -30.49 c -2.108,0 -3.805,-1.88935 -3.805,-4.23621 v -50.83505 c 0,-2.34686 1.697,-4.23621 3.805,-4.23621 z" />
      <text
         xml:space="preserve"
         style="font-size:12.973px;line-height:0.9;font-family:'DM Serif Display';-inkscape-font-specification:'DM Serif Display';text-align:start;letter-spacing:0px;word-spacing:0px;writing-mode:lr-tb;direction:ltr;text-anchor:start;fill:#000000;fill-opacity:1;stroke:#000000;stroke-width:0.470471;stroke-linecap:round;stroke-linejoin:round;stroke-miterlimit:1.1;stroke-dasharray:none;stroke-opacity:1;paint-order:stroke fill markers"
         x="-1488.6971"
         y="-216.9894"
         id="text572"
         transform="scale(-1)"><tspan
           id="tspan572"
           style="font-size:12.973px;fill:#000000;fill-opacity:1;stroke:#000000;stroke-width:0.470471;stroke-linecap:round;stroke-linejoin:round;stroke-dasharray:none;stroke-opacity:1"
           x="-1488.6971"
           y="-216.9894">A</tspan></text>
      <path
         id="path575"
         style="fill:#7a5de5;fill-opacity:1;stroke-width:3.21417;stroke-linecap:round;paint-order:markers fill stroke"
         d="m 1485.8891,154.53856 c 0,0 -3.435,-2.40377 -4.7328,-4.99883 -1.2973,-2.59505 -1.2973,-5.19009 1.7176,-5.19009 3.0152,0 3.0152,2.59504 3.0152,2.59504 0,0 0,-2.59504 3.0152,-2.59504 3.0149,0 3.0149,2.59504 1.7175,5.19009 -1.2977,2.59506 -4.7327,4.99883 -4.7327,4.99883 z" />
      <path
         id="path576"
         style="fill:#7a5de5;fill-opacity:1;stroke-width:3.21417;stroke-linecap:round;paint-order:markers fill stroke"
         d="m 1440.1689,215.46973 c 0,0 3.435,2.40377 4.7328,4.99883 1.2973,2.59505 1.2973,5.19009 -1.7176,5.19009 -3.0152,0 -3.0152,-2.59504 -3.0152,-2.59504 0,0 0,2.59504 -3.0152,2.59504 -3.0149,0 -3.0149,-2.59504 -1.7175,-5.19009 1.2977,-2.59506 4.7327,-4.99883 4.7327,-4.99883 z" />
      <path
         id="path654"
         style="fill:#7a5de5;fill-opacity:1;stroke-width:3.21418;stroke-linecap:round;paint-order:markers fill stroke"
         d="m 1463.029,199.24184 c 0,0 -9.5999,-6.71795 -13.227,-13.9705 -3.6257,-7.25252 -3.6257,-14.50503 4.8002,-14.50503 8.4268,0 8.4268,7.25251 8.4268,7.25251 0,0 0,-7.25251 8.4268,-7.25251 8.4258,0 8.4258,7.25251 4.7999,14.50503 -3.6267,7.25255 -13.2267,13.9705 -13.2267,13.9705 z" />
    </g>
  </g>
</svg>
