<?xml version="1.0" encoding="UTF-8" standalone="no"?>
<!-- Created with Inkscape (http://www.inkscape.org/) -->

<svg
   width="63.5mm"
   height="88.899986mm"
   viewBox="0 0 63.5 88.899986"
   version="1.1"
   id="svg1"
   xmlns="http://www.w3.org/2000/svg"
   xmlns:svg="http://www.w3.org/2000/svg">
  <defs
     id="defs1" />
  <g
     id="layer1"
     transform="translate(-1355.079,-140.55414)">
    <g
       id="g38">
      <path
         id="path555"
         style="fill:#f4efe7;stroke:none;stroke-width:3.81;stroke-linecap:round;paint-order:markers fill stroke"
         d="m 1361.4207,140.55414 h 50.8166 c 3.5133,0 6.3417,2.83208 6.3417,6.34994 v 76.20011 c 0,3.51787 -2.8284,6.34994 -6.3417,6.34994 h -50.8166 c -3.5133,0 -6.3417,-2.83207 -6.3417,-6.34994 v -76.20011 c 0,-3.51786 2.8284,-6.34994 6.3417,-6.34994 z" />
      <text
         xml:space="preserve"
         style="font-size:12.973px;line-height:0.9;font-family:'DM Serif Display';-inkscape-font-specification:'DM Serif Display';text-align:start;letter-spacing:0px;word-spacing:0px;writing-mode:lr-tb;direction:ltr;text-anchor:start;fill:#000000;fill-opacity:1;stroke:#000000;stroke-width:0.470471;stroke-linecap:round;stroke-linejoin:round;stroke-miterlimit:1.1;stroke-dasharray:none;stroke-opacity:1;paint-order:stroke fill markers"
         x="1361.1613"
         y="153.01892"
         id="text555"><tspan
           id="tspan555"
           style="font-size:12.973px;fill:#000000;fill-opacity:1;stroke:#000000;stroke-width:0.470471;stroke-linecap:round;stroke-linejoin:round;stroke-dasharray:none;stroke-opacity:1"
           x="1361.1613"
           y="153.01892">K</tspan></text>
      <path
         id="path556"
         style="fill:none;stroke:#333333;stroke-width:0.240883;stroke-linecap:round;stroke-dasharray:none;stroke-opacity:1;paint-order:markers fill stroke"
         d="m 1371.584,155.3504 h 30.49 c 2.108,0 3.805,1.88935 3.805,4.23621 v 50.83505 c 0,2.34686 -1.697,4.23621 -3.805,4.23621 h -30.49 c -2.108,0 -3.805,-1.88935 -3.805,-4.23621 v -50.83505 c 0,-2.34686 1.697,-4.23621 3.805,-4.23621 z" />
      <text
         xml:space="preserve"
         style="font-size:12.973px;line-height:0.9;font-family:'DM Serif Display';-inkscape-font-specification:'DM Serif Display';text-align:start;letter-spacing:0px;word-spacing:0px;writing-mode:lr-tb;direction:ltr;text-anchor:start;fill:#000000;fill-opacity:1;stroke:#000000;stroke-width:0.470471;stroke-linecap:round;stroke-linejoin:round;stroke-miterlimit:1.1;stroke-dasharray:none;stroke-opacity:1;paint-order:stroke fill markers"
         x="-1412.4972"
         y="-216.9894"
         id="text556"
         transform="scale(-1)"><tspan
           id="tspan556"
           style="font-size:12.973px;fill:#000000;fill-opacity:1;stroke:#000000;stroke-width:0.470471;stroke-linecap:round;stroke-linejoin:round;stroke-dasharray:none;stroke-opacity:1"
           x="-1412.4972"
           y="-216.9894">K</tspan></text>
      <path
         id="path559"
         style="fill:#7a5de5;fill-opacity:1;stroke-width:3.21417;stroke-linecap:round;paint-order:markers fill stroke"
         d="m 1409.6891,154.53856 c 0,0 -3.435,-2.40377 -4.7328,-4.99883 -1.2973,-2.59505 -1.2973,-5.19009 1.7176,-5.19009 3.0152,0 3.0152,2.59504 3.0152,2.59504 0,0 0,-2.59504 3.0152,-2.59504 3.0149,0 3.0149,2.59504 1.7175,5.19009 -1.2977,2.59506 -4.7327,4.99883 -4.7327,4.99883 z" />
      <path
         id="path560"
         style="fill:#7a5de5;fill-opacity:1;stroke-width:3.21417;stroke-linecap:round;paint-order:markers fill stroke"
         d="m 1363.9689,215.46973 c 0,0 3.435,2.40377 4.7328,4.99883 1.2973,2.59505 1.2973,5.19009 -1.7176,5.19009 -3.0152,0 -3.0152,-2.59504 -3.0152,-2.59504 0,0 0,2.59504 -3.0152,2.59504 -3.0149,0 -3.0149,-2.59504 -1.7175,-5.19009 1.2977,-2.59506 4.7327,-4.99883 4.7327,-4.99883 z" />
      <path
         style="fill:#fff3d4;fill-opacity:1;stroke:#ffbe1a;stroke-width:2.5;stroke-linecap:round;stroke-linejoin:round;stroke-miterlimit:100;stroke-dasharray:none;stroke-opacity:1;paint-order:markers fill stroke"
         d="m 1373.726,180.61192 v -11.92501 l 5.2411,5.24116 7.8618,-10.48234 7.8618,10.48234 5.2412,-5.24116 v 11.92501 z"
         id="path667" />
      <circle
         style="fill:#ffbe1a;fill-opacity:1;stroke:none;stroke-width:2.06346;stroke-linecap:round;stroke-linejoin:round;stroke-miterlimit:100;stroke-dasharray:none;stroke-opacity:1;paint-order:markers fill stroke"
         id="circle668"
         cx="1373.726"
         cy="166.66473"
         r="3.3844523" />
      <circle
         style="fill:#ffbe1a;fill-opacity:1;stroke:none;stroke-width:2.06346;stroke-linecap:round;stroke-linejoin:round;stroke-miterlimit:100;stroke-dasharray:none;stroke-opacity:1;paint-order:markers fill stroke"
         id="circle669"
         cx="1386.829"
         cy="161.33624"
         r="3.3844523" />
      <circle
         style="fill:#ffbe1a;fill-opacity:1;stroke:none;stroke-width:2.06346;stroke-linecap:round;stroke-linejoin:round;stroke-miterlimit:100;stroke-dasharray:none;stroke-opacity:1;paint-order:markers fill stroke"
         id="circle670"
         cx="1399.9318"
         cy="166.66473"
         r="3.3844523" />
      <path
         style="fill:#fff3d4;fill-opacity:1;stroke:#ffbe1a;stroke-width:2.5;stroke-linecap:round;stroke-linejoin:round;stroke-miterlimit:100;stroke-dasharray:none;stroke-opacity:1;paint-order:markers fill stroke"
         d="m 1399.9319,189.39635 v 11.92501 l -5.2412,-5.24116 -7.8617,10.48234 -7.8619,-10.48234 -5.2411,5.24116 v -11.92501 z"
         id="path670" />
      <circle
         style="fill:#ffbe1a;fill-opacity:1;stroke:none;stroke-width:2.06346;stroke-linecap:round;stroke-linejoin:round;stroke-miterlimit:100;stroke-dasharray:none;stroke-opacity:1;paint-order:markers fill stroke"
         id="circle671"
         cx="-1399.9318"
         cy="-203.34358"
         r="3.3844523"
         transform="scale(-1)" />
      <circle
         style="fill:#ffbe1a;fill-opacity:1;stroke:none;stroke-width:2.06346;stroke-linecap:round;stroke-linejoin:round;stroke-miterlimit:100;stroke-dasharray:none;stroke-opacity:1;paint-order:markers fill stroke"
         id="circle672"
         cx="-1386.829"
         cy="-208.67207"
         r="3.3844523"
         transform="scale(-1)" />
      <circle
         style="fill:#ffbe1a;fill-opacity:1;stroke:none;stroke-width:2.06346;stroke-linecap:round;stroke-linejoin:round;stroke-miterlimit:100;stroke-dasharray:none;stroke-opacity:1;paint-order:markers fill stroke"
         id="circle673"
         cx="-1373.726"
         cy="-203.34358"
         r="3.3844523"
         transform="scale(-1)" />
    </g>
  </g>
</svg>
