<?xml version="1.0" encoding="UTF-8" standalone="no"?>
<!-- Created with Inkscape (http://www.inkscape.org/) -->

<svg
   width="63.5mm"
   height="88.899986mm"
   viewBox="0 0 63.5 88.899986"
   version="1.1"
   id="svg1"
   xmlns="http://www.w3.org/2000/svg"
   xmlns:svg="http://www.w3.org/2000/svg">
  <defs
     id="defs1" />
  <g
     id="layer1"
     transform="translate(-1202.679,-13.554164)">
    <g
       id="g23">
      <path
         id="path479"
         style="fill:#f4efe7;stroke:none;stroke-width:3.81;stroke-linecap:round;paint-order:markers fill stroke"
         d="m 1209.0207,13.554164 h 50.8166 c 3.5133,0 6.3417,2.83208 6.3417,6.34994 v 76.20011 c 0,3.51787 -2.8284,6.349936 -6.3417,6.349936 h -50.8166 c -3.5133,0 -6.3417,-2.832066 -6.3417,-6.349936 v -76.20011 c 0,-3.51786 2.8284,-6.34994 6.3417,-6.34994 z" />
      <text
         xml:space="preserve"
         style="font-size:12.973px;line-height:0.9;font-family:'DM Serif Display';-inkscape-font-specification:'DM Serif Display';text-align:start;letter-spacing:0px;word-spacing:0px;writing-mode:lr-tb;direction:ltr;text-anchor:start;fill:#000000;fill-opacity:1;stroke:#000000;stroke-width:0.470471;stroke-linecap:round;stroke-linejoin:round;stroke-miterlimit:1.1;stroke-dasharray:none;stroke-opacity:1;paint-order:stroke fill markers"
         x="1208.7611"
         y="26.018913"
         id="text479"><tspan
           id="tspan479"
           style="font-size:12.973px;fill:#000000;fill-opacity:1;stroke:#000000;stroke-width:0.470471;stroke-linecap:round;stroke-linejoin:round;stroke-dasharray:none;stroke-opacity:1"
           x="1208.7611"
           y="26.018913">B</tspan></text>
      <path
         id="path480"
         style="fill:none;fill-opacity:0;stroke:#333333;stroke-width:0.240883;stroke-linecap:round;stroke-dasharray:none;stroke-opacity:1;paint-order:markers fill stroke"
         d="m 1219.184,28.350424 h 30.49 c 2.108,0 3.805,1.88935 3.805,4.23621 v 50.83505 c 0,2.34686 -1.697,4.23621 -3.805,4.23621 h -30.49 c -2.108,0 -3.805,-1.88935 -3.805,-4.23621 v -50.83505 c 0,-2.34686 1.697,-4.23621 3.805,-4.23621 z" />
      <text
         xml:space="preserve"
         style="font-size:12.973px;line-height:0.9;font-family:'DM Serif Display';-inkscape-font-specification:'DM Serif Display';text-align:start;letter-spacing:0px;word-spacing:0px;writing-mode:lr-tb;direction:ltr;text-anchor:start;fill:#000000;fill-opacity:1;stroke:#000000;stroke-width:0.470471;stroke-linecap:round;stroke-linejoin:round;stroke-miterlimit:1.1;stroke-dasharray:none;stroke-opacity:1;paint-order:stroke fill markers"
         x="-1260.097"
         y="-89.98938"
         id="text480"
         transform="scale(-1)"><tspan
           id="tspan480"
           style="font-size:12.973px;fill:#000000;fill-opacity:1;stroke:#000000;stroke-width:0.470471;stroke-linecap:round;stroke-linejoin:round;stroke-dasharray:none;stroke-opacity:1"
           x="-1260.097"
           y="-89.98938">B</tspan></text>
      <path
         id="path481"
         style="fill:#ffbe1a;stroke-width:2.71543;stroke-linecap:round;paint-order:markers fill stroke"
         d="m 1216.649,93.564204 a 5.0944629,5.0944629 0 0 1 -5.0944,5.09447 5.0944629,5.0944629 0 0 1 -5.0945,-5.09447 5.0944629,5.0944629 0 0 1 5.0945,-5.09446 5.0944629,5.0944629 0 0 1 5.0944,5.09446 z" />
      <path
         id="path482"
         style="fill:#ffbe1a;stroke-width:2.71543;stroke-linecap:round;paint-order:markers fill stroke"
         d="m 1262.3692,22.444124 a 5.0944629,5.0944629 0 0 1 -5.0944,5.09447 5.0944629,5.0944629 0 0 1 -5.0945,-5.09447 5.0944629,5.0944629 0 0 1 5.0945,-5.09446 5.0944629,5.0944629 0 0 1 5.0944,5.09446 z" />
      <path
         style="fill:#f66065;fill-opacity:1;stroke:none;stroke-width:0.716832;stroke-linecap:square;paint-order:markers fill stroke"
         d="m 1224.3324,53.711174 c -12.1154,-4.58595 -4.8171,-20.47497 5.7126,-20.47497 10.5775,0 10.112,6.28056 16.5819,8.07544 5.1968,1.44169 6.3909,9.354 -1.2164,11.26298 0,0 -16.0911,3.02424 -21.0781,1.13655 z"
         id="path491" />
      <path
         id="path492"
         style="fill:#000000;fill-opacity:0.295445;stroke:none;stroke-width:0.351399;stroke-linecap:square;stroke-opacity:1;paint-order:markers fill stroke"
         d="m 1235.1565,38.146584 c 0,0 -7.9346,0.26342 -11.4666,5.07506 -1.5348,2.09071 -1.3942,4.08472 -0.8333,5.29177 0.5273,1.13499 1.5139,1.84084 2.5832,2.1454 0.4432,1.26954 1.0291,2.10864 1.1109,2.19339 0.1717,0.17772 1.5894,0.61907 1.8213,0.41865 0.1088,-0.0939 -0.5708,-1.06472 -1.1708,-2.46758 1.109,-0.13471 2.0812,-0.70546 2.4706,-1.68306 0.7087,-1.77963 -0.8183,-3.26181 0.4416,-5.95233 1.3968,-2.98298 5.0431,-5.0213 5.0431,-5.0213 z" />
      <path
         style="fill:#edfcf8;fill-opacity:1;stroke:none;stroke-width:0.351399;stroke-linecap:square;stroke-opacity:1;paint-order:markers fill stroke"
         d="m 1222.2938,43.851094 c 2.7789,-5.28255 10.5864,-6.72051 10.5864,-6.72051 0,0 -3.3033,2.55674 -4.2419,5.71399 -0.8466,2.84771 0.8834,4.08685 0.4466,5.95196 -0.5902,2.52029 -5.0336,3.12991 -6.83,0.41142 -0.7336,-1.11044 -1.1685,-3.06155 0.039,-5.35686 z"
         id="path493" />
      <path
         style="fill:#898877;fill-opacity:1;stroke:none;stroke-width:0.351399;stroke-linecap:square;stroke-opacity:1;paint-order:markers fill stroke"
         d="m 1226.6528,52.916794 c 0.1962,0.15027 1.6637,0.37643 1.8633,0.14383 0.2059,-0.23997 -3.4931,-3.06614 -2.7778,-7.43933 0.6029,-3.68637 4.8657,-7.1595 4.7835,-7.24277 -0.099,-0.0997 -4.874,2.37932 -5.9316,7.57528 -0.9005,4.42453 1.8553,6.80419 2.0626,6.96299 z"
         id="path494" />
      <path
         style="fill:#8f8f85;fill-opacity:1;stroke:none;stroke-width:0.351399;stroke-linecap:square;stroke-opacity:1;paint-order:markers fill stroke"
         d="m 1226.5523,52.950334 c 0.1961,0.15027 1.6637,0.37643 1.8632,0.14382 0.206,-0.23996 -4.0011,-4.09526 -2.7443,-8.34458 1.4077,-4.75925 5.5364,-6.60628 5.4541,-6.68955 -0.098,-0.0997 -5.1421,1.69199 -6.7027,6.95501 -1.2835,4.32897 1.9224,7.7765 2.1297,7.9353 z"
         id="path495" />
      <rect
         style="fill:#4a2e2d;fill-opacity:1;stroke:none;stroke-width:0.716843;stroke-linecap:square;paint-order:markers fill stroke"
         id="rect495"
         width="24.677181"
         height="3.0845585"
         x="1220.8351"
         y="51.748558"
         rx="0"
         ry="1.3411124" />
      <path
         style="fill:#f66065;fill-opacity:1;stroke:none;stroke-width:0.716832;stroke-linecap:square;paint-order:markers fill stroke"
         d="m 1244.5256,62.297134 c 12.1154,4.58595 4.8171,20.47497 -5.7126,20.47497 -10.5775,0 -10.112,-6.28056 -16.5819,-8.07544 -5.1968,-1.44169 -6.3909,-9.354 1.2164,-11.26298 0,0 16.0911,-3.02424 21.0781,-1.13655 z"
         id="path496" />
      <path
         id="path497"
         style="fill:#000000;fill-opacity:0.295445;stroke:none;stroke-width:0.351399;stroke-linecap:square;stroke-opacity:1;paint-order:markers fill stroke"
         d="m 1233.7015,77.861724 c 0,0 7.9346,-0.26342 11.4666,-5.07506 1.5348,-2.09071 1.3942,-4.08472 0.8333,-5.29177 -0.5273,-1.13499 -1.5139,-1.84084 -2.5832,-2.1454 -0.4432,-1.26954 -1.0291,-2.10864 -1.1109,-2.19339 -0.1717,-0.17772 -1.5894,-0.61907 -1.8213,-0.41865 -0.1088,0.0939 0.5708,1.06472 1.1708,2.46758 -1.109,0.13471 -2.0812,0.70546 -2.4706,1.68306 -0.7087,1.77963 0.8183,3.26181 -0.4416,5.95233 -1.3968,2.98298 -5.0431,5.0213 -5.0431,5.0213 z" />
      <path
         style="fill:#edfcf8;fill-opacity:1;stroke:none;stroke-width:0.351399;stroke-linecap:square;stroke-opacity:1;paint-order:markers fill stroke"
         d="m 1246.5642,72.157214 c -2.7789,5.28255 -10.5864,6.72051 -10.5864,6.72051 0,0 3.3033,-2.55674 4.2419,-5.71399 0.8466,-2.84771 -0.8834,-4.08685 -0.4466,-5.95196 0.5902,-2.52029 5.0336,-3.12991 6.83,-0.41142 0.7336,1.11044 1.1685,3.06155 -0.039,5.35686 z"
         id="path498" />
      <path
         style="fill:#898877;fill-opacity:1;stroke:none;stroke-width:0.351399;stroke-linecap:square;stroke-opacity:1;paint-order:markers fill stroke"
         d="m 1242.2052,63.091514 c -0.1962,-0.15027 -1.6637,-0.37643 -1.8633,-0.14383 -0.2059,0.23997 3.4931,3.06614 2.7778,7.43933 -0.6029,3.68637 -4.8657,7.1595 -4.7835,7.24277 0.098,0.0997 4.874,-2.37932 5.9316,-7.57528 0.9005,-4.42453 -1.8553,-6.80419 -2.0626,-6.96299 z"
         id="path499" />
      <path
         style="fill:#8f8f85;fill-opacity:1;stroke:none;stroke-width:0.351399;stroke-linecap:square;stroke-opacity:1;paint-order:markers fill stroke"
         d="m 1242.3057,63.057974 c -0.1961,-0.15027 -1.6637,-0.37643 -1.8632,-0.14382 -0.206,0.23996 4.0011,4.09526 2.7443,8.34458 -1.4077,4.75925 -5.5364,6.60628 -5.4541,6.68955 0.098,0.0997 5.1421,-1.69199 6.7027,-6.95501 1.2835,-4.32897 -1.9224,-7.7765 -2.1297,-7.9353 z"
         id="path500" />
      <rect
         style="fill:#4a2e2d;fill-opacity:1;stroke:none;stroke-width:0.716843;stroke-linecap:square;paint-order:markers fill stroke"
         id="rect500"
         width="24.677181"
         height="3.0845585"
         x="-1248.0228"
         y="-64.259766"
         rx="0"
         ry="1.3411124"
         transform="scale(-1)" />
    </g>
  </g>
</svg>
