<?xml version="1.0" encoding="UTF-8" standalone="no"?>
<!-- Created with Inkscape (http://www.inkscape.org/) -->

<svg
   width="63.5mm"
   height="88.899986mm"
   viewBox="0 0 63.5 88.899986"
   version="1.1"
   id="svg1"
   xmlns="http://www.w3.org/2000/svg"
   xmlns:svg="http://www.w3.org/2000/svg">
  <defs
     id="defs1" />
  <g
     id="layer1"
     transform="translate(-821.679,-267.55415)">
    <g
       id="g44">
      <path
         id="path423"
         style="fill:#f4efe7;stroke:none;stroke-width:3.81;stroke-linecap:round;paint-order:markers fill stroke"
         d="m 828.0207,267.55415 h 50.8166 c 3.5133,0 6.3417,2.83208 6.3417,6.34994 v 76.20011 c 0,3.51787 -2.8284,6.34994 -6.3417,6.34994 h -50.8166 c -3.5133,0 -6.3417,-2.83207 -6.3417,-6.34994 v -76.20011 c 0,-3.51786 2.8284,-6.34994 6.3417,-6.34994 z" />
      <text
         xml:space="preserve"
         style="font-size:12.973px;line-height:0.9;font-family:'DM Serif Display';-inkscape-font-specification:'DM Serif Display';text-align:start;letter-spacing:0px;word-spacing:0px;writing-mode:lr-tb;direction:ltr;text-anchor:start;fill:#000000;fill-opacity:1;stroke:#000000;stroke-width:0.470471;stroke-linecap:round;stroke-linejoin:round;stroke-miterlimit:1.1;stroke-dasharray:none;stroke-opacity:1;paint-order:stroke fill markers"
         x="827.76086"
         y="280.01889"
         id="text424"><tspan
           id="tspan424"
           style="font-size:12.973px;fill:#000000;fill-opacity:1;stroke:#000000;stroke-width:0.470471;stroke-linecap:round;stroke-linejoin:round;stroke-dasharray:none;stroke-opacity:1"
           x="827.76086"
           y="280.01889">6</tspan></text>
      <text
         xml:space="preserve"
         style="font-size:55.5989px;line-height:0.9;font-family:'DM Serif Display';-inkscape-font-specification:'DM Serif Display';text-align:start;letter-spacing:0px;word-spacing:0px;writing-mode:lr-tb;direction:ltr;text-anchor:start;fill:#000000;fill-opacity:1;stroke:#000000;stroke-width:2.032;stroke-linecap:round;stroke-linejoin:round;stroke-miterlimit:1.1;stroke-dasharray:none;stroke-opacity:1;paint-order:stroke fill markers"
         x="838.66736"
         y="329.62894"
         id="text425"><tspan
           id="tspan425"
           style="font-size:55.5989px;fill:#000000;fill-opacity:1;stroke:#000000;stroke-width:2.032;stroke-linecap:round;stroke-linejoin:round;stroke-dasharray:none;stroke-opacity:1"
           x="838.66736"
           y="329.62894">6</tspan></text>
      <path
         id="path425"
         style="fill:none;stroke:#333333;stroke-width:0.240883;stroke-linecap:round;stroke-dasharray:none;stroke-opacity:1;paint-order:markers fill stroke"
         d="m 838.184,282.35041 h 30.49 c 2.108,0 3.805,1.88935 3.805,4.23621 v 50.83505 c 0,2.34686 -1.697,4.23621 -3.805,4.23621 h -30.49 c -2.108,0 -3.805,-1.88935 -3.805,-4.23621 v -50.83505 c 0,-2.34686 1.697,-4.23621 3.805,-4.23621 z" />
      <text
         xml:space="preserve"
         style="font-size:12.973px;line-height:0.9;font-family:'DM Serif Display';-inkscape-font-specification:'DM Serif Display';text-align:start;letter-spacing:0px;word-spacing:0px;writing-mode:lr-tb;direction:ltr;text-anchor:start;fill:#000000;fill-opacity:1;stroke:#000000;stroke-width:0.470471;stroke-linecap:round;stroke-linejoin:round;stroke-miterlimit:1.1;stroke-dasharray:none;stroke-opacity:1;paint-order:stroke fill markers"
         x="-879.0968"
         y="-343.98938"
         id="text426"
         transform="scale(-1)"><tspan
           id="tspan426"
           style="font-size:12.973px;fill:#000000;fill-opacity:1;stroke:#000000;stroke-width:0.470471;stroke-linecap:round;stroke-linejoin:round;stroke-dasharray:none;stroke-opacity:1"
           x="-879.0968"
           y="-343.98938">6</tspan></text>
      <path
         id="path465"
         style="fill:#ffbe1a;stroke-width:3.82709;stroke-linecap:round;paint-order:markers fill stroke"
         d="m 876.7544,271.03955 4.9248,4.92478 c 0.2658,0.2658 0.2658,0.69375 0,0.95954 l -4.9248,4.9248 c -0.2658,0.26579 -0.6937,0.2658 -0.9595,-1e-5 l -4.9248,-4.92478 c -0.2658,-0.2658 -0.2658,-0.69375 0,-0.95954 l 4.9248,-4.9248 c 0.2658,-0.26579 0.6937,-0.26579 0.9595,1e-5 z" />
      <path
         id="path469"
         style="fill:#ffbe1a;stroke-width:3.82709;stroke-linecap:round;paint-order:markers fill stroke"
         d="m 831.0342,342.15963 4.9248,4.92478 c 0.2658,0.2658 0.2658,0.69375 0,0.95954 l -4.9248,4.9248 c -0.2658,0.26579 -0.6937,0.2658 -0.9595,-10e-6 l -4.9248,-4.92478 c -0.2658,-0.2658 -0.2658,-0.69375 0,-0.95954 l 4.9248,-4.9248 c 0.2658,-0.26579 0.6937,-0.26579 0.9595,10e-6 z" />
    </g>
  </g>
</svg>
