<?xml version="1.0" encoding="UTF-8" standalone="no"?>
<!-- Created with Inkscape (http://www.inkscape.org/) -->

<svg
   width="63.5mm"
   height="88.899986mm"
   viewBox="0 0 63.5 88.899986"
   version="1.1"
   id="svg1"
   xmlns="http://www.w3.org/2000/svg"
   xmlns:svg="http://www.w3.org/2000/svg">
  <defs
     id="defs1" />
  <g
     id="layer1"
     transform="translate(-1278.879,-267.55414)">
    <g
       id="g50">
      <path
         id="path541"
         style="fill:#f4efe7;stroke:none;stroke-width:3.81;stroke-linecap:round;paint-order:markers fill stroke"
         d="m 1285.2207,267.55414 h 50.8166 c 3.5133,0 6.3417,2.83208 6.3417,6.34994 v 76.20011 c 0,3.51787 -2.8284,6.34994 -6.3417,6.34994 h -50.8166 c -3.5133,0 -6.3417,-2.83207 -6.3417,-6.34994 v -76.20011 c 0,-3.51786 2.8284,-6.34994 6.3417,-6.34994 z" />
      <text
         xml:space="preserve"
         style="font-size:12.973px;line-height:0.9;font-family:'DM Serif Display';-inkscape-font-specification:'DM Serif Display';text-align:start;letter-spacing:0px;word-spacing:0px;writing-mode:lr-tb;direction:ltr;text-anchor:start;fill:#000000;fill-opacity:1;stroke:#000000;stroke-width:0.470471;stroke-linecap:round;stroke-linejoin:round;stroke-miterlimit:1.1;stroke-dasharray:none;stroke-opacity:1;paint-order:stroke fill markers"
         x="1284.9613"
         y="280.01889"
         id="text541"><tspan
           id="tspan541"
           style="font-size:12.973px;fill:#000000;fill-opacity:1;stroke:#000000;stroke-width:0.470471;stroke-linecap:round;stroke-linejoin:round;stroke-dasharray:none;stroke-opacity:1"
           x="1284.9613"
           y="280.01889">Q</tspan></text>
      <path
         id="path542"
         style="fill:none;stroke:#333333;stroke-width:0.240883;stroke-linecap:round;stroke-dasharray:none;stroke-opacity:1;paint-order:markers fill stroke"
         d="m 1295.384,282.3504 h 30.49 c 2.108,0 3.805,1.88935 3.805,4.23621 v 50.83505 c 0,2.34686 -1.697,4.23621 -3.805,4.23621 h -30.49 c -2.108,0 -3.805,-1.88935 -3.805,-4.23621 v -50.83505 c 0,-2.34686 1.697,-4.23621 3.805,-4.23621 z" />
      <text
         xml:space="preserve"
         style="font-size:12.973px;line-height:0.9;font-family:'DM Serif Display';-inkscape-font-specification:'DM Serif Display';text-align:start;letter-spacing:0px;word-spacing:0px;writing-mode:lr-tb;direction:ltr;text-anchor:start;fill:#000000;fill-opacity:1;stroke:#000000;stroke-width:0.470471;stroke-linecap:round;stroke-linejoin:round;stroke-miterlimit:1.1;stroke-dasharray:none;stroke-opacity:1;paint-order:stroke fill markers"
         x="-1336.2972"
         y="-343.98938"
         id="text542"
         transform="scale(-1)"><tspan
           id="tspan542"
           style="font-size:12.973px;fill:#000000;fill-opacity:1;stroke:#000000;stroke-width:0.470471;stroke-linecap:round;stroke-linejoin:round;stroke-dasharray:none;stroke-opacity:1"
           x="-1336.2972"
           y="-343.98938">Q</tspan></text>
      <path
         id="path545"
         style="fill:#ffbe1a;stroke-width:3.82709;stroke-linecap:round;paint-order:markers fill stroke"
         d="m 1333.9545,271.03955 4.9248,4.92478 c 0.2658,0.2658 0.2658,0.69375 0,0.95954 l -4.9248,4.9248 c -0.2658,0.26579 -0.6937,0.2658 -0.9595,-1e-5 l -4.9248,-4.92478 c -0.2658,-0.2658 -0.2658,-0.69375 0,-0.95954 l 4.9248,-4.9248 c 0.2658,-0.26579 0.6937,-0.26579 0.9595,1e-5 z" />
      <path
         id="path546"
         style="fill:#ffbe1a;stroke-width:3.82709;stroke-linecap:round;paint-order:markers fill stroke"
         d="m 1288.2343,342.15963 4.9248,4.92478 c 0.2658,0.2658 0.2658,0.69375 0,0.95954 l -4.9248,4.9248 c -0.2658,0.26579 -0.6937,0.2658 -0.9595,-10e-6 l -4.9248,-4.92478 c -0.2658,-0.2658 -0.2658,-0.69375 0,-0.95954 l 4.9248,-4.9248 c 0.2658,-0.26579 0.6937,-0.26579 0.9595,10e-6 z" />
      <rect
         style="fill:#fff3d4;fill-opacity:1;stroke:none;stroke-width:2.49688;stroke-linecap:round;stroke-linejoin:round;stroke-miterlimit:100;stroke-dasharray:none;stroke-opacity:1;paint-order:markers fill stroke"
         id="rect637"
         width="20.316551"
         height="2.873827"
         x="1300.4708"
         y="304.73807" />
      <path
         style="fill:#fff3d4;fill-opacity:1;stroke:#ffbe1a;stroke-width:2.5;stroke-linecap:round;stroke-dasharray:none;stroke-opacity:1;paint-order:markers fill stroke"
         d="m 1320.7873,307.61192 c 0,0 5.0792,-4.99797 5.0792,-9.99594 0,-4.99796 -10.1583,0 -10.1583,0"
         id="path637" />
      <path
         style="fill:#fff3d4;fill-opacity:1;stroke:#ffbe1a;stroke-width:2.5;stroke-linecap:round;stroke-dasharray:none;stroke-opacity:1;paint-order:markers fill stroke"
         d="m 1300.4708,307.61192 c 0,0 -5.0791,-4.99797 -5.0791,-9.99594 0,-4.99796 10.1583,0 10.1583,0"
         id="path638" />
      <path
         style="fill:none;fill-opacity:1;stroke:#ffbe1a;stroke-width:2.49999;stroke-linecap:round;stroke-linejoin:round;stroke-miterlimit:100;stroke-dasharray:none;stroke-opacity:1;paint-order:markers fill stroke"
         d="m 1305.55,297.61598 c 0,0 5.079,0 5.079,-4.99797 v -3.12048 3.12048 c 0,5.32361 5.0792,4.99797 5.0792,4.99797"
         id="path639" />
      <path
         style="fill:#fff3d4;fill-opacity:1;stroke:#ffbe1a;stroke-width:2.5;stroke-linecap:round;stroke-dasharray:none;stroke-opacity:1;paint-order:markers fill stroke"
         d="m 1305.55,307.61192 c 0,0 -5.0792,-4.99797 -5.0792,-9.99594 0,-4.99796 5.0792,-4.99796 10.1582,-4.99796 5.0792,0 10.1583,0 10.1583,4.99796 0,4.99797 -5.0791,9.99594 -5.0791,9.99594 z"
         id="path640" />
      <path
         style="fill:#ffbe1a;fill-opacity:1;stroke:#ffbe1a;stroke-width:2.49999;stroke-linecap:round;stroke-linejoin:round;stroke-miterlimit:100;stroke-dasharray:none;stroke-opacity:1;paint-order:markers fill stroke"
         d="m 1300.4708,307.61192 h 20.3165"
         id="path641" />
      <path
         style="fill:#ffbe1a;fill-opacity:1;stroke:#ffbe1a;stroke-width:2.49688;stroke-linecap:round;stroke-linejoin:round;stroke-miterlimit:100;stroke-dasharray:none;stroke-opacity:1;paint-order:markers fill stroke"
         d="m 1310.629,286.98591 v 5.02326"
         id="path642" />
      <path
         style="fill:#ffbe1a;fill-opacity:1;stroke:#ffbe1a;stroke-width:2.49688;stroke-linecap:round;stroke-linejoin:round;stroke-miterlimit:100;stroke-dasharray:none;stroke-opacity:1;paint-order:markers fill stroke"
         d="m 1308.1031,289.47139 5.0783,0.0262"
         id="path643" />
      <rect
         style="fill:#fff3d4;fill-opacity:1;stroke:none;stroke-width:2.49688;stroke-linecap:round;stroke-linejoin:round;stroke-miterlimit:100;stroke-dasharray:none;stroke-opacity:1;paint-order:markers fill stroke"
         id="rect644"
         width="20.316551"
         height="2.873827"
         x="-1320.7875"
         y="-319.27014"
         transform="scale(-1)" />
      <path
         style="fill:#fff3d4;fill-opacity:1;stroke:#ffbe1a;stroke-width:2.5;stroke-linecap:round;stroke-dasharray:none;stroke-opacity:1;paint-order:markers fill stroke"
         d="m 1300.4709,316.39634 c 0,0 -5.0792,4.99797 -5.0792,9.99594 0,4.99796 10.1583,0 10.1583,0"
         id="path644" />
      <path
         style="fill:#fff3d4;fill-opacity:1;stroke:#ffbe1a;stroke-width:2.5;stroke-linecap:round;stroke-dasharray:none;stroke-opacity:1;paint-order:markers fill stroke"
         d="m 1320.7874,316.39634 c 0,0 5.0791,4.99797 5.0791,9.99594 0,4.99796 -10.1583,0 -10.1583,0"
         id="path645" />
      <path
         style="fill:none;fill-opacity:1;stroke:#ffbe1a;stroke-width:2.49999;stroke-linecap:round;stroke-linejoin:round;stroke-miterlimit:100;stroke-dasharray:none;stroke-opacity:1;paint-order:markers fill stroke"
         d="m 1315.7082,326.39228 c 0,0 -5.079,0 -5.079,4.99797 v 3.12048 -3.12048 c 0,-5.32361 -5.0792,-4.99797 -5.0792,-4.99797"
         id="path646" />
      <path
         style="fill:#fff3d4;fill-opacity:1;stroke:#ffbe1a;stroke-width:2.5;stroke-linecap:round;stroke-dasharray:none;stroke-opacity:1;paint-order:markers fill stroke"
         d="m 1315.7082,316.39634 c 0,0 5.0792,4.99797 5.0792,9.99594 0,4.99796 -5.0792,4.99796 -10.1582,4.99796 -5.0792,0 -10.1583,0 -10.1583,-4.99796 0,-4.99797 5.0791,-9.99594 5.0791,-9.99594 z"
         id="path647" />
      <path
         style="fill:#ffbe1a;fill-opacity:1;stroke:#ffbe1a;stroke-width:2.49999;stroke-linecap:round;stroke-linejoin:round;stroke-miterlimit:100;stroke-dasharray:none;stroke-opacity:1;paint-order:markers fill stroke"
         d="m 1320.7874,316.39634 h -20.3165"
         id="path648" />
      <path
         style="fill:#ffbe1a;fill-opacity:1;stroke:#ffbe1a;stroke-width:2.49688;stroke-linecap:round;stroke-linejoin:round;stroke-miterlimit:100;stroke-dasharray:none;stroke-opacity:1;paint-order:markers fill stroke"
         d="m 1310.6292,337.0224 v -5.02326"
         id="path649" />
      <path
         style="fill:#ffbe1a;fill-opacity:1;stroke:#ffbe1a;stroke-width:2.49688;stroke-linecap:round;stroke-linejoin:round;stroke-miterlimit:100;stroke-dasharray:none;stroke-opacity:1;paint-order:markers fill stroke"
         d="m 1313.1551,334.53692 -5.0783,-0.0262"
         id="path650" />
    </g>
  </g>
</svg>
