<?xml version="1.0" encoding="UTF-8" standalone="no"?>
<!-- Created with Inkscape (http://www.inkscape.org/) -->

<svg
   width="63.5mm"
   height="88.899986mm"
   viewBox="0 0 63.5 88.899986"
   version="1.1"
   id="svg1"
   sodipodi:docname="Card_6C.svg"
   xmlns:inkscape="http://www.inkscape.org/namespaces/inkscape"
   xmlns:sodipodi="http://sodipodi.sourceforge.net/DTD/sodipodi-0.dtd"
   xmlns="http://www.w3.org/2000/svg"
   xmlns:svg="http://www.w3.org/2000/svg">
  <sodipodi:namedview
     id="namedview16"
     pagecolor="#ffffff"
     bordercolor="#000000"
     borderopacity="0.25"
     inkscape:showpageshadow="2"
     inkscape:pageopacity="0.0"
     inkscape:pagecheckerboard="0"
     inkscape:deskcolor="#d1d1d1"
     inkscape:document-units="mm" />
  <defs
     id="defs1" />
  <g
     id="layer1"
     transform="translate(-821.679,113.44583)">
    <g
       id="g5">
      <path
         id="path44"
         style="fill:#f4efe7;stroke:none;stroke-width:3.81;stroke-linecap:round;paint-order:markers fill stroke"
         d="m 828.0207,-113.44583 h 50.8166 c 3.5133,0 6.3417,2.83208 6.3417,6.34994 v 76.20011 c 0,3.51787 -2.8284,6.34994 -6.3417,6.34994 h -50.8166 c -3.5133,0 -6.3417,-2.83207 -6.3417,-6.34994 v -76.20011 c 0,-3.51786 2.8284,-6.34994 6.3417,-6.34994 z" />
      <path
         id="path53"
         style="fill:#7a5de5;fill-opacity:1;stroke-width:1.77626;stroke-linecap:round;paint-order:markers fill stroke"
         d="m 879.674,-109.36399 c -0.3622,-0.36236 -0.9454,-0.36233 -1.308,-1e-5 l -0.7114,0.71143 -0.7116,0.71163 -0.6539,0.654 -1.3656,-1.36566 -0.7114,-0.7114 c -0.3625,-0.36231 -0.9458,-0.36236 -1.3082,-2e-5 l -1.4231,1.42307 c -0.3623,0.36231 -0.3623,0.94571 0,1.30801 l 1.4231,1.42306 0.6541,0.65402 -1.3657,1.36565 -0.7114,0.71142 c -0.3623,0.36232 -0.3623,0.94566 0,1.30802 l 1.4232,1.42303 c 0.3622,0.36232 0.9455,0.36235 1.308,10e-6 l 1.423,-1.42304 0.6541,-0.65401 0.6538,0.65399 0.7117,0.71161 0.7115,0.71145 c 0.3624,0.36231 0.9457,0.36229 1.308,-2e-5 l 1.4231,-1.42304 c 0.3624,-0.36237 0.3624,-0.94569 0,-1.30799 l -0.7114,-0.71144 -0.7117,-0.71165 -0.6541,-0.65398 0.6541,-0.65401 0.7117,-0.71162 0.7114,-0.71144 c 0.3624,-0.36232 0.3624,-0.94572 0,-1.30802 z" />
      <path
         id="path74"
         style="fill:#7a5de5;fill-opacity:1;stroke-width:1.77626;stroke-linecap:round;paint-order:markers fill stroke"
         d="m 833.9538,-38.24391 c -0.3622,-0.36236 -0.9454,-0.36233 -1.308,-1e-5 l -0.7114,0.71143 -0.7116,0.71163 -0.6539,0.654 -1.3656,-1.36566 -0.7114,-0.7114 c -0.3625,-0.36231 -0.9458,-0.36236 -1.3082,-2e-5 l -1.4231,1.42307 c -0.3623,0.36231 -0.3623,0.94571 0,1.30801 l 1.4231,1.42306 0.6541,0.65402 -1.3657,1.36565 -0.7114,0.71142 c -0.3623,0.36232 -0.3623,0.94566 0,1.30802 l 1.4232,1.42303 c 0.3622,0.36232 0.9455,0.36235 1.308,10e-6 l 1.423,-1.42304 0.6541,-0.65401 0.6538,0.65399 0.7117,0.71161 0.7115,0.71145 c 0.3624,0.36231 0.9457,0.36229 1.308,-2e-5 l 1.4231,-1.42304 c 0.3624,-0.36237 0.3624,-0.94569 0,-1.30799 l -0.7114,-0.71144 -0.7117,-0.71165 -0.6541,-0.65398 0.6541,-0.65401 0.7117,-0.71162 0.7114,-0.71144 c 0.3624,-0.36232 0.3624,-0.94572 0,-1.30802 z" />
      <g
         aria-label="6"
         id="text74"
         style="font-size:12.973px;line-height:0.9;font-family:'DM Serif Display';-inkscape-font-specification:'DM Serif Display';letter-spacing:0px;word-spacing:0px;stroke:#000000;stroke-width:0.470471;stroke-linecap:round;stroke-linejoin:round;stroke-miterlimit:1.1;paint-order:stroke fill markers">
        <path
           d="m 831.26364,-100.78646 q -1.38812,0 -2.24433,-0.92108 -0.84325,-0.92109 -0.84325,-2.5946 0,-0.99893 0.38919,-1.86812 0.38919,-0.86919 1.10271,-1.55676 0.72648,-0.68756 1.72541,-1.11567 1.01189,-0.44109 2.24432,-0.55784 l 0.0389,0.19459 q -1.5827,0.32433 -2.41297,1.19352 -0.8173,0.86919 -1.07676,2.36108 0.75243,-0.44108 1.68649,-0.44108 0.79135,0 1.31027,0.32433 0.51892,0.32432 0.77838,0.88216 0.27243,0.54487 0.27243,1.23244 0,0.92108 -0.44108,1.56973 -0.42811,0.63568 -1.11568,0.97297 -0.67459,0.32433 -1.41405,0.32433 z m -1.19352,-3.24325 q 0,1.60865 0.27243,2.29622 0.28541,0.68757 0.88217,0.68757 0.59675,0 0.86919,-0.55784 0.2854,-0.57081 0.2854,-1.89406 0,-1.21946 -0.2854,-1.69946 -0.28541,-0.48 -0.93406,-0.48 -0.54486,0 -1.01189,0.27243 -0.0778,0.6227 -0.0778,1.37514 z"
           id="path18" />
      </g>
      <path
         id="path75"
         style="fill:none;fill-opacity:0;stroke:#333333;stroke-width:0.240883;stroke-linecap:round;stroke-dasharray:none;stroke-opacity:1;paint-order:markers fill stroke"
         d="m 838.184,-98.64957 h 30.49 c 2.108,0 3.805,1.88935 3.805,4.23621 v 50.83505 c 0,2.34686 -1.697,4.23621 -3.805,4.23621 h -30.49 c -2.108,0 -3.805,-1.88935 -3.805,-4.23621 v -50.83505 c 0,-2.34686 1.697,-4.23621 3.805,-4.23621 z" />
      <g
         aria-label="6"
         id="text86"
         style="font-size:55.5989px;line-height:0.9;font-family:'DM Serif Display';-inkscape-font-specification:'DM Serif Display';letter-spacing:0px;word-spacing:0px;stroke:#000000;stroke-width:2.032;stroke-linecap:round;stroke-linejoin:round;stroke-miterlimit:1.1;paint-order:stroke fill markers">
        <path
           d="m 853.67912,-50.537 q -5.94908,0 -9.61861,-3.947522 -3.61393,-3.947521 -3.61393,-11.119779 0,-4.281116 1.66797,-8.006242 1.66797,-3.725126 4.72591,-6.671868 3.11354,-2.946742 7.39465,-4.781505 4.33672,-1.890363 9.61861,-2.390753 l 0.1668,0.833983 q -6.78307,1.389973 -10.3414,5.115099 -3.50273,3.725126 -4.61471,10.119 3.22474,-1.890363 7.22786,-1.890363 3.39153,0 5.61549,1.389973 2.22396,1.389972 3.33593,3.780725 1.16758,2.335154 1.16758,5.281896 0,3.947521 -1.89036,6.727466 -1.83477,2.724346 -4.78151,4.169918 -2.89114,1.389972 -6.06028,1.389972 z m -5.1151,-13.899725 q 0,6.894264 1.16758,9.841006 1.22318,2.946741 3.78073,2.946741 2.55755,0 3.72512,-2.390752 1.22318,-2.446352 1.22318,-8.11744 0,-5.226296 -1.22318,-7.283456 -1.22317,-2.057159 -4.00312,-2.057159 -2.33515,0 -4.33671,1.167577 -0.3336,2.668747 -0.3336,5.893483 z"
           id="path21" />
      </g>
      <g
         aria-label="6"
         transform="scale(-1)"
         id="text98"
         style="font-size:12.973px;line-height:0.9;font-family:'DM Serif Display';-inkscape-font-specification:'DM Serif Display';letter-spacing:0px;word-spacing:0px;stroke:#000000;stroke-width:0.470471;stroke-linecap:round;stroke-linejoin:round;stroke-miterlimit:1.1;paint-order:stroke fill markers">
        <path
           d="m -875.59415,37.205166 q -1.38811,0 -2.24433,-0.921083 -0.84325,-0.921083 -0.84325,-2.5946 0,-0.998921 0.38919,-1.868112 0.38919,-0.869191 1.10271,-1.55676 0.72649,-0.687569 1.72541,-1.115678 1.01189,-0.441082 2.24433,-0.557839 l 0.0389,0.194595 q -1.58271,0.324325 -2.41298,1.193516 -0.8173,0.869191 -1.07676,2.361086 0.75243,-0.441082 1.68649,-0.441082 0.79135,0 1.31027,0.324325 0.51892,0.324325 0.77838,0.882164 0.27243,0.544866 0.27243,1.232435 0,0.921083 -0.44108,1.569733 -0.42811,0.635677 -1.11568,0.972975 -0.67459,0.324325 -1.41405,0.324325 z m -1.19352,-3.24325 q 0,1.608652 0.27243,2.296221 0.28541,0.687569 0.88217,0.687569 0.59676,0 0.86919,-0.557839 0.28541,-0.570812 0.28541,-1.894058 0,-1.219462 -0.28541,-1.699463 -0.28541,-0.480001 -0.93406,-0.480001 -0.54486,0 -1.01189,0.272433 -0.0778,0.622704 -0.0778,1.375138 z"
           id="path24" />
      </g>
    </g>
  </g>
</svg>
