<?xml version="1.0" encoding="UTF-8" standalone="no"?>
<!-- Created with Inkscape (http://www.inkscape.org/) -->

<svg
   width="63.5mm"
   height="88.899986mm"
   viewBox="0 0 63.5 88.899986"
   version="1.1"
   id="svg1"
   xmlns="http://www.w3.org/2000/svg"
   xmlns:svg="http://www.w3.org/2000/svg">
  <defs
     id="defs1" />
  <g
     id="layer1"
     transform="translate(-1355.079,-267.55414)">
    <g
       id="g51">
      <path
         id="path557"
         style="fill:#f4efe7;stroke:none;stroke-width:3.81;stroke-linecap:round;paint-order:markers fill stroke"
         d="m 1361.4207,267.55414 h 50.8166 c 3.5133,0 6.3417,2.83208 6.3417,6.34994 v 76.20011 c 0,3.51787 -2.8284,6.34994 -6.3417,6.34994 h -50.8166 c -3.5133,0 -6.3417,-2.83207 -6.3417,-6.34994 v -76.20011 c 0,-3.51786 2.8284,-6.34994 6.3417,-6.34994 z" />
      <text
         xml:space="preserve"
         style="font-size:12.973px;line-height:0.9;font-family:'DM Serif Display';-inkscape-font-specification:'DM Serif Display';text-align:start;letter-spacing:0px;word-spacing:0px;writing-mode:lr-tb;direction:ltr;text-anchor:start;fill:#000000;fill-opacity:1;stroke:#000000;stroke-width:0.470471;stroke-linecap:round;stroke-linejoin:round;stroke-miterlimit:1.1;stroke-dasharray:none;stroke-opacity:1;paint-order:stroke fill markers"
         x="1361.1613"
         y="280.01889"
         id="text557"><tspan
           id="tspan557"
           style="font-size:12.973px;fill:#000000;fill-opacity:1;stroke:#000000;stroke-width:0.470471;stroke-linecap:round;stroke-linejoin:round;stroke-dasharray:none;stroke-opacity:1"
           x="1361.1613"
           y="280.01889">K</tspan></text>
      <path
         id="path558"
         style="fill:none;stroke:#333333;stroke-width:0.240883;stroke-linecap:round;stroke-dasharray:none;stroke-opacity:1;paint-order:markers fill stroke"
         d="m 1371.584,282.3504 h 30.49 c 2.108,0 3.805,1.88935 3.805,4.23621 v 50.83505 c 0,2.34686 -1.697,4.23621 -3.805,4.23621 h -30.49 c -2.108,0 -3.805,-1.88935 -3.805,-4.23621 v -50.83505 c 0,-2.34686 1.697,-4.23621 3.805,-4.23621 z" />
      <text
         xml:space="preserve"
         style="font-size:12.973px;line-height:0.9;font-family:'DM Serif Display';-inkscape-font-specification:'DM Serif Display';text-align:start;letter-spacing:0px;word-spacing:0px;writing-mode:lr-tb;direction:ltr;text-anchor:start;fill:#000000;fill-opacity:1;stroke:#000000;stroke-width:0.470471;stroke-linecap:round;stroke-linejoin:round;stroke-miterlimit:1.1;stroke-dasharray:none;stroke-opacity:1;paint-order:stroke fill markers"
         x="-1412.4972"
         y="-343.98938"
         id="text558"
         transform="scale(-1)"><tspan
           id="tspan558"
           style="font-size:12.973px;fill:#000000;fill-opacity:1;stroke:#000000;stroke-width:0.470471;stroke-linecap:round;stroke-linejoin:round;stroke-dasharray:none;stroke-opacity:1"
           x="-1412.4972"
           y="-343.98938">K</tspan></text>
      <path
         id="path561"
         style="fill:#ffbe1a;stroke-width:3.82709;stroke-linecap:round;paint-order:markers fill stroke"
         d="m 1410.1545,271.03955 4.9248,4.92478 c 0.2658,0.2658 0.2658,0.69375 0,0.95954 l -4.9248,4.9248 c -0.2658,0.26579 -0.6937,0.2658 -0.9595,-1e-5 l -4.9248,-4.92478 c -0.2658,-0.2658 -0.2658,-0.69375 0,-0.95954 l 4.9248,-4.9248 c 0.2658,-0.26579 0.6937,-0.26579 0.9595,1e-5 z" />
      <path
         id="path562"
         style="fill:#ffbe1a;stroke-width:3.82709;stroke-linecap:round;paint-order:markers fill stroke"
         d="m 1364.4343,342.15963 4.9248,4.92478 c 0.2658,0.2658 0.2658,0.69375 0,0.95954 l -4.9248,4.9248 c -0.2658,0.26579 -0.6937,0.2658 -0.9595,-10e-6 l -4.9248,-4.92478 c -0.2658,-0.2658 -0.2658,-0.69375 0,-0.95954 l 4.9248,-4.9248 c 0.2658,-0.26579 0.6937,-0.26579 0.9595,10e-6 z" />
      <path
         style="fill:#fff3d4;fill-opacity:1;stroke:#ffbe1a;stroke-width:2.5;stroke-linecap:round;stroke-linejoin:round;stroke-miterlimit:100;stroke-dasharray:none;stroke-opacity:1;paint-order:markers fill stroke"
         d="m 1373.726,307.61192 v -11.92501 l 5.2411,5.24116 7.8618,-10.48234 7.8618,10.48234 5.2412,-5.24116 v 11.92501 z"
         id="path673" />
      <circle
         style="fill:#ffbe1a;fill-opacity:1;stroke:none;stroke-width:2.06346;stroke-linecap:round;stroke-linejoin:round;stroke-miterlimit:100;stroke-dasharray:none;stroke-opacity:1;paint-order:markers fill stroke"
         id="circle674"
         cx="1373.726"
         cy="293.6647"
         r="3.3844523" />
      <circle
         style="fill:#ffbe1a;fill-opacity:1;stroke:none;stroke-width:2.06346;stroke-linecap:round;stroke-linejoin:round;stroke-miterlimit:100;stroke-dasharray:none;stroke-opacity:1;paint-order:markers fill stroke"
         id="circle675"
         cx="1386.829"
         cy="288.33621"
         r="3.3844523" />
      <circle
         style="fill:#ffbe1a;fill-opacity:1;stroke:none;stroke-width:2.06346;stroke-linecap:round;stroke-linejoin:round;stroke-miterlimit:100;stroke-dasharray:none;stroke-opacity:1;paint-order:markers fill stroke"
         id="circle676"
         cx="1399.9318"
         cy="293.6647"
         r="3.3844523" />
      <path
         style="fill:#fff3d4;fill-opacity:1;stroke:#ffbe1a;stroke-width:2.5;stroke-linecap:round;stroke-linejoin:round;stroke-miterlimit:100;stroke-dasharray:none;stroke-opacity:1;paint-order:markers fill stroke"
         d="m 1399.9319,316.39635 v 11.92501 l -5.2412,-5.24116 -7.8617,10.48234 -7.8619,-10.48234 -5.2411,5.24116 v -11.92501 z"
         id="path676" />
      <circle
         style="fill:#ffbe1a;fill-opacity:1;stroke:none;stroke-width:2.06346;stroke-linecap:round;stroke-linejoin:round;stroke-miterlimit:100;stroke-dasharray:none;stroke-opacity:1;paint-order:markers fill stroke"
         id="circle677"
         cx="-1399.9318"
         cy="-330.34357"
         r="3.3844523"
         transform="scale(-1)" />
      <circle
         style="fill:#ffbe1a;fill-opacity:1;stroke:none;stroke-width:2.06346;stroke-linecap:round;stroke-linejoin:round;stroke-miterlimit:100;stroke-dasharray:none;stroke-opacity:1;paint-order:markers fill stroke"
         id="circle678"
         cx="-1386.829"
         cy="-335.67206"
         r="3.3844523"
         transform="scale(-1)" />
      <circle
         style="fill:#ffbe1a;fill-opacity:1;stroke:none;stroke-width:2.06346;stroke-linecap:round;stroke-linejoin:round;stroke-miterlimit:100;stroke-dasharray:none;stroke-opacity:1;paint-order:markers fill stroke"
         id="circle679"
         cx="-1373.726"
         cy="-330.34357"
         r="3.3844523"
         transform="scale(-1)" />
    </g>
  </g>
</svg>
