<?xml version="1.0" encoding="UTF-8" standalone="no"?>
<!-- Created with Inkscape (http://www.inkscape.org/) -->

<svg
   width="63.5mm"
   height="88.899986mm"
   viewBox="0 0 63.5 88.899986"
   version="1.1"
   id="svg1"
   sodipodi:docname="Card_9S.svg"
   xmlns:inkscape="http://www.inkscape.org/namespaces/inkscape"
   xmlns:sodipodi="http://sodipodi.sourceforge.net/DTD/sodipodi-0.dtd"
   xmlns="http://www.w3.org/2000/svg"
   xmlns:svg="http://www.w3.org/2000/svg">
  <sodipodi:namedview
     id="namedview16"
     pagecolor="#ffffff"
     bordercolor="#000000"
     borderopacity="0.25"
     inkscape:showpageshadow="2"
     inkscape:pageopacity="0.0"
     inkscape:pagecheckerboard="0"
     inkscape:deskcolor="#d1d1d1"
     inkscape:document-units="mm" />
  <defs
     id="defs1" />
  <g
     id="layer1"
     transform="translate(-1050.279,-140.55414)">
    <g
       id="g34">
      <path
         id="path402"
         style="fill:#f4efe7;stroke:none;stroke-width:3.81;stroke-linecap:round;paint-order:markers fill stroke"
         d="m 1056.6207,140.55414 h 50.8166 c 3.5133,0 6.3417,2.83208 6.3417,6.34994 v 76.20011 c 0,3.51787 -2.8284,6.34994 -6.3417,6.34994 h -50.8166 c -3.5133,0 -6.3417,-2.83207 -6.3417,-6.34994 v -76.20011 c 0,-3.51786 2.8284,-6.34994 6.3417,-6.34994 z" />
      <g
         aria-label="9"
         id="text402"
         style="font-size:12.973px;line-height:0.9;font-family:'DM Serif Display';-inkscape-font-specification:'DM Serif Display';letter-spacing:0px;word-spacing:0px;stroke:#000000;stroke-width:0.470471;stroke-linecap:round;stroke-linejoin:round;stroke-miterlimit:1.1;paint-order:stroke fill markers">
        <path
           d="m 1062.8475,148.07621 q 0,1.31027 -0.6098,2.38703 -0.6097,1.06379 -1.7902,1.79027 -1.1676,0.72649 -2.8671,1.02487 l -0.052,-0.23351 q 1.1546,-0.24649 1.8552,-0.71352 0.7005,-0.46703 1.0508,-1.18054 0.3632,-0.71352 0.467,-1.71244 -0.2724,0.18163 -0.6746,0.29838 -0.4021,0.10379 -0.9081,0.10379 -0.7265,0 -1.3103,-0.28541 -0.5708,-0.29838 -0.9081,-0.85622 -0.3373,-0.55784 -0.3373,-1.34919 0,-0.84324 0.4152,-1.45298 0.4151,-0.6227 1.0897,-0.96 0.6876,-0.3373 1.5049,-0.3373 1.4789,0 2.2702,0.93406 0.8044,0.92108 0.8044,2.54271 z m -4.2552,-0.89514 q 0,1.18054 0.3243,1.71244 0.3244,0.51892 1.0638,0.51892 0.5449,0 0.9471,-0.23352 0.026,-0.2854 0.039,-0.57081 0.013,-0.29838 0.013,-0.6227 0,-1.19352 -0.1167,-1.86811 -0.1168,-0.68757 -0.3762,-0.97298 -0.2595,-0.28541 -0.7006,-0.28541 -0.5967,0 -0.8951,0.54487 -0.2984,0.54487 -0.2984,1.7773 z"
           id="path18" />
      </g>
      <g
         aria-label="9"
         id="text403"
         style="font-size:55.5989px;line-height:0.9;font-family:'DM Serif Display';-inkscape-font-specification:'DM Serif Display';letter-spacing:0px;word-spacing:0px;stroke:#000000;stroke-width:2.032;stroke-linecap:round;stroke-linejoin:round;stroke-miterlimit:1.1;paint-order:stroke fill markers">
        <path
           d="m 1095.0669,181.30679 q 0,5.61549 -2.6131,10.2302 -2.6132,4.55911 -7.6727,7.67265 -5.0039,3.11354 -12.2873,4.39231 l -0.2224,-1.00078 q 4.9483,-1.05638 7.9506,-3.05794 3.0023,-2.00156 4.5035,-5.0595 1.5568,-3.05794 2.0016,-7.33905 -1.1676,0.77838 -2.8912,1.27877 -1.7235,0.44479 -3.8919,0.44479 -3.1135,0 -5.6155,-1.22317 -2.4463,-1.27878 -3.8919,-3.66953 -1.4456,-2.39075 -1.4456,-5.78228 0,-3.61393 1.7792,-6.22708 1.7792,-2.66875 4.6703,-4.11432 2.9467,-1.44557 6.4495,-1.44557 6.3382,0 9.7298,4.00312 3.4471,3.94752 3.4471,10.89738 z m -18.2364,-3.83632 q 0,5.0595 1.3899,7.33905 1.39,2.22396 4.5591,2.22396 2.3352,0 4.0588,-1.00078 0.1112,-1.22318 0.1668,-2.44635 0.056,-1.27878 0.056,-2.66875 0,-5.1151 -0.5004,-8.00624 -0.5004,-2.94674 -1.6124,-4.16992 -1.112,-1.22317 -3.0023,-1.22317 -2.5576,0 -3.8364,2.33515 -1.2787,2.33515 -1.2787,7.61705 z"
           id="path21" />
      </g>
      <path
         id="path404"
         style="fill:none;stroke:#333333;stroke-width:0.240883;stroke-linecap:round;stroke-dasharray:none;stroke-opacity:1;paint-order:markers fill stroke"
         d="m 1066.784,155.3504 h 30.49 c 2.108,0 3.805,1.88935 3.805,4.23621 v 50.83505 c 0,2.34686 -1.697,4.23621 -3.805,4.23621 h -30.49 c -2.108,0 -3.805,-1.88935 -3.805,-4.23621 v -50.83505 c 0,-2.34686 1.697,-4.23621 3.805,-4.23621 z" />
      <g
         aria-label="9"
         transform="scale(-1)"
         id="text404"
         style="font-size:12.973px;line-height:0.9;font-family:'DM Serif Display';-inkscape-font-specification:'DM Serif Display';letter-spacing:0px;word-spacing:0px;stroke:#000000;stroke-width:0.470471;stroke-linecap:round;stroke-linejoin:round;stroke-miterlimit:1.1;paint-order:stroke fill markers">
        <path
           d="m -1101.2104,-221.93211 q 0,1.31027 -0.6097,2.38703 -0.6098,1.06379 -1.7903,1.79028 -1.1676,0.72649 -2.867,1.02486 l -0.052,-0.23351 q 1.1546,-0.24649 1.8551,-0.71351 0.7006,-0.46703 1.0508,-1.18055 0.3633,-0.71351 0.4671,-1.71243 -0.2725,0.18162 -0.6746,0.29838 -0.4022,0.10378 -0.9082,0.10378 -0.7264,0 -1.3102,-0.28541 -0.5708,-0.29838 -0.9081,-0.85621 -0.3373,-0.55784 -0.3373,-1.3492 0,-0.84324 0.4151,-1.45297 0.4151,-0.62271 1.0897,-0.96 0.6876,-0.3373 1.5049,-0.3373 1.4789,0 2.2703,0.93405 0.8043,0.92109 0.8043,2.54271 z m -4.2551,-0.89513 q 0,1.18054 0.3243,1.71243 0.3243,0.51892 1.0638,0.51892 0.5448,0 0.947,-0.23351 0.026,-0.28541 0.039,-0.57081 0.013,-0.29838 0.013,-0.62271 0,-1.19351 -0.1168,-1.86811 -0.1167,-0.68757 -0.3762,-0.97298 -0.2594,-0.2854 -0.7005,-0.2854 -0.5968,0 -0.8952,0.54486 -0.2983,0.54487 -0.2983,1.77731 z"
           id="path24" />
      </g>
      <path
         id="path445"
         style="fill:#7a5de5;fill-opacity:1;stroke-width:3.21417;stroke-linecap:round;paint-order:markers fill stroke"
         d="m 1104.8891,154.53856 c 0,0 -3.435,-2.40377 -4.7328,-4.99883 -1.2973,-2.59505 -1.2973,-5.19009 1.7176,-5.19009 3.0152,0 3.0152,2.59504 3.0152,2.59504 0,0 0,-2.59504 3.0152,-2.59504 3.0149,0 3.0149,2.59504 1.7175,5.19009 -1.2977,2.59506 -4.7327,4.99883 -4.7327,4.99883 z" />
      <path
         id="path449"
         style="fill:#7a5de5;fill-opacity:1;stroke-width:3.21417;stroke-linecap:round;paint-order:markers fill stroke"
         d="m 1059.1689,215.46973 c 0,0 3.435,2.40377 4.7328,4.99883 1.2973,2.59505 1.2973,5.19009 -1.7176,5.19009 -3.0152,0 -3.0152,-2.59504 -3.0152,-2.59504 0,0 0,2.59504 -3.0152,2.59504 -3.0149,0 -3.0149,-2.59504 -1.7175,-5.19009 1.2977,-2.59506 4.7327,-4.99883 4.7327,-4.99883 z" />
    </g>
  </g>
</svg>
