<?xml version="1.0" encoding="UTF-8" standalone="no"?>
<!-- Created with Inkscape (http://www.inkscape.org/) -->

<svg
   width="63.5mm"
   height="88.899986mm"
   viewBox="0 0 63.5 88.899986"
   version="1.1"
   id="svg1"
   sodipodi:docname="Card_KD.svg"
   xmlns:inkscape="http://www.inkscape.org/namespaces/inkscape"
   xmlns:sodipodi="http://sodipodi.sourceforge.net/DTD/sodipodi-0.dtd"
   xmlns="http://www.w3.org/2000/svg"
   xmlns:svg="http://www.w3.org/2000/svg">
  <sodipodi:namedview
     id="namedview22"
     pagecolor="#ffffff"
     bordercolor="#000000"
     borderopacity="0.25"
     inkscape:showpageshadow="2"
     inkscape:pageopacity="0.0"
     inkscape:pagecheckerboard="0"
     inkscape:deskcolor="#d1d1d1"
     inkscape:document-units="mm" />
  <defs
     id="defs1" />
  <g
     id="layer1"
     transform="translate(-1355.079,-267.55414)">
    <g
       id="g51">
      <path
         id="path557"
         style="fill:#f4efe7;stroke:none;stroke-width:3.81;stroke-linecap:round;paint-order:markers fill stroke"
         d="m 1361.4207,267.55414 h 50.8166 c 3.5133,0 6.3417,2.83208 6.3417,6.34994 v 76.20011 c 0,3.51787 -2.8284,6.34994 -6.3417,6.34994 h -50.8166 c -3.5133,0 -6.3417,-2.83207 -6.3417,-6.34994 v -76.20011 c 0,-3.51786 2.8284,-6.34994 6.3417,-6.34994 z" />
      <g
         aria-label="K"
         id="text557"
         style="font-size:12.973px;line-height:0.9;font-family:'DM Serif Display';-inkscape-font-specification:'DM Serif Display';letter-spacing:0px;word-spacing:0px;stroke:#000000;stroke-width:0.470471;stroke-linecap:round;stroke-linejoin:round;stroke-miterlimit:1.1;paint-order:stroke fill markers">
        <path
           d="m 1361.4467,280.01889 v -0.12973 l 0.2724,-0.10378 q 0.2595,-0.0908 0.3373,-0.24649 0.078,-0.15568 0.078,-0.40216 v -6.78488 q 0,-0.25946 -0.078,-0.41514 -0.078,-0.15567 -0.3373,-0.24649 l -0.2724,-0.10378 v -0.12973 h 3.2302 v 0.12973 l -0.2854,0.11676 q -0.2205,0.0778 -0.2983,0.23351 -0.078,0.15568 -0.078,0.42811 v 6.78488 q 0,0.25946 0.078,0.40216 0.091,0.14271 0.3373,0.23352 l 0.2464,0.10378 v 0.12973 z m 4.787,0 v -0.12973 l 0.1686,-0.0519 q 0.2595,-0.0778 0.2725,-0.25946 0.013,-0.18162 -0.1557,-0.41514 l -2.4908,-3.54163 3.2822,-3.34703 q 0.1816,-0.18162 0.1946,-0.35027 0.026,-0.16865 -0.2465,-0.25946 l -0.2206,-0.0778 v -0.12973 h 1.8941 v 0.12973 l -0.3373,0.10378 q -0.2854,0.0908 -0.4541,0.22055 -0.1686,0.12973 -0.3892,0.35027 l -2.3221,2.37406 3.0486,4.44973 q 0.1946,0.28541 0.3633,0.46703 0.1816,0.18162 0.5059,0.28541 l 0.1816,0.0519 v 0.12973 z"
           id="path24" />
      </g>
      <path
         id="path558"
         style="fill:none;stroke:#333333;stroke-width:0.240883;stroke-linecap:round;stroke-dasharray:none;stroke-opacity:1;paint-order:markers fill stroke"
         d="m 1371.584,282.3504 h 30.49 c 2.108,0 3.805,1.88935 3.805,4.23621 v 50.83505 c 0,2.34686 -1.697,4.23621 -3.805,4.23621 h -30.49 c -2.108,0 -3.805,-1.88935 -3.805,-4.23621 v -50.83505 c 0,-2.34686 1.697,-4.23621 3.805,-4.23621 z" />
      <g
         aria-label="K"
         transform="scale(-1)"
         id="text558"
         style="font-size:12.973px;line-height:0.9;font-family:'DM Serif Display';-inkscape-font-specification:'DM Serif Display';letter-spacing:0px;word-spacing:0px;stroke:#000000;stroke-width:0.470471;stroke-linecap:round;stroke-linejoin:round;stroke-miterlimit:1.1;paint-order:stroke fill markers">
        <path
           d="m -1412.2118,-343.98938 v -0.12973 l 0.2724,-0.10378 q 0.2595,-0.0908 0.3373,-0.24649 0.078,-0.15568 0.078,-0.40216 v -6.78488 q 0,-0.25946 -0.078,-0.41514 -0.078,-0.15567 -0.3373,-0.24649 l -0.2724,-0.10378 v -0.12973 h 3.2303 v 0.12973 l -0.2854,0.11676 q -0.2206,0.0778 -0.2984,0.23351 -0.078,0.15568 -0.078,0.42811 v 6.78488 q 0,0.25946 0.078,0.40216 0.091,0.14271 0.3373,0.23352 l 0.2465,0.10378 v 0.12973 z m 4.7871,0 v -0.12973 l 0.1686,-0.0519 q 0.2595,-0.0778 0.2724,-0.25946 0.013,-0.18162 -0.1556,-0.41514 l -2.4909,-3.54163 3.2822,-3.34703 q 0.1816,-0.18162 0.1946,-0.35027 0.026,-0.16865 -0.2465,-0.25946 l -0.2205,-0.0778 v -0.12973 h 1.894 v 0.12973 l -0.3373,0.10378 q -0.2854,0.0908 -0.454,0.22055 -0.1687,0.12973 -0.3892,0.35027 l -2.3222,2.37406 3.0487,4.44973 q 0.1946,0.28541 0.3632,0.46703 0.1816,0.18162 0.506,0.28541 l 0.1816,0.0519 v 0.12973 z"
           id="path27" />
      </g>
      <path
         id="path561"
         style="fill:#ffbe1a;stroke-width:3.82709;stroke-linecap:round;paint-order:markers fill stroke"
         d="m 1410.1545,271.03955 4.9248,4.92478 c 0.2658,0.2658 0.2658,0.69375 0,0.95954 l -4.9248,4.9248 c -0.2658,0.26579 -0.6937,0.2658 -0.9595,-1e-5 l -4.9248,-4.92478 c -0.2658,-0.2658 -0.2658,-0.69375 0,-0.95954 l 4.9248,-4.9248 c 0.2658,-0.26579 0.6937,-0.26579 0.9595,1e-5 z" />
      <path
         id="path562"
         style="fill:#ffbe1a;stroke-width:3.82709;stroke-linecap:round;paint-order:markers fill stroke"
         d="m 1364.4343,342.15963 4.9248,4.92478 c 0.2658,0.2658 0.2658,0.69375 0,0.95954 l -4.9248,4.9248 c -0.2658,0.26579 -0.6937,0.2658 -0.9595,-10e-6 l -4.9248,-4.92478 c -0.2658,-0.2658 -0.2658,-0.69375 0,-0.95954 l 4.9248,-4.9248 c 0.2658,-0.26579 0.6937,-0.26579 0.9595,10e-6 z" />
      <path
         style="fill:#fff3d4;fill-opacity:1;stroke:#ffbe1a;stroke-width:2.5;stroke-linecap:round;stroke-linejoin:round;stroke-miterlimit:100;stroke-dasharray:none;stroke-opacity:1;paint-order:markers fill stroke"
         d="m 1373.726,307.61192 v -11.92501 l 5.2411,5.24116 7.8618,-10.48234 7.8618,10.48234 5.2412,-5.24116 v 11.92501 z"
         id="path673" />
      <path
         id="circle674"
         style="fill:#ffbe1a;stroke-width:2.06346;stroke-linecap:round;stroke-linejoin:round;stroke-miterlimit:100;paint-order:markers fill stroke"
         d="m 1377.1104,293.6647 a 3.3844523,3.3844523 0 0 1 -3.3844,3.38446 3.3844523,3.3844523 0 0 1 -3.3845,-3.38446 3.3844523,3.3844523 0 0 1 3.3845,-3.38445 3.3844523,3.3844523 0 0 1 3.3844,3.38445 z" />
      <path
         id="circle675"
         style="fill:#ffbe1a;stroke-width:2.06346;stroke-linecap:round;stroke-linejoin:round;stroke-miterlimit:100;paint-order:markers fill stroke"
         d="m 1390.2134,288.33621 a 3.3844523,3.3844523 0 0 1 -3.3844,3.38445 3.3844523,3.3844523 0 0 1 -3.3845,-3.38445 3.3844523,3.3844523 0 0 1 3.3845,-3.38445 3.3844523,3.3844523 0 0 1 3.3844,3.38445 z" />
      <path
         id="circle676"
         style="fill:#ffbe1a;stroke-width:2.06346;stroke-linecap:round;stroke-linejoin:round;stroke-miterlimit:100;paint-order:markers fill stroke"
         d="m 1403.3162,293.6647 a 3.3844523,3.3844523 0 0 1 -3.3844,3.38446 3.3844523,3.3844523 0 0 1 -3.3845,-3.38446 3.3844523,3.3844523 0 0 1 3.3845,-3.38445 3.3844523,3.3844523 0 0 1 3.3844,3.38445 z" />
      <path
         style="fill:#fff3d4;fill-opacity:1;stroke:#ffbe1a;stroke-width:2.5;stroke-linecap:round;stroke-linejoin:round;stroke-miterlimit:100;stroke-dasharray:none;stroke-opacity:1;paint-order:markers fill stroke"
         d="m 1399.9319,316.39635 v 11.92501 l -5.2412,-5.24116 -7.8617,10.48234 -7.8619,-10.48234 -5.2411,5.24116 v -11.92501 z"
         id="path676" />
      <path
         id="circle677"
         style="fill:#ffbe1a;stroke-width:2.06346;stroke-linecap:round;stroke-linejoin:round;stroke-miterlimit:100;paint-order:markers fill stroke"
         transform="scale(-1)"
         d="m -1396.5473,-330.34357 a 3.3844523,3.3844523 0 0 1 -3.3845,3.38446 3.3844523,3.3844523 0 0 1 -3.3844,-3.38446 3.3844523,3.3844523 0 0 1 3.3844,-3.38445 3.3844523,3.3844523 0 0 1 3.3845,3.38445 z" />
      <path
         id="circle678"
         style="fill:#ffbe1a;stroke-width:2.06346;stroke-linecap:round;stroke-linejoin:round;stroke-miterlimit:100;paint-order:markers fill stroke"
         transform="scale(-1)"
         d="m -1383.4445,-335.67206 a 3.3844523,3.3844523 0 0 1 -3.3845,3.38445 3.3844523,3.3844523 0 0 1 -3.3844,-3.38445 3.3844523,3.3844523 0 0 1 3.3844,-3.38445 3.3844523,3.3844523 0 0 1 3.3845,3.38445 z" />
      <path
         id="circle679"
         style="fill:#ffbe1a;stroke-width:2.06346;stroke-linecap:round;stroke-linejoin:round;stroke-miterlimit:100;paint-order:markers fill stroke"
         transform="scale(-1)"
         d="m -1370.3415,-330.34357 a 3.3844523,3.3844523 0 0 1 -3.3845,3.38446 3.3844523,3.3844523 0 0 1 -3.3844,-3.38446 3.3844523,3.3844523 0 0 1 3.3844,-3.38445 3.3844523,3.3844523 0 0 1 3.3845,3.38445 z" />
    </g>
  </g>
</svg>
