<?xml version="1.0" encoding="UTF-8" standalone="no"?>
<!-- Created with Inkscape (http://www.inkscape.org/) -->

<svg
   width="63.5mm"
   height="88.899986mm"
   viewBox="0 0 63.5 88.899986"
   version="1.1"
   id="svg1"
   sodipodi:docname="Card_AD.svg"
   xmlns:inkscape="http://www.inkscape.org/namespaces/inkscape"
   xmlns:sodipodi="http://sodipodi.sourceforge.net/DTD/sodipodi-0.dtd"
   xmlns="http://www.w3.org/2000/svg"
   xmlns:svg="http://www.w3.org/2000/svg">
  <sodipodi:namedview
     id="namedview15"
     pagecolor="#ffffff"
     bordercolor="#000000"
     borderopacity="0.25"
     inkscape:showpageshadow="2"
     inkscape:pageopacity="0.0"
     inkscape:pagecheckerboard="0"
     inkscape:deskcolor="#d1d1d1"
     inkscape:document-units="mm" />
  <defs
     id="defs1" />
  <g
     id="layer1"
     transform="translate(-1431.279,-267.55414)">
    <g
       id="g52">
      <path
         id="path573"
         style="fill:#f4efe7;stroke:none;stroke-width:3.81;stroke-linecap:round;paint-order:markers fill stroke"
         d="m 1437.6207,267.55414 h 50.8166 c 3.5133,0 6.3417,2.83208 6.3417,6.34994 v 76.20011 c 0,3.51787 -2.8284,6.34994 -6.3417,6.34994 h -50.8166 c -3.5133,0 -6.3417,-2.83207 -6.3417,-6.34994 v -76.20011 c 0,-3.51786 2.8284,-6.34994 6.3417,-6.34994 z" />
      <g
         aria-label="A"
         id="text573"
         style="font-size:12.973px;line-height:0.9;font-family:'DM Serif Display';-inkscape-font-specification:'DM Serif Display';letter-spacing:0px;word-spacing:0px;stroke:#000000;stroke-width:0.470471;stroke-linecap:round;stroke-linejoin:round;stroke-miterlimit:1.1;paint-order:stroke fill markers">
        <path
           d="m 1437.465,280.01889 v -0.12973 l 0.3243,-0.11676 q 0.2595,-0.10378 0.4022,-0.24648 0.1427,-0.15568 0.2335,-0.42811 l 2.6724,-7.66705 h 1.1027 l 2.6336,7.71894 q 0.1037,0.28541 0.2335,0.44108 0.1297,0.1427 0.4021,0.24649 l 0.1557,0.0519 v 0.12973 h -3.2951 v -0.12973 l 0.1946,-0.0649 q 0.2724,-0.10379 0.3243,-0.28541 0.065,-0.1946 -0.013,-0.45406 l -0.6097,-1.86811 h -2.88 l -0.6227,1.8292 q -0.091,0.2854 -0.065,0.45405 0.039,0.16865 0.3114,0.27243 l 0.2854,0.11676 v 0.12973 z m 1.9719,-3.06163 h 2.7113 l -1.3102,-4.0346 z"
           id="path17" />
      </g>
      <path
         id="path574"
         style="fill:none;stroke:#333333;stroke-width:0.240883;stroke-linecap:round;stroke-dasharray:none;stroke-opacity:1;paint-order:markers fill stroke"
         d="m 1447.784,282.3504 h 30.49 c 2.108,0 3.805,1.88935 3.805,4.23621 v 50.83505 c 0,2.34686 -1.697,4.23621 -3.805,4.23621 h -30.49 c -2.108,0 -3.805,-1.88935 -3.805,-4.23621 v -50.83505 c 0,-2.34686 1.697,-4.23621 3.805,-4.23621 z" />
      <g
         aria-label="A"
         transform="scale(-1)"
         id="text574"
         style="font-size:12.973px;line-height:0.9;font-family:'DM Serif Display';-inkscape-font-specification:'DM Serif Display';letter-spacing:0px;word-spacing:0px;stroke:#000000;stroke-width:0.470471;stroke-linecap:round;stroke-linejoin:round;stroke-miterlimit:1.1;paint-order:stroke fill markers">
        <path
           d="m -1488.5934,-343.98938 v -0.12973 l 0.3244,-0.11676 q 0.2594,-0.10378 0.4021,-0.24648 0.1427,-0.15568 0.2335,-0.42811 l 2.6725,-7.66705 h 1.1027 l 2.6335,7.71894 q 0.1038,0.28541 0.2335,0.44108 0.1297,0.1427 0.4022,0.24649 l 0.1557,0.0519 v 0.12973 h -3.2952 v -0.12973 l 0.1946,-0.0649 q 0.2724,-0.10379 0.3243,-0.28541 0.065,-0.1946 -0.013,-0.45406 l -0.6098,-1.86811 h -2.88 l -0.6227,1.8292 q -0.091,0.2854 -0.065,0.45405 0.039,0.16865 0.3113,0.27243 l 0.2854,0.11676 v 0.12973 z m 1.9719,-3.06163 h 2.7114 l -1.3103,-4.0346 z"
           id="path20" />
      </g>
      <path
         id="path577"
         style="fill:#ffbe1a;stroke-width:3.82709;stroke-linecap:round;paint-order:markers fill stroke"
         d="m 1486.3545,271.03955 4.9248,4.92478 c 0.2658,0.2658 0.2658,0.69375 0,0.95954 l -4.9248,4.9248 c -0.2658,0.26579 -0.6937,0.2658 -0.9595,-1e-5 l -4.9248,-4.92478 c -0.2658,-0.2658 -0.2658,-0.69375 0,-0.95954 l 4.9248,-4.9248 c 0.2658,-0.26579 0.6937,-0.26579 0.9595,1e-5 z" />
      <path
         id="path578"
         style="fill:#ffbe1a;stroke-width:3.82709;stroke-linecap:round;paint-order:markers fill stroke"
         d="m 1440.6343,342.15963 4.9248,4.92478 c 0.2658,0.2658 0.2658,0.69375 0,0.95954 l -4.9248,4.9248 c -0.2658,0.26579 -0.6937,0.2658 -0.9595,-10e-6 l -4.9248,-4.92478 c -0.2658,-0.2658 -0.2658,-0.69375 0,-0.95954 l 4.9248,-4.9248 c 0.2658,-0.26579 0.6937,-0.26579 0.9595,10e-6 z" />
      <path
         id="path655"
         style="fill:#ffbe1a;stroke-width:3.82709;stroke-linecap:round;paint-order:markers fill stroke"
         d="m 1464.3586,297.0262 13.6484,13.64827 c 0.7365,0.73662 0.7365,1.92262 0,2.65922 l -13.6484,13.64833 c -0.7366,0.7366 -1.9225,0.73662 -2.6591,-3e-5 l -13.6483,-13.64828 c -0.7366,-0.73662 -0.7366,-1.92262 0,-2.65921 l 13.6483,-13.64833 c 0.7366,-0.7366 1.9225,-0.7366 2.6591,3e-5 z" />
    </g>
  </g>
</svg>
