<?xml version="1.0" encoding="UTF-8" standalone="no"?>
<!-- Created with Inkscape (http://www.inkscape.org/) -->

<svg
   width="63.5mm"
   height="88.899986mm"
   viewBox="0 0 63.5 88.899986"
   version="1.1"
   id="svg1"
   sodipodi:docname="Card_4S.svg"
   xmlns:inkscape="http://www.inkscape.org/namespaces/inkscape"
   xmlns:sodipodi="http://sodipodi.sourceforge.net/DTD/sodipodi-0.dtd"
   xmlns="http://www.w3.org/2000/svg"
   xmlns:svg="http://www.w3.org/2000/svg">
  <sodipodi:namedview
     id="namedview16"
     pagecolor="#ffffff"
     bordercolor="#000000"
     borderopacity="0.25"
     inkscape:showpageshadow="2"
     inkscape:pageopacity="0.0"
     inkscape:pagecheckerboard="0"
     inkscape:deskcolor="#d1d1d1"
     inkscape:document-units="mm" />
  <defs
     id="defs1" />
  <g
     id="layer1"
     transform="translate(-669.279,-140.55415)">
    <g
       id="g29">
      <path
         id="path387"
         style="fill:#f4efe7;stroke:none;stroke-width:3.81;stroke-linecap:round;paint-order:markers fill stroke"
         d="m 675.6207,140.55415 h 50.8166 c 3.5133,0 6.3417,2.83208 6.3417,6.34994 v 76.20011 c 0,3.51787 -2.8284,6.34994 -6.3417,6.34994 h -50.8166 c -3.5133,0 -6.3417,-2.83207 -6.3417,-6.34994 v -76.20011 c 0,-3.51786 2.8284,-6.34994 6.3417,-6.34994 z" />
      <g
         aria-label="4"
         id="text387"
         style="font-size:12.973px;line-height:0.9;font-family:'DM Serif Display';-inkscape-font-specification:'DM Serif Display';letter-spacing:0px;word-spacing:0px;stroke:#000000;stroke-width:0.470471;stroke-linecap:round;stroke-linejoin:round;stroke-miterlimit:1.1;paint-order:stroke fill markers">
        <path
           d="m 679.08421,153.01892 v -2.10163 h -3.4119 v -0.73946 l 3.80109,-5.48757 h 1.27136 v 5.26703 h 1.23243 v 0.96 h -1.23243 v 2.10163 z m -2.84108,-3.06163 h 2.84108 v -4.08649 z"
           id="path18" />
      </g>
      <g
         aria-label="4"
         id="text388"
         style="font-size:55.5989px;line-height:0.9;font-family:'DM Serif Display';-inkscape-font-specification:'DM Serif Display';letter-spacing:0px;word-spacing:0px;stroke:#000000;stroke-width:2.032;stroke-linecap:round;stroke-linejoin:round;stroke-miterlimit:1.1;paint-order:stroke fill markers">
        <path
           d="m 702.14084,202.85136 v -9.00702 h -14.62251 v -3.16913 l 16.29048,-23.51834 h 5.44869 v 22.57315 h 5.2819 v 4.11432 h -5.2819 v 9.00702 z m -12.17615,-13.12134 h 12.17615 v -17.51365 z"
           id="path21" />
      </g>
      <path
         id="path389"
         style="fill:none;stroke:#333333;stroke-width:0.240883;stroke-linecap:round;stroke-dasharray:none;stroke-opacity:1;paint-order:markers fill stroke"
         d="m 685.784,155.35041 h 30.49 c 2.108,0 3.805,1.88935 3.805,4.23621 v 50.83505 c 0,2.34686 -1.697,4.23621 -3.805,4.23621 h -30.49 c -2.108,0 -3.805,-1.88935 -3.805,-4.23621 v -50.83505 c 0,-2.34686 1.697,-4.23621 3.805,-4.23621 z" />
      <g
         aria-label="4"
         transform="scale(-1)"
         id="text389"
         style="font-size:12.973px;line-height:0.9;font-family:'DM Serif Display';-inkscape-font-specification:'DM Serif Display';letter-spacing:0px;word-spacing:0px;stroke:#000000;stroke-width:0.470471;stroke-linecap:round;stroke-linejoin:round;stroke-miterlimit:1.1;paint-order:stroke fill markers">
        <path
           d="m -722.97365,-216.9894 v -2.10162 h -3.4119 v -0.73946 l 3.80109,-5.48758 h 1.27136 v 5.26704 h 1.23243 v 0.96 h -1.23243 v 2.10162 z m -2.84109,-3.06162 h 2.84109 v -4.0865 z"
           id="path24" />
      </g>
      <path
         id="path440"
         style="fill:#7a5de5;fill-opacity:1;stroke-width:3.21417;stroke-linecap:round;paint-order:markers fill stroke"
         d="m 723.8891,154.53857 c 0,0 -3.435,-2.40377 -4.7328,-4.99883 -1.2973,-2.59505 -1.2973,-5.19009 1.7176,-5.19009 3.0152,0 3.0152,2.59504 3.0152,2.59504 0,0 0,-2.59504 3.0152,-2.59504 3.0149,0 3.0149,2.59504 1.7175,5.19009 -1.2977,2.59506 -4.7327,4.99883 -4.7327,4.99883 z" />
      <path
         id="path454"
         style="fill:#7a5de5;fill-opacity:1;stroke-width:3.21417;stroke-linecap:round;paint-order:markers fill stroke"
         d="m 678.1689,215.46973 c 0,0 3.435,2.40377 4.7328,4.99883 1.2973,2.59505 1.2973,5.19009 -1.7176,5.19009 -3.0152,0 -3.0152,-2.59504 -3.0152,-2.59504 0,0 0,2.59504 -3.0152,2.59504 -3.0149,0 -3.0149,-2.59504 -1.7175,-5.19009 1.2977,-2.59506 4.7327,-4.99883 4.7327,-4.99883 z" />
    </g>
  </g>
</svg>
