<?xml version="1.0" encoding="UTF-8" standalone="no"?>
<!-- Created with Inkscape (http://www.inkscape.org/) -->

<svg
   width="63.5mm"
   height="88.899986mm"
   viewBox="0 0 63.5 88.899986"
   version="1.1"
   id="svg1"
   sodipodi:docname="Card_6H.svg"
   xmlns:inkscape="http://www.inkscape.org/namespaces/inkscape"
   xmlns:sodipodi="http://sodipodi.sourceforge.net/DTD/sodipodi-0.dtd"
   xmlns="http://www.w3.org/2000/svg"
   xmlns:svg="http://www.w3.org/2000/svg">
  <sodipodi:namedview
     id="namedview16"
     pagecolor="#ffffff"
     bordercolor="#000000"
     borderopacity="0.25"
     inkscape:showpageshadow="2"
     inkscape:pageopacity="0.0"
     inkscape:pagecheckerboard="0"
     inkscape:deskcolor="#d1d1d1"
     inkscape:document-units="mm" />
  <defs
     id="defs1" />
  <g
     id="layer1"
     transform="translate(-821.679,-13.554174)">
    <g
       id="g18">
      <path
         id="path233"
         style="fill:#f4efe7;stroke:none;stroke-width:3.81;stroke-linecap:round;paint-order:markers fill stroke"
         d="m 828.0207,13.554174 h 50.8166 c 3.5133,0 6.3417,2.83208 6.3417,6.34994 v 76.20011 c 0,3.51787 -2.8284,6.349936 -6.3417,6.349936 h -50.8166 c -3.5133,0 -6.3417,-2.832066 -6.3417,-6.349936 v -76.20011 c 0,-3.51786 2.8284,-6.34994 6.3417,-6.34994 z" />
      <g
         aria-label="6"
         id="text234"
         style="font-size:12.973px;line-height:0.9;font-family:'DM Serif Display';-inkscape-font-specification:'DM Serif Display';letter-spacing:0px;word-spacing:0px;stroke:#000000;stroke-width:0.470471;stroke-linecap:round;stroke-linejoin:round;stroke-miterlimit:1.1;paint-order:stroke fill markers">
        <path
           d="m 831.26357,26.213508 q -1.38811,0 -2.24432,-0.921083 -0.84325,-0.921083 -0.84325,-2.5946 0,-0.998921 0.38919,-1.868112 0.38919,-0.869191 1.10271,-1.55676 0.72648,-0.687568 1.7254,-1.115677 1.0119,-0.441082 2.24433,-0.557839 l 0.0389,0.194595 q -1.5827,0.324325 -2.41298,1.193516 -0.81729,0.86919 -1.07675,2.361085 0.75243,-0.441082 1.68649,-0.441082 0.79135,0 1.31027,0.324325 0.51892,0.324325 0.77838,0.882164 0.27243,0.544866 0.27243,1.232435 0,0.921083 -0.44108,1.569733 -0.42811,0.635677 -1.11568,0.972975 -0.67459,0.324325 -1.41406,0.324325 z m -1.19351,-3.24325 q 0,1.608652 0.27243,2.296221 0.28541,0.687569 0.88217,0.687569 0.59675,0 0.86919,-0.557839 0.2854,-0.570812 0.2854,-1.894058 0,-1.219462 -0.2854,-1.699463 -0.28541,-0.480001 -0.93406,-0.480001 -0.54487,0 -1.01189,0.272433 -0.0778,0.622704 -0.0778,1.375138 z"
           id="path18" />
      </g>
      <path
         id="path234"
         style="fill:none;fill-opacity:0;stroke:#333333;stroke-width:0.240883;stroke-linecap:round;stroke-dasharray:none;stroke-opacity:1;paint-order:markers fill stroke"
         d="m 838.184,28.350434 h 30.49 c 2.108,0 3.805,1.88935 3.805,4.23621 v 50.83505 c 0,2.34686 -1.697,4.23621 -3.805,4.23621 h -30.49 c -2.108,0 -3.805,-1.88935 -3.805,-4.23621 v -50.83505 c 0,-2.34686 1.697,-4.23621 3.805,-4.23621 z" />
      <g
         aria-label="6"
         id="text235"
         style="font-size:55.5989px;line-height:0.9;font-family:'DM Serif Display';-inkscape-font-specification:'DM Serif Display';letter-spacing:0px;word-spacing:0px;stroke:#000000;stroke-width:2.032;stroke-linecap:round;stroke-linejoin:round;stroke-miterlimit:1.1;paint-order:stroke fill markers">
        <path
           d="m 853.67906,76.462981 q -5.94908,0 -9.61861,-3.947522 -3.61393,-3.947521 -3.61393,-11.11978 0,-4.281115 1.66797,-8.006241 1.66797,-3.725126 4.72591,-6.671868 3.11354,-2.946742 7.39465,-4.781506 4.33671,-1.890362 9.61861,-2.390752 l 0.1668,0.833983 q -6.78307,1.389973 -10.3414,5.115099 -3.50273,3.725126 -4.61471,10.119 3.22474,-1.890363 7.22786,-1.890363 3.39153,0 5.61549,1.389973 2.22395,1.389972 3.33593,3.780725 1.16758,2.335154 1.16758,5.281895 0,3.947522 -1.89036,6.727467 -1.83477,2.724346 -4.78151,4.169918 -2.89114,1.389972 -6.06028,1.389972 z m -5.1151,-13.899725 q 0,6.894264 1.16758,9.841006 1.22318,2.946741 3.78072,2.946741 2.55755,0 3.72513,-2.390752 1.22318,-2.446352 1.22318,-8.11744 0,-5.226296 -1.22318,-7.283456 -1.22317,-2.057159 -4.00312,-2.057159 -2.33515,0 -4.33671,1.167577 -0.3336,2.668747 -0.3336,5.893483 z"
           id="path21" />
      </g>
      <g
         aria-label="6"
         transform="scale(-1)"
         id="text236"
         style="font-size:12.973px;line-height:0.9;font-family:'DM Serif Display';-inkscape-font-specification:'DM Serif Display';letter-spacing:0px;word-spacing:0px;stroke:#000000;stroke-width:0.470471;stroke-linecap:round;stroke-linejoin:round;stroke-miterlimit:1.1;paint-order:stroke fill markers">
        <path
           d="m -875.59409,-89.794815 q -1.38811,0 -2.24433,-0.921083 -0.84325,-0.921083 -0.84325,-2.5946 0,-0.998921 0.38919,-1.868112 0.38919,-0.869191 1.10271,-1.55676 0.72649,-0.687569 1.72541,-1.115678 1.01189,-0.441082 2.24433,-0.557839 l 0.0389,0.194595 q -1.58271,0.324325 -2.41298,1.193516 -0.8173,0.869191 -1.07676,2.361086 0.75243,-0.441082 1.68649,-0.441082 0.79135,0 1.31027,0.324325 0.51892,0.324325 0.77838,0.882164 0.27244,0.544866 0.27244,1.232435 0,0.921083 -0.44109,1.569733 -0.42811,0.635677 -1.11567,0.972975 -0.6746,0.324325 -1.41406,0.324325 z m -1.19352,-3.24325 q 0,1.608652 0.27244,2.296221 0.2854,0.687569 0.88216,0.687569 0.59676,0 0.86919,-0.557839 0.28541,-0.570812 0.28541,-1.894058 0,-1.219462 -0.28541,-1.699463 -0.28541,-0.480001 -0.93406,-0.480001 -0.54486,0 -1.01189,0.272433 -0.0778,0.622704 -0.0778,1.375138 z"
           id="path24" />
      </g>
      <path
         id="path316"
         style="fill:#ffbe1a;stroke-width:2.71543;stroke-linecap:round;paint-order:markers fill stroke"
         d="m 835.6489,93.564204 a 5.0944629,5.0944629 0 0 1 -5.0944,5.09447 5.0944629,5.0944629 0 0 1 -5.0945,-5.09447 5.0944629,5.0944629 0 0 1 5.0945,-5.09446 5.0944629,5.0944629 0 0 1 5.0944,5.09446 z" />
      <path
         id="path331"
         style="fill:#ffbe1a;stroke-width:2.71543;stroke-linecap:round;paint-order:markers fill stroke"
         d="m 881.3691,22.444124 a 5.0944629,5.0944629 0 0 1 -5.0944,5.09447 5.0944629,5.0944629 0 0 1 -5.0945,-5.09447 5.0944629,5.0944629 0 0 1 5.0945,-5.09446 5.0944629,5.0944629 0 0 1 5.0944,5.09446 z" />
    </g>
  </g>
</svg>
