<?xml version="1.0" encoding="UTF-8" standalone="no"?>
<!-- Created with Inkscape (http://www.inkscape.org/) -->

<svg
   width="63.5mm"
   height="88.899986mm"
   viewBox="0 0 63.5 88.899986"
   version="1.1"
   id="svg1"
   sodipodi:docname="Card_8H.svg"
   xmlns:inkscape="http://www.inkscape.org/namespaces/inkscape"
   xmlns:sodipodi="http://sodipodi.sourceforge.net/DTD/sodipodi-0.dtd"
   xmlns="http://www.w3.org/2000/svg"
   xmlns:svg="http://www.w3.org/2000/svg">
  <sodipodi:namedview
     id="namedview16"
     pagecolor="#ffffff"
     bordercolor="#000000"
     borderopacity="0.25"
     inkscape:showpageshadow="2"
     inkscape:pageopacity="0.0"
     inkscape:pagecheckerboard="0"
     inkscape:deskcolor="#d1d1d1"
     inkscape:document-units="mm" />
  <defs
     id="defs1" />
  <g
     id="layer1"
     transform="translate(-974.079,-13.554174)">
    <g
       id="g20">
      <path
         id="path239"
         style="fill:#f4efe7;stroke:none;stroke-width:3.81;stroke-linecap:round;paint-order:markers fill stroke"
         d="m 980.4207,13.554174 h 50.8166 c 3.5133,0 6.3417,2.83208 6.3417,6.34994 v 76.20011 c 0,3.51787 -2.8284,6.349936 -6.3417,6.349936 h -50.8166 c -3.5133,0 -6.3417,-2.832066 -6.3417,-6.349936 v -76.20011 c 0,-3.51786 2.8284,-6.34994 6.3417,-6.34994 z" />
      <g
         aria-label="8"
         id="text240"
         style="font-size:12.973px;line-height:0.9;font-family:'DM Serif Display';-inkscape-font-specification:'DM Serif Display';letter-spacing:0px;word-spacing:0px;stroke:#000000;stroke-width:0.470471;stroke-linecap:round;stroke-linejoin:round;stroke-miterlimit:1.1;paint-order:stroke fill markers">
        <path
           d="m 980.52425,24.215666 q 0,-0.661623 0.5319,-1.16757 0.53189,-0.505947 1.31027,-0.817299 -1.64757,-0.856218 -1.64757,-2.33514 0,-0.713515 0.36324,-1.219461 0.36325,-0.51892 0.98595,-0.791353 0.63568,-0.285406 1.41406,-0.285406 0.79135,0 1.32324,0.25946 0.5319,0.246487 0.79136,0.674596 0.27243,0.415136 0.27243,0.921082 0,0.38919 -0.20757,0.752434 -0.20757,0.363244 -0.55784,0.661623 -0.33729,0.298379 -0.73946,0.492974 0.97298,0.480001 1.45298,1.089732 0.49297,0.596758 0.49297,1.440003 0,1.050813 -0.80432,1.68649 -0.80433,0.635677 -2.15352,0.635677 -1.37514,0 -2.10163,-0.531893 -0.72649,-0.544866 -0.72649,-1.465949 z m 1.71244,-5.05947 q 0,0.38919 0.1427,0.726488 0.14271,0.324325 0.54487,0.661623 0.41514,0.324325 1.19352,0.700542 0.38919,-0.454055 0.49297,-0.869191 0.10378,-0.415136 0.10378,-0.804326 0,-0.921082 -0.35027,-1.310272 -0.35027,-0.402163 -0.92108,-0.402163 -0.50595,0 -0.85622,0.350271 -0.35027,0.337298 -0.35027,0.947028 z m -0.35027,4.92974 q 0,0.830272 0.41514,1.349192 0.41513,0.51892 1.11567,0.51892 0.64865,0 0.98595,-0.415136 0.3373,-0.428109 0.3373,-1.102705 0,-0.415136 -0.18162,-0.739461 -0.18162,-0.337298 -0.63568,-0.64865 -0.44108,-0.311352 -1.23243,-0.661623 -0.0649,-0.02595 -0.12973,-0.06486 -0.28541,0.272433 -0.42811,0.51892 -0.14271,0.233514 -0.1946,0.531893 -0.0519,0.285406 -0.0519,0.713515 z"
           id="path18" />
      </g>
      <path
         id="path240"
         style="fill:none;fill-opacity:0;stroke:#333333;stroke-width:0.240883;stroke-linecap:round;stroke-dasharray:none;stroke-opacity:1;paint-order:markers fill stroke"
         d="m 990.584,28.350434 h 30.49 c 2.108,0 3.805,1.88935 3.805,4.23621 v 50.83505 c 0,2.34686 -1.697,4.23621 -3.805,4.23621 h -30.49 c -2.108,0 -3.805,-1.88935 -3.805,-4.23621 v -50.83505 c 0,-2.34686 1.697,-4.23621 3.805,-4.23621 z" />
      <g
         aria-label="8"
         id="text241"
         style="font-size:55.5989px;line-height:0.9;font-family:'DM Serif Display';-inkscape-font-specification:'DM Serif Display';letter-spacing:0px;word-spacing:0px;stroke:#000000;stroke-width:2.032;stroke-linecap:round;stroke-linejoin:round;stroke-miterlimit:1.1;paint-order:stroke fill markers">
        <path
           d="m 993.43043,67.900751 q 0,-2.835544 2.27955,-5.003901 2.27956,-2.168357 5.61552,-3.502731 -7.06109,-3.669527 -7.06109,-10.007802 0,-3.057939 1.55677,-5.226297 1.55677,-2.223956 4.22552,-3.391532 2.7243,-1.223176 6.0603,-1.223176 3.3915,0 5.6711,1.111978 2.2795,1.056379 3.3915,2.891143 1.1676,1.779164 1.1676,3.947521 0,1.667967 -0.8896,3.224737 -0.8896,1.556769 -2.3908,2.835544 -1.4455,1.278774 -3.1691,2.112758 4.1699,2.057159 6.2271,4.670307 2.1127,2.55755 2.1127,6.171478 0,4.503511 -3.4471,7.227857 -3.4471,2.724346 -9.2294,2.724346 -5.8935,0 -9.00704,-2.279555 -3.11353,-2.335153 -3.11353,-6.282675 z m 7.33907,-21.683571 q 0,1.667967 0.6116,3.113538 0.6116,1.389973 2.3351,2.835544 1.7792,1.389973 5.1151,3.002341 1.668,-1.945962 2.1128,-3.725127 0.4448,-1.779164 0.4448,-3.447131 0,-3.947522 -1.5012,-5.615489 -1.5012,-1.723566 -3.9475,-1.723566 -2.1684,0 -3.6695,1.50117 -1.5012,1.445571 -1.5012,4.05872 z m -1.50119,21.127582 q 0,3.558329 1.77919,5.782285 1.7791,2.223956 4.7815,2.223956 2.7799,0 4.2255,-1.779164 1.4456,-1.834764 1.4456,-4.725907 0,-1.779165 -0.7784,-3.169137 -0.7784,-1.445572 -2.7244,-2.779945 -1.8903,-1.334374 -5.2819,-2.835544 -0.278,-0.111198 -0.5559,-0.277995 -1.2232,1.167577 -1.8348,2.223956 -0.6116,1.000781 -0.83399,2.279555 -0.2224,1.223176 -0.2224,3.05794 z"
           id="path21" />
      </g>
      <g
         aria-label="8"
         transform="scale(-1)"
         id="text242"
         style="font-size:12.973px;line-height:0.9;font-family:'DM Serif Display';-inkscape-font-specification:'DM Serif Display';letter-spacing:0px;word-spacing:0px;stroke:#000000;stroke-width:0.470471;stroke-linecap:round;stroke-linejoin:round;stroke-miterlimit:1.1;paint-order:stroke fill markers">
        <path
           d="m -1031.1337,-91.792627 q 0,-0.661623 0.5319,-1.16757 0.5319,-0.505947 1.3103,-0.817299 -1.6476,-0.856218 -1.6476,-2.33514 0,-0.713515 0.3632,-1.219462 0.3633,-0.51892 0.986,-0.791353 0.6357,-0.285406 1.414,-0.285406 0.7914,0 1.3233,0.25946 0.5319,0.246487 0.7913,0.674596 0.2725,0.415136 0.2725,0.921083 0,0.38919 -0.2076,0.752434 -0.2076,0.363244 -0.5578,0.661623 -0.3373,0.298379 -0.7395,0.492974 0.973,0.480001 1.453,1.089732 0.493,0.596758 0.493,1.440003 0,1.050813 -0.8044,1.68649 -0.8043,0.635677 -2.1535,0.635677 -1.3751,0 -2.1016,-0.531893 -0.7265,-0.544866 -0.7265,-1.465949 z m 1.7124,-5.05947 q 0,0.38919 0.1427,0.726488 0.1427,0.324325 0.5449,0.661623 0.4151,0.324325 1.1935,0.700542 0.3892,-0.454055 0.493,-0.869191 0.1038,-0.415136 0.1038,-0.804326 0,-0.921083 -0.3503,-1.310273 -0.3503,-0.402163 -0.9211,-0.402163 -0.5059,0 -0.8562,0.350271 -0.3503,0.337298 -0.3503,0.947029 z m -0.3502,4.92974 q 0,0.830272 0.4151,1.349192 0.4151,0.51892 1.1157,0.51892 0.6486,0 0.9859,-0.415136 0.3373,-0.428109 0.3373,-1.102705 0,-0.415136 -0.1816,-0.739461 -0.1816,-0.337298 -0.6357,-0.64865 -0.4411,-0.311352 -1.2324,-0.661623 -0.065,-0.02595 -0.1297,-0.06486 -0.2854,0.272433 -0.4282,0.51892 -0.1427,0.233514 -0.1945,0.531893 -0.052,0.285406 -0.052,0.713515 z"
           id="path24" />
      </g>
      <path
         id="path368"
         style="fill:#ffbe1a;stroke-width:2.71543;stroke-linecap:round;paint-order:markers fill stroke"
         d="m 988.049,93.564204 a 5.0944629,5.0944629 0 0 1 -5.0944,5.09447 5.0944629,5.0944629 0 0 1 -5.0945,-5.09447 5.0944629,5.0944629 0 0 1 5.0945,-5.09446 5.0944629,5.0944629 0 0 1 5.0944,5.09446 z" />
      <path
         id="path376"
         style="fill:#ffbe1a;stroke-width:2.71543;stroke-linecap:round;paint-order:markers fill stroke"
         d="m 1033.7692,22.444124 a 5.0944629,5.0944629 0 0 1 -5.0944,5.09447 5.0944629,5.0944629 0 0 1 -5.0945,-5.09447 5.0944629,5.0944629 0 0 1 5.0945,-5.09446 5.0944629,5.0944629 0 0 1 5.0944,5.09446 z" />
    </g>
  </g>
</svg>
