<?xml version="1.0" encoding="UTF-8" standalone="no"?>
<!-- Created with Inkscape (http://www.inkscape.org/) -->

<svg
   width="63.5mm"
   height="88.899986mm"
   viewBox="0 0 63.5 88.899986"
   version="1.1"
   id="svg1"
   xmlns="http://www.w3.org/2000/svg"
   xmlns:svg="http://www.w3.org/2000/svg">
  <defs
     id="defs1" />
  <g
     id="layer1"
     transform="translate(-1278.879,-140.55414)">
    <g
       id="g37">
      <path
         id="path539"
         style="fill:#f4efe7;stroke:none;stroke-width:3.81;stroke-linecap:round;paint-order:markers fill stroke"
         d="m 1285.2207,140.55414 h 50.8166 c 3.5133,0 6.3417,2.83208 6.3417,6.34994 v 76.20011 c 0,3.51787 -2.8284,6.34994 -6.3417,6.34994 h -50.8166 c -3.5133,0 -6.3417,-2.83207 -6.3417,-6.34994 v -76.20011 c 0,-3.51786 2.8284,-6.34994 6.3417,-6.34994 z" />
      <text
         xml:space="preserve"
         style="font-size:12.973px;line-height:0.9;font-family:'DM Serif Display';-inkscape-font-specification:'DM Serif Display';text-align:start;letter-spacing:0px;word-spacing:0px;writing-mode:lr-tb;direction:ltr;text-anchor:start;fill:#000000;fill-opacity:1;stroke:#000000;stroke-width:0.470471;stroke-linecap:round;stroke-linejoin:round;stroke-miterlimit:1.1;stroke-dasharray:none;stroke-opacity:1;paint-order:stroke fill markers"
         x="1284.9613"
         y="153.01892"
         id="text539"><tspan
           id="tspan539"
           style="font-size:12.973px;fill:#000000;fill-opacity:1;stroke:#000000;stroke-width:0.470471;stroke-linecap:round;stroke-linejoin:round;stroke-dasharray:none;stroke-opacity:1"
           x="1284.9613"
           y="153.01892">Q</tspan></text>
      <path
         id="path540"
         style="fill:none;stroke:#333333;stroke-width:0.240883;stroke-linecap:round;stroke-dasharray:none;stroke-opacity:1;paint-order:markers fill stroke"
         d="m 1295.384,155.3504 h 30.49 c 2.108,0 3.805,1.88935 3.805,4.23621 v 50.83505 c 0,2.34686 -1.697,4.23621 -3.805,4.23621 h -30.49 c -2.108,0 -3.805,-1.88935 -3.805,-4.23621 v -50.83505 c 0,-2.34686 1.697,-4.23621 3.805,-4.23621 z" />
      <text
         xml:space="preserve"
         style="font-size:12.973px;line-height:0.9;font-family:'DM Serif Display';-inkscape-font-specification:'DM Serif Display';text-align:start;letter-spacing:0px;word-spacing:0px;writing-mode:lr-tb;direction:ltr;text-anchor:start;fill:#000000;fill-opacity:1;stroke:#000000;stroke-width:0.470471;stroke-linecap:round;stroke-linejoin:round;stroke-miterlimit:1.1;stroke-dasharray:none;stroke-opacity:1;paint-order:stroke fill markers"
         x="-1336.2972"
         y="-216.9894"
         id="text540"
         transform="scale(-1)"><tspan
           id="tspan540"
           style="font-size:12.973px;fill:#000000;fill-opacity:1;stroke:#000000;stroke-width:0.470471;stroke-linecap:round;stroke-linejoin:round;stroke-dasharray:none;stroke-opacity:1"
           x="-1336.2972"
           y="-216.9894">Q</tspan></text>
      <path
         id="path543"
         style="fill:#7a5de5;fill-opacity:1;stroke-width:3.21417;stroke-linecap:round;paint-order:markers fill stroke"
         d="m 1333.4891,154.53856 c 0,0 -3.435,-2.40377 -4.7328,-4.99883 -1.2973,-2.59505 -1.2973,-5.19009 1.7176,-5.19009 3.0152,0 3.0152,2.59504 3.0152,2.59504 0,0 0,-2.59504 3.0152,-2.59504 3.0149,0 3.0149,2.59504 1.7175,5.19009 -1.2977,2.59506 -4.7327,4.99883 -4.7327,4.99883 z" />
      <path
         id="path544"
         style="fill:#7a5de5;fill-opacity:1;stroke-width:3.21417;stroke-linecap:round;paint-order:markers fill stroke"
         d="m 1287.7689,215.46973 c 0,0 3.435,2.40377 4.7328,4.99883 1.2973,2.59505 1.2973,5.19009 -1.7176,5.19009 -3.0152,0 -3.0152,-2.59504 -3.0152,-2.59504 0,0 0,2.59504 -3.0152,2.59504 -3.0149,0 -3.0149,-2.59504 -1.7175,-5.19009 1.2977,-2.59506 4.7327,-4.99883 4.7327,-4.99883 z" />
      <rect
         style="fill:#fff3d4;fill-opacity:1;stroke:none;stroke-width:2.49688;stroke-linecap:round;stroke-linejoin:round;stroke-miterlimit:100;stroke-dasharray:none;stroke-opacity:1;paint-order:markers fill stroke"
         id="rect622"
         width="20.316551"
         height="2.873827"
         x="1300.4708"
         y="177.7381" />
      <path
         style="fill:#fff3d4;fill-opacity:1;stroke:#ffbe1a;stroke-width:2.5;stroke-linecap:round;stroke-dasharray:none;stroke-opacity:1;paint-order:markers fill stroke"
         d="m 1320.7873,180.61192 c 0,0 5.0792,-4.99797 5.0792,-9.99594 0,-4.99796 -10.1583,0 -10.1583,0"
         id="path622" />
      <path
         style="fill:#fff3d4;fill-opacity:1;stroke:#ffbe1a;stroke-width:2.5;stroke-linecap:round;stroke-dasharray:none;stroke-opacity:1;paint-order:markers fill stroke"
         d="m 1300.4708,180.61192 c 0,0 -5.0791,-4.99797 -5.0791,-9.99594 0,-4.99796 10.1583,0 10.1583,0"
         id="path623" />
      <path
         style="fill:none;fill-opacity:1;stroke:#ffbe1a;stroke-width:2.49999;stroke-linecap:round;stroke-linejoin:round;stroke-miterlimit:100;stroke-dasharray:none;stroke-opacity:1;paint-order:markers fill stroke"
         d="m 1305.55,170.61598 c 0,0 5.079,0 5.079,-4.99797 v -3.12048 3.12048 c 0,5.32361 5.0792,4.99797 5.0792,4.99797"
         id="path624" />
      <path
         style="fill:#fff3d4;fill-opacity:1;stroke:#ffbe1a;stroke-width:2.5;stroke-linecap:round;stroke-dasharray:none;stroke-opacity:1;paint-order:markers fill stroke"
         d="m 1305.55,180.61192 c 0,0 -5.0792,-4.99797 -5.0792,-9.99594 0,-4.99796 5.0792,-4.99796 10.1582,-4.99796 5.0792,0 10.1583,0 10.1583,4.99796 0,4.99797 -5.0791,9.99594 -5.0791,9.99594 z"
         id="path625" />
      <path
         style="fill:#ffbe1a;fill-opacity:1;stroke:#ffbe1a;stroke-width:2.49999;stroke-linecap:round;stroke-linejoin:round;stroke-miterlimit:100;stroke-dasharray:none;stroke-opacity:1;paint-order:markers fill stroke"
         d="m 1300.4708,180.61192 h 20.3165"
         id="path626" />
      <path
         style="fill:#ffbe1a;fill-opacity:1;stroke:#ffbe1a;stroke-width:2.49688;stroke-linecap:round;stroke-linejoin:round;stroke-miterlimit:100;stroke-dasharray:none;stroke-opacity:1;paint-order:markers fill stroke"
         d="m 1310.629,159.98591 v 5.02326"
         id="path627" />
      <path
         style="fill:#ffbe1a;fill-opacity:1;stroke:#ffbe1a;stroke-width:2.49688;stroke-linecap:round;stroke-linejoin:round;stroke-miterlimit:100;stroke-dasharray:none;stroke-opacity:1;paint-order:markers fill stroke"
         d="m 1308.1031,162.47139 5.0783,0.0262"
         id="path628" />
      <rect
         style="fill:#fff3d4;fill-opacity:1;stroke:none;stroke-width:2.49688;stroke-linecap:round;stroke-linejoin:round;stroke-miterlimit:100;stroke-dasharray:none;stroke-opacity:1;paint-order:markers fill stroke"
         id="rect629"
         width="20.316551"
         height="2.873827"
         x="-1320.7875"
         y="-192.27016"
         transform="scale(-1)" />
      <path
         style="fill:#fff3d4;fill-opacity:1;stroke:#ffbe1a;stroke-width:2.5;stroke-linecap:round;stroke-dasharray:none;stroke-opacity:1;paint-order:markers fill stroke"
         d="m 1300.4709,189.39634 c 0,0 -5.0792,4.99797 -5.0792,9.99594 0,4.99796 10.1583,0 10.1583,0"
         id="path629" />
      <path
         style="fill:#fff3d4;fill-opacity:1;stroke:#ffbe1a;stroke-width:2.5;stroke-linecap:round;stroke-dasharray:none;stroke-opacity:1;paint-order:markers fill stroke"
         d="m 1320.7874,189.39634 c 0,0 5.0791,4.99797 5.0791,9.99594 0,4.99796 -10.1583,0 -10.1583,0"
         id="path630" />
      <path
         style="fill:none;fill-opacity:1;stroke:#ffbe1a;stroke-width:2.49999;stroke-linecap:round;stroke-linejoin:round;stroke-miterlimit:100;stroke-dasharray:none;stroke-opacity:1;paint-order:markers fill stroke"
         d="m 1315.7082,199.39228 c 0,0 -5.079,0 -5.079,4.99797 v 3.12048 -3.12048 c 0,-5.32361 -5.0792,-4.99797 -5.0792,-4.99797"
         id="path631" />
      <path
         style="fill:#fff3d4;fill-opacity:1;stroke:#ffbe1a;stroke-width:2.5;stroke-linecap:round;stroke-dasharray:none;stroke-opacity:1;paint-order:markers fill stroke"
         d="m 1315.7082,189.39634 c 0,0 5.0792,4.99797 5.0792,9.99594 0,4.99796 -5.0792,4.99796 -10.1582,4.99796 -5.0792,0 -10.1583,0 -10.1583,-4.99796 0,-4.99797 5.0791,-9.99594 5.0791,-9.99594 z"
         id="path632" />
      <path
         style="fill:#ffbe1a;fill-opacity:1;stroke:#ffbe1a;stroke-width:2.49999;stroke-linecap:round;stroke-linejoin:round;stroke-miterlimit:100;stroke-dasharray:none;stroke-opacity:1;paint-order:markers fill stroke"
         d="m 1320.7874,189.39634 h -20.3165"
         id="path633" />
      <path
         style="fill:#ffbe1a;fill-opacity:1;stroke:#ffbe1a;stroke-width:2.49688;stroke-linecap:round;stroke-linejoin:round;stroke-miterlimit:100;stroke-dasharray:none;stroke-opacity:1;paint-order:markers fill stroke"
         d="m 1310.6292,210.0224 v -5.02326"
         id="path634" />
      <path
         style="fill:#ffbe1a;fill-opacity:1;stroke:#ffbe1a;stroke-width:2.49688;stroke-linecap:round;stroke-linejoin:round;stroke-miterlimit:100;stroke-dasharray:none;stroke-opacity:1;paint-order:markers fill stroke"
         d="m 1313.1551,207.53692 -5.0783,-0.0262"
         id="path635" />
    </g>
  </g>
</svg>
