<?xml version="1.0" encoding="UTF-8" standalone="no"?>
<!-- Created with Inkscape (http://www.inkscape.org/) -->

<svg
   width="63.5mm"
   height="88.899986mm"
   viewBox="0 0 63.5 88.899986"
   version="1.1"
   id="svg1"
   sodipodi:docname="Card_9C.svg"
   xmlns:inkscape="http://www.inkscape.org/namespaces/inkscape"
   xmlns:sodipodi="http://sodipodi.sourceforge.net/DTD/sodipodi-0.dtd"
   xmlns="http://www.w3.org/2000/svg"
   xmlns:svg="http://www.w3.org/2000/svg">
  <sodipodi:namedview
     id="namedview16"
     pagecolor="#ffffff"
     bordercolor="#000000"
     borderopacity="0.25"
     inkscape:showpageshadow="2"
     inkscape:pageopacity="0.0"
     inkscape:pagecheckerboard="0"
     inkscape:deskcolor="#d1d1d1"
     inkscape:document-units="mm" />
  <defs
     id="defs1" />
  <g
     id="layer1"
     transform="translate(-1050.279,113.44584)">
    <g
       id="g8">
      <path
         id="path212"
         style="fill:#f4efe7;stroke:none;stroke-width:3.81;stroke-linecap:round;paint-order:markers fill stroke"
         d="m 1056.6207,-113.44584 h 50.8166 c 3.5133,0 6.3417,2.83208 6.3417,6.34994 v 76.20011 c 0,3.51787 -2.8284,6.34994 -6.3417,6.34994 h -50.8166 c -3.5133,0 -6.3417,-2.83207 -6.3417,-6.34994 v -76.20011 c 0,-3.51786 2.8284,-6.34994 6.3417,-6.34994 z" />
      <path
         id="path213"
         style="fill:#7a5de5;fill-opacity:1;stroke-width:1.77626;stroke-linecap:round;paint-order:markers fill stroke"
         d="m 1108.274,-109.364 c -0.3622,-0.36236 -0.9454,-0.36233 -1.308,-10e-6 l -0.7114,0.71143 -0.7116,0.71163 -0.6539,0.654 -1.3656,-1.36566 -0.7114,-0.7114 c -0.3625,-0.36231 -0.9458,-0.36236 -1.3082,-2e-5 l -1.4231,1.42307 c -0.3623,0.36231 -0.3623,0.94571 0,1.30801 l 1.4231,1.42306 0.6541,0.65402 -1.3657,1.36565 -0.7114,0.71142 c -0.3623,0.36232 -0.3623,0.94566 0,1.30802 l 1.4232,1.42303 c 0.3622,0.36232 0.9455,0.36235 1.308,1e-5 l 1.423,-1.42304 0.6541,-0.65401 0.6538,0.65399 0.7117,0.71161 0.7115,0.71145 c 0.3624,0.36231 0.9457,0.36229 1.308,-2e-5 l 1.4231,-1.42304 c 0.3624,-0.36237 0.3624,-0.94569 0,-1.30799 l -0.7114,-0.71144 -0.7117,-0.71165 -0.6541,-0.65398 0.6541,-0.65401 0.7117,-0.71162 0.7114,-0.71144 c 0.3624,-0.36232 0.3624,-0.94572 0,-1.30802 z" />
      <path
         id="path214"
         style="fill:#7a5de5;fill-opacity:1;stroke-width:1.77626;stroke-linecap:round;paint-order:markers fill stroke"
         d="m 1062.5538,-38.24392 c -0.3622,-0.36236 -0.9454,-0.36233 -1.308,-10e-6 l -0.7114,0.71143 -0.7116,0.71163 -0.6539,0.654 -1.3656,-1.36566 -0.7114,-0.7114 c -0.3625,-0.36231 -0.9458,-0.36236 -1.3082,-2e-5 l -1.4231,1.42307 c -0.3623,0.36231 -0.3623,0.94571 0,1.30801 l 1.4231,1.42306 0.6541,0.65402 -1.3657,1.36565 -0.7114,0.71142 c -0.3623,0.36232 -0.3623,0.94566 0,1.30802 l 1.4232,1.42303 c 0.3622,0.36232 0.9455,0.36235 1.308,10e-6 l 1.423,-1.42304 0.6541,-0.65401 0.6538,0.65399 0.7117,0.71161 0.7115,0.71145 c 0.3624,0.36231 0.9457,0.36229 1.308,-2e-5 l 1.4231,-1.42304 c 0.3624,-0.36237 0.3624,-0.94569 0,-1.30799 l -0.7114,-0.71144 -0.7117,-0.71165 -0.6541,-0.65398 0.6541,-0.65401 0.7117,-0.71162 0.7114,-0.71144 c 0.3624,-0.36232 0.3624,-0.94572 0,-1.30802 z" />
      <g
         aria-label="9"
         id="text214"
         style="font-size:12.973px;line-height:0.9;font-family:'DM Serif Display';-inkscape-font-specification:'DM Serif Display';letter-spacing:0px;word-spacing:0px;stroke:#000000;stroke-width:0.470471;stroke-linecap:round;stroke-linejoin:round;stroke-miterlimit:1.1;paint-order:stroke fill markers">
        <path
           d="m 1062.8475,-105.92378 q 0,1.31027 -0.6098,2.38703 -0.6097,1.06378 -1.7902,1.79027 -1.1676,0.72649 -2.8671,1.02487 l -0.052,-0.23352 q 1.1546,-0.24648 1.8552,-0.71351 0.7005,-0.46703 1.0508,-1.18054 0.3632,-0.71352 0.467,-1.71244 -0.2724,0.18162 -0.6746,0.29838 -0.4021,0.10378 -0.9081,0.10378 -0.7265,0 -1.3103,-0.2854 -0.5708,-0.29838 -0.9081,-0.85622 -0.3373,-0.55784 -0.3373,-1.34919 0,-0.84325 0.4152,-1.45298 0.4151,-0.6227 1.0897,-0.96 0.6876,-0.3373 1.5049,-0.3373 1.4789,0 2.2702,0.93406 0.8044,0.92108 0.8044,2.54271 z m -4.2552,-0.89514 q 0,1.18054 0.3243,1.71243 0.3244,0.51892 1.0638,0.51892 0.5449,0 0.9471,-0.23351 0.026,-0.28541 0.039,-0.57081 0.013,-0.29838 0.013,-0.62271 0,-1.19351 -0.1167,-1.86811 -0.1168,-0.68757 -0.3762,-0.97297 -0.2595,-0.28541 -0.7006,-0.28541 -0.5967,0 -0.8951,0.54487 -0.2984,0.54486 -0.2984,1.7773 z"
           id="path18" />
      </g>
      <path
         id="path215"
         style="fill:none;fill-opacity:0;stroke:#333333;stroke-width:0.240883;stroke-linecap:round;stroke-dasharray:none;stroke-opacity:1;paint-order:markers fill stroke"
         d="m 1066.784,-98.64958 h 30.49 c 2.108,0 3.805,1.88935 3.805,4.23621 v 50.83505 c 0,2.34686 -1.697,4.23621 -3.805,4.23621 h -30.49 c -2.108,0 -3.805,-1.88935 -3.805,-4.23621 v -50.83505 c 0,-2.34686 1.697,-4.23621 3.805,-4.23621 z" />
      <g
         aria-label="9"
         id="text215"
         style="font-size:55.5989px;line-height:0.9;font-family:'DM Serif Display';-inkscape-font-specification:'DM Serif Display';letter-spacing:0px;word-spacing:0px;stroke:#000000;stroke-width:2.032;stroke-linecap:round;stroke-linejoin:round;stroke-miterlimit:1.1;paint-order:stroke fill markers">
        <path
           d="m 1095.0669,-72.693172 q 0,5.615489 -2.6131,10.230198 -2.6132,4.55911 -7.6727,7.672648 -5.0039,3.113539 -12.2873,4.392313 l -0.2224,-1.00078 q 4.9483,-1.056379 7.9506,-3.057939 3.0023,-2.001561 4.5035,-5.0595 1.5568,-3.05794 2.0016,-7.339055 -1.1676,0.778385 -2.8912,1.278775 -1.7235,0.444791 -3.8919,0.444791 -3.1135,0 -5.6155,-1.223176 -2.4463,-1.278775 -3.8919,-3.669527 -1.4456,-2.390753 -1.4456,-5.782286 0,-3.613928 1.7792,-6.227077 1.7792,-2.668747 4.6703,-4.114318 2.9467,-1.445572 6.4495,-1.445572 6.3382,0 9.7298,4.003121 3.4471,3.947522 3.4471,10.897384 z m -18.2364,-3.836324 q 0,5.0595 1.3899,7.339055 1.39,2.223956 4.5591,2.223956 2.3352,0 4.0588,-1.00078 0.1112,-1.223176 0.1668,-2.446352 0.056,-1.278774 0.056,-2.668747 0,-5.115099 -0.5004,-8.006241 -0.5004,-2.946742 -1.6124,-4.169918 -1.112,-1.223176 -3.0023,-1.223176 -2.5576,0 -3.8364,2.335154 -1.2787,2.335154 -1.2787,7.617049 z"
           id="path21" />
      </g>
      <g
         aria-label="9"
         transform="scale(-1)"
         id="text216"
         style="font-size:12.973px;line-height:0.9;font-family:'DM Serif Display';-inkscape-font-specification:'DM Serif Display';letter-spacing:0px;word-spacing:0px;stroke:#000000;stroke-width:0.470471;stroke-linecap:round;stroke-linejoin:round;stroke-miterlimit:1.1;paint-order:stroke fill markers">
        <path
           d="m -1101.2104,32.067888 q 0,1.310273 -0.6097,2.387032 -0.6098,1.063786 -1.7903,1.790274 -1.1676,0.726488 -2.867,1.024867 l -0.052,-0.233514 q 1.1546,-0.246487 1.8551,-0.713515 0.7006,-0.467028 1.0508,-1.180543 0.3633,-0.713515 0.4671,-1.712436 -0.2725,0.181622 -0.6746,0.298379 -0.4022,0.103784 -0.9082,0.103784 -0.7264,0 -1.3102,-0.285406 -0.5708,-0.298379 -0.9081,-0.856218 -0.3373,-0.557839 -0.3373,-1.349192 0,-0.843245 0.4151,-1.452976 0.4151,-0.622704 1.0897,-0.960002 0.6876,-0.337298 1.5049,-0.337298 1.4789,0 2.2703,0.934056 0.8043,0.921083 0.8043,2.542708 z m -4.2551,-0.895137 q 0,1.180543 0.3243,1.712436 0.3243,0.51892 1.0638,0.51892 0.5448,0 0.947,-0.233514 0.026,-0.285406 0.039,-0.570812 0.013,-0.298379 0.013,-0.622704 0,-1.193516 -0.1168,-1.868112 -0.1167,-0.687569 -0.3762,-0.972975 -0.2594,-0.285406 -0.7005,-0.285406 -0.5968,0 -0.8952,0.544866 -0.2983,0.544866 -0.2983,1.777301 z"
           id="path24" />
      </g>
    </g>
  </g>
</svg>
