<?xml version="1.0" encoding="UTF-8" standalone="no"?>
<!-- Created with Inkscape (http://www.inkscape.org/) -->

<svg
   width="63.5mm"
   height="88.899986mm"
   viewBox="0 0 63.5 88.899986"
   version="1.1"
   id="svg1"
   sodipodi:docname="Card_AC.svg"
   xmlns:inkscape="http://www.inkscape.org/namespaces/inkscape"
   xmlns:sodipodi="http://sodipodi.sourceforge.net/DTD/sodipodi-0.dtd"
   xmlns="http://www.w3.org/2000/svg"
   xmlns:svg="http://www.w3.org/2000/svg">
  <sodipodi:namedview
     id="namedview21"
     pagecolor="#ffffff"
     bordercolor="#000000"
     borderopacity="0.25"
     inkscape:showpageshadow="2"
     inkscape:pageopacity="0.0"
     inkscape:pagecheckerboard="0"
     inkscape:deskcolor="#d1d1d1"
     inkscape:document-units="mm" />
  <defs
     id="defs1" />
  <g
     id="layer1"
     transform="translate(-1431.279,113.44584)">
    <g
       id="g13">
      <path
         id="path563"
         style="fill:#f4efe7;stroke:none;stroke-width:3.81;stroke-linecap:round;paint-order:markers fill stroke"
         d="m 1437.6207,-113.44584 h 50.8166 c 3.5133,0 6.3417,2.83208 6.3417,6.34994 v 76.20011 c 0,3.51787 -2.8284,6.34994 -6.3417,6.34994 h -50.8166 c -3.5133,0 -6.3417,-2.83207 -6.3417,-6.34994 v -76.20011 c 0,-3.51786 2.8284,-6.34994 6.3417,-6.34994 z" />
      <path
         id="path564"
         style="fill:#7a5de5;fill-opacity:1;stroke-width:1.77626;stroke-linecap:round;paint-order:markers fill stroke"
         d="m 1489.274,-109.364 c -0.3622,-0.36236 -0.9454,-0.36233 -1.308,-10e-6 l -0.7114,0.71143 -0.7116,0.71163 -0.6539,0.654 -1.3656,-1.36566 -0.7114,-0.7114 c -0.3625,-0.36231 -0.9458,-0.36236 -1.3082,-2e-5 l -1.4231,1.42307 c -0.3623,0.36231 -0.3623,0.94571 0,1.30801 l 1.4231,1.42306 0.6541,0.65402 -1.3657,1.36565 -0.7114,0.71142 c -0.3623,0.36232 -0.3623,0.94566 0,1.30802 l 1.4232,1.42303 c 0.3622,0.36232 0.9455,0.36235 1.308,1e-5 l 1.423,-1.42304 0.6541,-0.65401 0.6538,0.65399 0.7117,0.71161 0.7115,0.71145 c 0.3624,0.36231 0.9457,0.36229 1.308,-2e-5 l 1.4231,-1.42304 c 0.3624,-0.36237 0.3624,-0.94569 0,-1.30799 l -0.7114,-0.71144 -0.7117,-0.71165 -0.6541,-0.65398 0.6541,-0.65401 0.7117,-0.71162 0.7114,-0.71144 c 0.3624,-0.36232 0.3624,-0.94572 0,-1.30802 z" />
      <path
         id="path565"
         style="fill:#7a5de5;fill-opacity:1;stroke-width:1.77626;stroke-linecap:round;paint-order:markers fill stroke"
         d="m 1443.5538,-38.24392 c -0.3622,-0.36236 -0.9454,-0.36233 -1.308,-10e-6 l -0.7114,0.71143 -0.7116,0.71163 -0.6539,0.654 -1.3656,-1.36566 -0.7114,-0.7114 c -0.3625,-0.36231 -0.9458,-0.36236 -1.3082,-2e-5 l -1.4231,1.42307 c -0.3623,0.36231 -0.3623,0.94571 0,1.30801 l 1.4231,1.42306 0.6541,0.65402 -1.3657,1.36565 -0.7114,0.71142 c -0.3623,0.36232 -0.3623,0.94566 0,1.30802 l 1.4232,1.42303 c 0.3622,0.36232 0.9455,0.36235 1.308,10e-6 l 1.423,-1.42304 0.6541,-0.65401 0.6538,0.65399 0.7117,0.71161 0.7115,0.71145 c 0.3624,0.36231 0.9457,0.36229 1.308,-2e-5 l 1.4231,-1.42304 c 0.3624,-0.36237 0.3624,-0.94569 0,-1.30799 l -0.7114,-0.71144 -0.7117,-0.71165 -0.6541,-0.65398 0.6541,-0.65401 0.7117,-0.71162 0.7114,-0.71144 c 0.3624,-0.36232 0.3624,-0.94572 0,-1.30802 z" />
      <g
         aria-label="A"
         id="text565"
         style="font-size:12.973px;line-height:0.9;font-family:'DM Serif Display';-inkscape-font-specification:'DM Serif Display';letter-spacing:0px;word-spacing:0px;stroke:#000000;stroke-width:0.470471;stroke-linecap:round;stroke-linejoin:round;stroke-miterlimit:1.1;paint-order:stroke fill markers">
        <path
           d="m 1437.465,-100.98107 v -0.12973 l 0.3243,-0.11676 q 0.2595,-0.10378 0.4022,-0.24649 0.1427,-0.15567 0.2335,-0.4281 l 2.6724,-7.66705 h 1.1027 l 2.6336,7.71894 q 0.1037,0.2854 0.2335,0.44108 0.1297,0.1427 0.4021,0.24649 l 0.1557,0.0519 v 0.12973 h -3.2951 v -0.12973 l 0.1946,-0.0649 q 0.2724,-0.10378 0.3243,-0.2854 0.065,-0.1946 -0.013,-0.45406 l -0.6097,-1.86811 h -2.88 l -0.6227,1.82919 q -0.091,0.28541 -0.065,0.45406 0.039,0.16865 0.3114,0.27243 l 0.2854,0.11676 v 0.12973 z m 1.9719,-3.06163 h 2.7113 l -1.3102,-4.0346 z"
           id="path23" />
      </g>
      <path
         id="path566"
         style="fill:none;fill-opacity:0;stroke:#333333;stroke-width:0.240883;stroke-linecap:round;stroke-dasharray:none;stroke-opacity:1;paint-order:markers fill stroke"
         d="m 1447.784,-98.64958 h 30.49 c 2.108,0 3.805,1.88935 3.805,4.23621 v 50.83505 c 0,2.34686 -1.697,4.23621 -3.805,4.23621 h -30.49 c -2.108,0 -3.805,-1.88935 -3.805,-4.23621 v -50.83505 c 0,-2.34686 1.697,-4.23621 3.805,-4.23621 z" />
      <g
         aria-label="A"
         transform="scale(-1)"
         id="text566"
         style="font-size:12.973px;line-height:0.9;font-family:'DM Serif Display';-inkscape-font-specification:'DM Serif Display';letter-spacing:0px;word-spacing:0px;stroke:#000000;stroke-width:0.470471;stroke-linecap:round;stroke-linejoin:round;stroke-miterlimit:1.1;paint-order:stroke fill markers">
        <path
           d="m -1488.5934,37.010601 v -0.12973 l 0.3244,-0.116757 q 0.2594,-0.103784 0.4021,-0.246487 0.1427,-0.155676 0.2335,-0.428109 l 2.6725,-7.667043 h 1.1027 l 2.6335,7.718935 q 0.1038,0.285406 0.2335,0.441082 0.1297,0.142703 0.4022,0.246487 l 0.1557,0.05189 v 0.12973 h -3.2952 v -0.12973 l 0.1946,-0.06486 q 0.2724,-0.103784 0.3243,-0.285406 0.065,-0.194595 -0.013,-0.454055 l -0.6098,-1.868112 h -2.88 l -0.6227,1.829193 q -0.091,0.285406 -0.065,0.454055 0.039,0.168649 0.3113,0.272433 l 0.2854,0.116757 v 0.12973 z m 1.9719,-3.061628 h 2.7114 l -1.3103,-4.034603 z"
           id="path26" />
      </g>
      <path
         id="path652"
         style="fill:#7a5de5;fill-opacity:1;stroke-width:1.77626;stroke-linecap:round;paint-order:markers fill stroke"
         d="m 1473.3772,-83.69496 c -1.1073,-1.10781 -2.8902,-1.10771 -3.9987,-5e-5 l -2.1749,2.17495 -2.1755,2.17557 -1.9991,1.99937 -4.1748,-4.17502 -2.1749,-2.17487 c -1.1082,-1.10763 -2.8913,-1.10779 -3.9993,-6e-5 l -4.3506,4.35054 c -1.1076,1.10764 -1.1076,2.89117 0,3.99878 l 4.3506,4.35051 1.9997,1.99945 -4.1751,4.17499 -2.1749,2.17492 c -1.1076,1.10766 -1.1076,2.89103 0,3.99881 l 4.3509,4.35042 c 1.1074,1.10766 2.8905,1.10776 3.9987,3e-5 l 4.3505,-4.35045 1.9996,-1.99941 1.9987,1.99935 2.1758,2.1755 2.1752,2.17501 c 1.1079,1.10763 2.8911,1.10757 3.9988,-7e-5 l 4.3506,-4.35044 c 1.1079,-1.10783 1.1079,-2.89111 0,-3.99872 l -2.1749,-2.17498 -2.1757,-2.17562 -1.9997,-1.99931 1.9997,-1.99942 2.1757,-2.17552 2.1749,-2.17499 c 1.1079,-1.10767 1.1079,-2.8912 0,-3.9988 z" />
      <g
         aria-label="DOPAMINO"
         id="text680"
         style="font-size:4.44582px;font-family:'DM Serif Display';-inkscape-font-specification:'DM Serif Display';fill:#3c3c3c;stroke-width:2.62548;stroke-linecap:round;stroke-linejoin:round;stroke-miterlimit:100;paint-order:markers fill stroke">
        <path
           d="m 1454.7193,-46.221294 v -0.04446 l 0.093,-0.03557 q 0.1423,-0.0578 0.1423,-0.226737 v -2.320718 q 0,-0.177833 -0.1423,-0.226737 l -0.093,-0.03557 v -0.04446 h 1.1737 q 0.4712,0 0.8091,0.177833 0.3423,0.173387 0.5246,0.502378 0.1867,0.324545 0.1867,0.782464 0,0.466811 -0.2,0.795802 -0.2001,0.328991 -0.5602,0.502378 -0.3557,0.173387 -0.8403,0.173387 z m 0.9025,-0.08892 h 0.1911 q 0.3201,0 0.5158,-0.124483 0.1956,-0.128929 0.2845,-0.426798 0.093,-0.302316 0.093,-0.826923 0,-0.524607 -0.093,-0.822477 -0.089,-0.302315 -0.2801,-0.426798 -0.1912,-0.128929 -0.5024,-0.128929 h -0.2089 z"
           id="path29" />
        <path
           d="m 1459.0628,-46.14127 q -0.2712,0 -0.5246,-0.09781 -0.2489,-0.09781 -0.449,-0.288978 -0.1956,-0.195616 -0.3112,-0.484594 -0.1156,-0.288979 -0.1156,-0.675765 0,-0.38234 0.1156,-0.671319 0.1156,-0.288978 0.3157,-0.480148 0.2,-0.195616 0.449,-0.293424 0.2534,-0.102254 0.5201,-0.102254 0.2712,0 0.5202,0.09781 0.2534,0.09336 0.449,0.288978 0.2001,0.19117 0.3157,0.484594 0.1156,0.288979 0.1156,0.675765 0,0.377895 -0.1156,0.671319 -0.1156,0.288978 -0.3157,0.484594 -0.1956,0.19117 -0.449,0.293424 -0.249,0.09781 -0.5202,0.09781 z m 0,-0.09336 q 0.2446,0 0.3957,-0.128929 0.1512,-0.133374 0.2179,-0.449027 0.071,-0.320099 0.071,-0.875827 0,-0.560173 -0.071,-0.875826 -0.067,-0.320099 -0.2179,-0.449028 -0.1511,-0.133375 -0.3957,-0.133375 -0.24,0 -0.3912,0.133375 -0.1511,0.128929 -0.2223,0.449028 -0.067,0.315653 -0.067,0.875826 0,0.555728 0.067,0.875827 0.071,0.315653 0.2223,0.449027 0.1512,0.128929 0.3912,0.128929 z"
           id="path31" />
        <path
           d="m 1460.5744,-46.221294 v -0.04446 l 0.089,-0.03112 q 0.089,-0.02668 0.1156,-0.08002 0.031,-0.05335 0.031,-0.142266 v -2.32961 q 0,-0.08892 -0.031,-0.142266 -0.031,-0.05335 -0.12,-0.08447 l -0.084,-0.03557 v -0.04446 h 1.0804 q 0.6624,0 0.9558,0.244521 0.2979,0.240074 0.2979,0.635752 0,0.253412 -0.1245,0.466811 -0.12,0.208953 -0.4001,0.333436 -0.2801,0.124483 -0.7558,0.124483 h -0.1512 v 0.818031 q 0,0.173387 0.1734,0.226737 l 0.1334,0.04001 v 0.04446 z m 0.9025,-1.218155 h 0.169 q 0.2178,0 0.3556,-0.07113 0.1378,-0.07113 0.2045,-0.248966 0.067,-0.177833 0.067,-0.493486 0,-0.320099 -0.076,-0.497932 -0.071,-0.177833 -0.2134,-0.24452 -0.1422,-0.07113 -0.3556,-0.07113 h -0.1512 z"
           id="path33" />
        <path
           d="m 1462.6595,-46.221294 v -0.04446 l 0.1112,-0.04001 q 0.089,-0.03557 0.1378,-0.08447 0.049,-0.05335 0.08,-0.146712 l 0.9158,-2.627479 h 0.3779 l 0.9025,2.645263 q 0.036,0.09781 0.08,0.151158 0.044,0.0489 0.1378,0.08447 l 0.053,0.01778 v 0.04446 h -1.1292 v -0.04446 l 0.067,-0.02223 q 0.093,-0.03557 0.1111,-0.09781 0.022,-0.06669 -0,-0.155603 l -0.209,-0.640198 h -0.9869 l -0.2134,0.62686 q -0.031,0.09781 -0.022,0.155604 0.013,0.05779 0.1067,0.09336 l 0.098,0.04001 v 0.04446 z m 0.6758,-1.049214 h 0.9291 l -0.449,-1.38265 z"
           id="path35" />
        <path
           d="m 1465.5849,-46.221294 v -0.04446 l 0.089,-0.03112 q 0.1511,-0.0489 0.1511,-0.253412 v -2.27626 q 0,-0.08892 -0.022,-0.142266 -0.018,-0.05335 -0.1023,-0.08892 l -0.1155,-0.05335 v -0.04446 h 0.858 l 0.8225,2.151777 0.7735,-2.151777 h 0.8759 v 0.04446 l -0.071,0.02668 q -0.084,0.03112 -0.1155,0.08892 -0.031,0.05335 -0.031,0.142266 v 2.325164 q 0,0.08892 0.022,0.13782 0.022,0.0489 0.1067,0.08447 l 0.089,0.04001 v 0.04446 h -1.107 v -0.04446 l 0.093,-0.04001 q 0.084,-0.03557 0.1067,-0.08447 0.022,-0.0489 0.022,-0.13782 v -1.000309 l 0.01,-1.271505 -0.9291,2.578576 h -0.2223 l -0.9692,-2.547455 0.013,1.107009 v 1.120347 q 0,0.09781 0.027,0.160049 0.031,0.0578 0.1156,0.08447 l 0.098,0.03112 v 0.04446 z"
           id="path37" />
        <path
           d="m 1469.1104,-46.221294 v -0.04446 l 0.089,-0.03557 q 0.089,-0.03112 0.1156,-0.08447 0.031,-0.05335 0.031,-0.142266 v -2.320718 q 0,-0.08892 -0.027,-0.142266 -0.027,-0.05335 -0.12,-0.08447 l -0.089,-0.03557 v -0.04446 h 1.1426 v 0.04446 l -0.089,0.03557 q -0.089,0.03112 -0.1201,0.08447 -0.027,0.05335 -0.027,0.142266 v 2.320718 q 0,0.08892 0.027,0.142266 0.031,0.0489 0.1201,0.08447 l 0.089,0.03557 v 0.04446 z"
           id="path39" />
        <path
           d="m 1470.5064,-46.221294 v -0.04446 l 0.1467,-0.04446 q 0.08,-0.02223 0.1156,-0.08447 0.036,-0.06669 0.036,-0.155604 v -2.138439 q -0.049,-0.1067 -0.08,-0.16005 -0.027,-0.05335 -0.062,-0.08892 -0.036,-0.04001 -0.098,-0.09781 l -0.076,-0.07558 v -0.04446 h 0.7869 l 1.476,2.013957 v -1.676074 q 0,-0.08892 -0.031,-0.16005 -0.027,-0.07113 -0.1156,-0.09336 l -0.1467,-0.04001 v -0.04446 h 0.6358 v 0.04446 l -0.1201,0.04001 q -0.08,0.02667 -0.098,0.09336 -0.018,0.06669 -0.018,0.155604 v 2.614142 h -0.2489 l -1.6983,-2.334055 v 1.991727 q 0,0.08892 0.027,0.151158 0.027,0.06224 0.1112,0.08892 l 0.1333,0.04446 v 0.04446 z"
           id="path41" />
        <path
           d="m 1474.6543,-46.14127 q -0.2712,0 -0.5246,-0.09781 -0.2489,-0.09781 -0.449,-0.288978 -0.1956,-0.195616 -0.3112,-0.484594 -0.1156,-0.288979 -0.1156,-0.675765 0,-0.38234 0.1156,-0.671319 0.1156,-0.288978 0.3156,-0.480148 0.2001,-0.195616 0.4491,-0.293424 0.2534,-0.102254 0.5201,-0.102254 0.2712,0 0.5202,0.09781 0.2534,0.09336 0.449,0.288978 0.2001,0.19117 0.3157,0.484594 0.1156,0.288979 0.1156,0.675765 0,0.377895 -0.1156,0.671319 -0.1156,0.288978 -0.3157,0.484594 -0.1956,0.19117 -0.449,0.293424 -0.249,0.09781 -0.5202,0.09781 z m 0,-0.09336 q 0.2446,0 0.3957,-0.128929 0.1512,-0.133374 0.2179,-0.449027 0.071,-0.320099 0.071,-0.875827 0,-0.560173 -0.071,-0.875826 -0.067,-0.320099 -0.2179,-0.449028 -0.1511,-0.133375 -0.3957,-0.133375 -0.24,0 -0.3912,0.133375 -0.1512,0.128929 -0.2223,0.449028 -0.067,0.315653 -0.067,0.875826 0,0.555728 0.067,0.875827 0.071,0.315653 0.2223,0.449027 0.1512,0.128929 0.3912,0.128929 z"
           id="path43" />
      </g>
      <path
         d="m 1451.7708,-49.45547 c -0.9746,0 -1.7676,0.79262 -1.7676,1.76749 0,0.97448 0.793,1.76749 1.7676,1.76749 0.9748,0 1.7677,-0.79301 1.7677,-1.76749 0,-0.97487 -0.7929,-1.76749 -1.7677,-1.76749 z m 0,3.14119 c -0.7575,0 -1.3738,-0.61623 -1.3738,-1.37369 0,-0.75779 0.6163,-1.37402 1.3738,-1.37402 0.7577,0 1.3739,0.61623 1.3739,1.37402 0,0.75746 -0.6162,1.37369 -1.3739,1.37369 z"
         id="path680"
         style="fill:#3c3c3c;fill-opacity:1;stroke-width:0.00962079" />
      <path
         d="m 1452.351,-47.36779 c -0.1129,0.19377 -0.3229,0.31397 -0.5479,0.31397 -0.3496,0 -0.6343,-0.28463 -0.6343,-0.63415 0,-0.34982 0.2847,-0.63454 0.6343,-0.63454 0.225,0 0.435,0.12064 0.5479,0.31403 l 0.015,0.0253 h 0.426 l -0.026,-0.0686 c -0.074,-0.19639 -0.2043,-0.36337 -0.3764,-0.48255 -0.1727,-0.11949 -0.3754,-0.18289 -0.5866,-0.18289 -0.5675,0 -1.0289,0.46186 -1.0289,1.02926 0,0.56743 0.4614,1.02885 1.0289,1.02885 0.2112,0 0.4139,-0.0632 0.5866,-0.18285 0.1721,-0.11921 0.3022,-0.28613 0.3764,-0.48252 l 0.026,-0.0686 h -0.426 z"
         id="path681"
         style="fill:#3c3c3c;fill-opacity:1;stroke-width:0.00962079" />
      <g
         aria-label="2025"
         id="text682"
         style="font-size:4.44582px;font-family:'DM Serif Display';-inkscape-font-specification:'DM Serif Display';fill:#3c3c3c;stroke-width:2.62548;stroke-linecap:round;stroke-linejoin:round;stroke-miterlimit:100;paint-order:markers fill stroke">
        <path
           d="m 1458.6255,-52.123094 0.031,-0.631306 q 0.1334,-0.07558 0.329,-0.128929 0.2001,-0.05335 0.449,-0.05335 0.3557,0 0.5735,0.102254 0.2179,0.09781 0.3201,0.271195 0.1023,0.173387 0.1023,0.391232 0,0.306761 -0.2979,0.600186 -0.2978,0.288978 -0.8136,0.640198 -0.098,0.07113 -0.2311,0.173387 -0.1334,0.102253 -0.249,0.200062 h 1.6672 v 0.506823 h -1.9562 v -0.373449 q 0.1601,-0.155604 0.3112,-0.306761 0.1556,-0.155604 0.2934,-0.293425 0.3201,-0.32899 0.4757,-0.582402 0.1601,-0.257858 0.1601,-0.551282 0,-0.306761 -0.1112,-0.493486 -0.1111,-0.19117 -0.3334,-0.19117 -0.1378,0 -0.2578,0.07113 -0.1156,0.06669 -0.2046,0.235629 l -0.2134,0.413461 z"
           id="path46" />
        <path
           d="m 1461.7998,-49.984655 q -0.2667,0 -0.5024,-0.151158 -0.2312,-0.151157 -0.3734,-0.475702 -0.1423,-0.324545 -0.1423,-0.844706 0,-0.524607 0.1423,-0.849152 0.1422,-0.32899 0.3734,-0.480148 0.2357,-0.151158 0.5024,-0.151158 0.2667,0 0.4979,0.151158 0.2357,0.151158 0.3779,0.480148 0.1467,0.324545 0.1467,0.849152 0,0.520161 -0.1467,0.844706 -0.1422,0.324545 -0.3779,0.475702 -0.2312,0.151158 -0.4979,0.151158 z m 0,-0.08892 q 0.1111,0 0.1867,-0.0578 0.08,-0.0578 0.129,-0.208953 0.049,-0.151158 0.071,-0.417907 0.022,-0.271195 0.022,-0.697994 0,-0.426799 -0.022,-0.697994 -0.022,-0.275641 -0.071,-0.426799 -0.049,-0.151157 -0.129,-0.208953 -0.076,-0.0578 -0.1867,-0.0578 -0.1111,0 -0.1912,0.0578 -0.075,0.0578 -0.1245,0.208953 -0.049,0.146713 -0.071,0.422353 -0.022,0.271195 -0.022,0.70244 0,0.426799 0.022,0.697994 0.022,0.271195 0.071,0.422353 0.049,0.146712 0.1245,0.204507 0.08,0.0578 0.1912,0.0578 z"
           id="path48" />
        <path
           d="m 1463.2225,-52.123094 0.031,-0.631306 q 0.1334,-0.07558 0.329,-0.128929 0.2,-0.05335 0.449,-0.05335 0.3557,0 0.5735,0.102254 0.2179,0.09781 0.3201,0.271195 0.1023,0.173387 0.1023,0.391232 0,0.306761 -0.2979,0.600186 -0.2979,0.288978 -0.8136,0.640198 -0.098,0.07113 -0.2312,0.173387 -0.1333,0.102253 -0.2489,0.200062 h 1.6671 v 0.506823 h -1.9561 v -0.373449 q 0.16,-0.155604 0.3112,-0.306761 0.1556,-0.155604 0.2934,-0.293425 0.3201,-0.32899 0.4757,-0.582402 0.1601,-0.257858 0.1601,-0.551282 0,-0.306761 -0.1112,-0.493486 -0.1111,-0.19117 -0.3334,-0.19117 -0.1378,0 -0.2579,0.07113 -0.1156,0.06669 -0.2045,0.235629 l -0.2134,0.413461 z"
           id="path50" />
        <path
           d="m 1466.3657,-49.984655 q -0.2579,0 -0.4624,-0.0489 -0.2001,-0.04446 -0.3557,-0.151158 l 0.031,-0.560173 h 0.044 l 0.2045,0.364557 q 0.089,0.16005 0.2179,0.235629 0.1289,0.07113 0.2845,0.07113 0.5113,0 0.5113,-0.778019 0,-0.351219 -0.1379,-0.533498 -0.1333,-0.182279 -0.4001,-0.182279 -0.1245,0 -0.2489,0.03557 -0.1201,0.03112 -0.2223,0.08447 l -0.08,-0.0489 0.098,-1.373759 h 1.5561 v 0.506824 h -1.4671 l -0.062,0.769126 q 0.1023,-0.07558 0.2757,-0.142266 0.1733,-0.06669 0.3645,-0.06669 0.289,0 0.5113,0.102254 0.2267,0.102254 0.3512,0.302316 0.1289,0.195616 0.1289,0.484594 0,0.29787 -0.1511,0.506823 -0.1467,0.208954 -0.4046,0.315654 -0.2579,0.106699 -0.5868,0.106699 z"
           id="path52" />
      </g>
    </g>
  </g>
</svg>
