<?xml version="1.0" encoding="UTF-8" standalone="no"?>
<!-- Created with Inkscape (http://www.inkscape.org/) -->

<svg
   width="63.5mm"
   height="88.899986mm"
   viewBox="0 0 63.5 88.899986"
   version="1.1"
   id="svg1"
   sodipodi:docname="Card_KH.svg"
   xmlns:inkscape="http://www.inkscape.org/namespaces/inkscape"
   xmlns:sodipodi="http://sodipodi.sourceforge.net/DTD/sodipodi-0.dtd"
   xmlns="http://www.w3.org/2000/svg"
   xmlns:svg="http://www.w3.org/2000/svg">
  <sodipodi:namedview
     id="namedview22"
     pagecolor="#ffffff"
     bordercolor="#000000"
     borderopacity="0.25"
     inkscape:showpageshadow="2"
     inkscape:pageopacity="0.0"
     inkscape:pagecheckerboard="0"
     inkscape:deskcolor="#d1d1d1"
     inkscape:document-units="mm" />
  <defs
     id="defs1" />
  <g
     id="layer1"
     transform="translate(-1355.079,-13.554164)">
    <g
       id="g25">
      <path
         id="path551"
         style="fill:#f4efe7;stroke:none;stroke-width:3.81;stroke-linecap:round;paint-order:markers fill stroke"
         d="m 1361.4207,13.554164 h 50.8166 c 3.5133,0 6.3417,2.83208 6.3417,6.34994 v 76.20011 c 0,3.51787 -2.8284,6.349936 -6.3417,6.349936 h -50.8166 c -3.5133,0 -6.3417,-2.832066 -6.3417,-6.349936 v -76.20011 c 0,-3.51786 2.8284,-6.34994 6.3417,-6.34994 z" />
      <g
         aria-label="K"
         id="text551"
         style="font-size:12.973px;line-height:0.9;font-family:'DM Serif Display';-inkscape-font-specification:'DM Serif Display';letter-spacing:0px;word-spacing:0px;stroke:#000000;stroke-width:0.470471;stroke-linecap:round;stroke-linejoin:round;stroke-miterlimit:1.1;paint-order:stroke fill markers">
        <path
           d="m 1361.4467,26.018913 v -0.12973 l 0.2724,-0.103784 q 0.2595,-0.09081 0.3373,-0.246487 0.078,-0.155676 0.078,-0.402163 v -6.784878 q 0,-0.25946 -0.078,-0.415136 -0.078,-0.155676 -0.3373,-0.246487 l -0.2724,-0.103784 v -0.12973 h 3.2302 v 0.12973 l -0.2854,0.116757 q -0.2205,0.07784 -0.2983,0.233514 -0.078,0.155676 -0.078,0.428109 v 6.784878 q 0,0.25946 0.078,0.402163 0.091,0.142703 0.3373,0.233514 l 0.2464,0.103784 v 0.12973 z m 4.787,0 v -0.12973 l 0.1686,-0.05189 q 0.2595,-0.07784 0.2725,-0.25946 0.013,-0.181622 -0.1557,-0.415136 l -2.4908,-3.541629 3.2822,-3.347033 q 0.1816,-0.181622 0.1946,-0.350271 0.026,-0.168649 -0.2465,-0.25946 l -0.2206,-0.07784 v -0.12973 h 1.8941 v 0.12973 l -0.3373,0.103784 q -0.2854,0.09081 -0.4541,0.220541 -0.1686,0.12973 -0.3892,0.350271 l -2.3221,2.374058 3.0486,4.449739 q 0.1946,0.285406 0.3633,0.467028 0.1816,0.181622 0.5059,0.285406 l 0.1816,0.05189 v 0.12973 z"
           id="path24" />
      </g>
      <path
         id="path552"
         style="fill:none;fill-opacity:0;stroke:#333333;stroke-width:0.240883;stroke-linecap:round;stroke-dasharray:none;stroke-opacity:1;paint-order:markers fill stroke"
         d="m 1371.584,28.350424 h 30.49 c 2.108,0 3.805,1.88935 3.805,4.23621 v 50.83505 c 0,2.34686 -1.697,4.23621 -3.805,4.23621 h -30.49 c -2.108,0 -3.805,-1.88935 -3.805,-4.23621 v -50.83505 c 0,-2.34686 1.697,-4.23621 3.805,-4.23621 z" />
      <g
         aria-label="K"
         transform="scale(-1)"
         id="text552"
         style="font-size:12.973px;line-height:0.9;font-family:'DM Serif Display';-inkscape-font-specification:'DM Serif Display';letter-spacing:0px;word-spacing:0px;stroke:#000000;stroke-width:0.470471;stroke-linecap:round;stroke-linejoin:round;stroke-miterlimit:1.1;paint-order:stroke fill markers">
        <path
           d="m -1412.2118,-89.98938 v -0.12973 l 0.2724,-0.103784 q 0.2595,-0.09081 0.3373,-0.246487 0.078,-0.155676 0.078,-0.402163 v -6.784879 q 0,-0.25946 -0.078,-0.415136 -0.078,-0.155676 -0.3373,-0.246487 l -0.2724,-0.103784 v -0.12973 h 3.2303 v 0.12973 l -0.2854,0.116757 q -0.2206,0.07784 -0.2984,0.233514 -0.078,0.155676 -0.078,0.428109 v 6.784879 q 0,0.25946 0.078,0.402163 0.091,0.142703 0.3373,0.233514 l 0.2465,0.103784 v 0.12973 z m 4.7871,0 v -0.12973 l 0.1686,-0.05189 q 0.2595,-0.07784 0.2724,-0.25946 0.013,-0.181622 -0.1556,-0.415136 l -2.4909,-3.541629 3.2822,-3.347034 q 0.1816,-0.181622 0.1946,-0.350271 0.026,-0.168649 -0.2465,-0.25946 l -0.2205,-0.07784 v -0.12973 h 1.894 v 0.12973 l -0.3373,0.103784 q -0.2854,0.09081 -0.454,0.220541 -0.1687,0.12973 -0.3892,0.350271 l -2.3222,2.374059 3.0487,4.449739 q 0.1946,0.285406 0.3632,0.467028 0.1816,0.181622 0.506,0.285406 l 0.1816,0.05189 v 0.12973 z"
           id="path27" />
      </g>
      <path
         id="path553"
         style="fill:#ffbe1a;stroke-width:2.71543;stroke-linecap:round;paint-order:markers fill stroke"
         d="m 1369.049,93.564204 a 5.0944629,5.0944629 0 0 1 -5.0944,5.09447 5.0944629,5.0944629 0 0 1 -5.0945,-5.09447 5.0944629,5.0944629 0 0 1 5.0945,-5.09446 5.0944629,5.0944629 0 0 1 5.0944,5.09446 z" />
      <path
         id="path554"
         style="fill:#ffbe1a;stroke-width:2.71543;stroke-linecap:round;paint-order:markers fill stroke"
         d="m 1414.7692,22.444124 a 5.0944629,5.0944629 0 0 1 -5.0944,5.09447 5.0944629,5.0944629 0 0 1 -5.0945,-5.09447 5.0944629,5.0944629 0 0 1 5.0945,-5.09446 5.0944629,5.0944629 0 0 1 5.0944,5.09446 z" />
      <path
         style="fill:#fff3d4;fill-opacity:1;stroke:#ffbe1a;stroke-width:2.5;stroke-linecap:round;stroke-linejoin:round;stroke-miterlimit:100;stroke-dasharray:none;stroke-opacity:1;paint-order:markers fill stroke"
         d="m 1373.726,53.611944 v -11.92501 l 5.2411,5.24116 7.8618,-10.48234 7.8618,10.48234 5.2412,-5.24116 v 11.92501 z"
         id="path661" />
      <path
         id="circle662"
         style="fill:#ffbe1a;stroke-width:2.06346;stroke-linecap:round;stroke-linejoin:round;stroke-miterlimit:100;paint-order:markers fill stroke"
         d="m 1377.1104,39.664726 a 3.3844523,3.3844523 0 0 1 -3.3844,3.384453 3.3844523,3.3844523 0 0 1 -3.3845,-3.384453 3.3844523,3.3844523 0 0 1 3.3845,-3.384452 3.3844523,3.3844523 0 0 1 3.3844,3.384452 z" />
      <path
         id="circle663"
         style="fill:#ffbe1a;stroke-width:2.06346;stroke-linecap:round;stroke-linejoin:round;stroke-miterlimit:100;paint-order:markers fill stroke"
         d="m 1390.2134,34.336266 a 3.3844523,3.3844523 0 0 1 -3.3844,3.384452 3.3844523,3.3844523 0 0 1 -3.3845,-3.384452 3.3844523,3.3844523 0 0 1 3.3845,-3.384453 3.3844523,3.3844523 0 0 1 3.3844,3.384453 z" />
      <path
         id="circle664"
         style="fill:#ffbe1a;stroke-width:2.06346;stroke-linecap:round;stroke-linejoin:round;stroke-miterlimit:100;paint-order:markers fill stroke"
         d="m 1403.3162,39.664726 a 3.3844523,3.3844523 0 0 1 -3.3844,3.384453 3.3844523,3.3844523 0 0 1 -3.3845,-3.384453 3.3844523,3.3844523 0 0 1 3.3845,-3.384452 3.3844523,3.3844523 0 0 1 3.3844,3.384452 z" />
      <path
         style="fill:#fff3d4;fill-opacity:1;stroke:#ffbe1a;stroke-width:2.5;stroke-linecap:round;stroke-linejoin:round;stroke-miterlimit:100;stroke-dasharray:none;stroke-opacity:1;paint-order:markers fill stroke"
         d="m 1399.9319,62.396374 v 11.92501 l -5.2412,-5.24116 -7.8617,10.48234 -7.8619,-10.48234 -5.2411,5.24116 v -11.92501 z"
         id="path664" />
      <path
         id="circle665"
         style="fill:#ffbe1a;stroke-width:2.06346;stroke-linecap:round;stroke-linejoin:round;stroke-miterlimit:100;paint-order:markers fill stroke"
         transform="scale(-1)"
         d="m -1396.5473,-76.343597 a 3.3844523,3.3844523 0 0 1 -3.3845,3.384452 3.3844523,3.3844523 0 0 1 -3.3844,-3.384452 3.3844523,3.3844523 0 0 1 3.3844,-3.384453 3.3844523,3.3844523 0 0 1 3.3845,3.384453 z" />
      <path
         id="circle666"
         style="fill:#ffbe1a;stroke-width:2.06346;stroke-linecap:round;stroke-linejoin:round;stroke-miterlimit:100;paint-order:markers fill stroke"
         transform="scale(-1)"
         d="m -1383.4445,-81.672058 a 3.3844523,3.3844523 0 0 1 -3.3845,3.384452 3.3844523,3.3844523 0 0 1 -3.3844,-3.384452 3.3844523,3.3844523 0 0 1 3.3844,-3.384452 3.3844523,3.3844523 0 0 1 3.3845,3.384452 z" />
      <path
         id="circle667"
         style="fill:#ffbe1a;stroke-width:2.06346;stroke-linecap:round;stroke-linejoin:round;stroke-miterlimit:100;paint-order:markers fill stroke"
         transform="scale(-1)"
         d="m -1370.3415,-76.343597 a 3.3844523,3.3844523 0 0 1 -3.3845,3.384452 3.3844523,3.3844523 0 0 1 -3.3844,-3.384452 3.3844523,3.3844523 0 0 1 3.3844,-3.384453 3.3844523,3.3844523 0 0 1 3.3845,3.384453 z" />
    </g>
  </g>
</svg>
