<?xml version="1.0" encoding="UTF-8" standalone="no"?>
<!-- Created with Inkscape (http://www.inkscape.org/) -->

<svg
   width="63.5mm"
   height="88.899986mm"
   viewBox="0 0 63.5 88.899986"
   version="1.1"
   id="svg1"
   xmlns="http://www.w3.org/2000/svg"
   xmlns:svg="http://www.w3.org/2000/svg">
  <defs
     id="defs1" />
  <g
     id="layer1"
     transform="translate(-897.879,-140.55415)">
    <g
       id="g32">
      <path
         id="path396"
         style="fill:#f4efe7;stroke:none;stroke-width:3.81;stroke-linecap:round;paint-order:markers fill stroke"
         d="m 904.2207,140.55415 h 50.8166 c 3.5133,0 6.3417,2.83208 6.3417,6.34994 v 76.20011 c 0,3.51787 -2.8284,6.34994 -6.3417,6.34994 h -50.8166 c -3.5133,0 -6.3417,-2.83207 -6.3417,-6.34994 v -76.20011 c 0,-3.51786 2.8284,-6.34994 6.3417,-6.34994 z" />
      <text
         xml:space="preserve"
         style="font-size:12.973px;line-height:0.9;font-family:'DM Serif Display';-inkscape-font-specification:'DM Serif Display';text-align:start;letter-spacing:0px;word-spacing:0px;writing-mode:lr-tb;direction:ltr;text-anchor:start;fill:#000000;fill-opacity:1;stroke:#000000;stroke-width:0.470471;stroke-linecap:round;stroke-linejoin:round;stroke-miterlimit:1.1;stroke-dasharray:none;stroke-opacity:1;paint-order:stroke fill markers"
         x="903.96106"
         y="153.01895"
         id="text396"><tspan
           id="tspan396"
           style="font-size:12.973px;fill:#000000;fill-opacity:1;stroke:#000000;stroke-width:0.470471;stroke-linecap:round;stroke-linejoin:round;stroke-dasharray:none;stroke-opacity:1"
           x="903.96106"
           y="153.01895">7</tspan></text>
      <text
         xml:space="preserve"
         style="font-size:55.5989px;line-height:0.9;font-family:'DM Serif Display';-inkscape-font-specification:'DM Serif Display';text-align:start;letter-spacing:0px;word-spacing:0px;writing-mode:lr-tb;direction:ltr;text-anchor:start;fill:#000000;fill-opacity:1;stroke:#000000;stroke-width:2.032;stroke-linecap:round;stroke-linejoin:round;stroke-miterlimit:1.1;stroke-dasharray:none;stroke-opacity:1;paint-order:stroke fill markers"
         x="915.89612"
         y="202.62901"
         id="text397"><tspan
           id="tspan397"
           style="font-size:55.5989px;fill:#000000;fill-opacity:1;stroke:#000000;stroke-width:2.032;stroke-linecap:round;stroke-linejoin:round;stroke-dasharray:none;stroke-opacity:1"
           x="915.89612"
           y="202.62901">7</tspan></text>
      <path
         id="path398"
         style="fill:none;stroke:#333333;stroke-width:0.240883;stroke-linecap:round;stroke-dasharray:none;stroke-opacity:1;paint-order:markers fill stroke"
         d="m 914.384,155.35041 h 30.49 c 2.108,0 3.805,1.88935 3.805,4.23621 v 50.83505 c 0,2.34686 -1.697,4.23621 -3.805,4.23621 h -30.49 c -2.108,0 -3.805,-1.88935 -3.805,-4.23621 v -50.83505 c 0,-2.34686 1.697,-4.23621 3.805,-4.23621 z" />
      <text
         xml:space="preserve"
         style="font-size:12.973px;line-height:0.9;font-family:'DM Serif Display';-inkscape-font-specification:'DM Serif Display';text-align:start;letter-spacing:0px;word-spacing:0px;writing-mode:lr-tb;direction:ltr;text-anchor:start;fill:#000000;fill-opacity:1;stroke:#000000;stroke-width:0.470471;stroke-linecap:round;stroke-linejoin:round;stroke-miterlimit:1.1;stroke-dasharray:none;stroke-opacity:1;paint-order:stroke fill markers"
         x="-955.297"
         y="-216.98946"
         id="text398"
         transform="scale(-1)"><tspan
           id="tspan398"
           style="font-size:12.973px;fill:#000000;fill-opacity:1;stroke:#000000;stroke-width:0.470471;stroke-linecap:round;stroke-linejoin:round;stroke-dasharray:none;stroke-opacity:1"
           x="-955.297"
           y="-216.98946">7</tspan></text>
      <path
         id="path443"
         style="fill:#7a5de5;fill-opacity:1;stroke-width:3.21417;stroke-linecap:round;paint-order:markers fill stroke"
         d="m 952.4891,154.52399 c 0,0 -3.435,-2.40377 -4.7328,-4.99883 -1.2973,-2.59505 -1.2973,-5.19009 1.7176,-5.19009 3.0152,0 3.0152,2.59504 3.0152,2.59504 0,0 0,-2.59504 3.0152,-2.59504 3.0149,0 3.0149,2.59504 1.7175,5.19009 -1.2977,2.59506 -4.7327,4.99883 -4.7327,4.99883 z" />
      <path
         id="path451"
         style="fill:#7a5de5;fill-opacity:1;stroke-width:3.21417;stroke-linecap:round;paint-order:markers fill stroke"
         d="m 906.7689,215.46973 c 0,0 3.435,2.40377 4.7328,4.99883 1.2973,2.59505 1.2973,5.19009 -1.7176,5.19009 -3.0152,0 -3.0152,-2.59504 -3.0152,-2.59504 0,0 0,2.59504 -3.0152,2.59504 -3.0149,0 -3.0149,-2.59504 -1.7175,-5.19009 1.2977,-2.59506 4.7327,-4.99883 4.7327,-4.99883 z" />
    </g>
  </g>
</svg>
