<?xml version="1.0" encoding="UTF-8" standalone="no"?>
<!-- Created with Inkscape (http://www.inkscape.org/) -->

<svg
   width="63.5mm"
   height="88.899986mm"
   viewBox="0 0 63.5 88.899986"
   version="1.1"
   id="svg1"
   sodipodi:docname="Card_AS.svg"
   xmlns:inkscape="http://www.inkscape.org/namespaces/inkscape"
   xmlns:sodipodi="http://sodipodi.sourceforge.net/DTD/sodipodi-0.dtd"
   xmlns="http://www.w3.org/2000/svg"
   xmlns:svg="http://www.w3.org/2000/svg">
  <sodipodi:namedview
     id="namedview15"
     pagecolor="#ffffff"
     bordercolor="#000000"
     borderopacity="0.25"
     inkscape:showpageshadow="2"
     inkscape:pageopacity="0.0"
     inkscape:pagecheckerboard="0"
     inkscape:deskcolor="#d1d1d1"
     inkscape:document-units="mm" />
  <defs
     id="defs1" />
  <g
     id="layer1"
     transform="translate(-1431.279,-140.55414)">
    <g
       id="g39">
      <path
         id="path571"
         style="fill:#f4efe7;stroke:none;stroke-width:3.81;stroke-linecap:round;paint-order:markers fill stroke"
         d="m 1437.6207,140.55414 h 50.8166 c 3.5133,0 6.3417,2.83208 6.3417,6.34994 v 76.20011 c 0,3.51787 -2.8284,6.34994 -6.3417,6.34994 h -50.8166 c -3.5133,0 -6.3417,-2.83207 -6.3417,-6.34994 v -76.20011 c 0,-3.51786 2.8284,-6.34994 6.3417,-6.34994 z" />
      <g
         aria-label="A"
         id="text571"
         style="font-size:12.973px;line-height:0.9;font-family:'DM Serif Display';-inkscape-font-specification:'DM Serif Display';letter-spacing:0px;word-spacing:0px;stroke:#000000;stroke-width:0.470471;stroke-linecap:round;stroke-linejoin:round;stroke-miterlimit:1.1;paint-order:stroke fill markers">
        <path
           d="m 1437.465,153.01892 v -0.12973 l 0.3243,-0.11676 q 0.2595,-0.10378 0.4022,-0.24648 0.1427,-0.15568 0.2335,-0.42811 l 2.6724,-7.66704 h 1.1027 l 2.6336,7.71893 q 0.1037,0.28541 0.2335,0.44108 0.1297,0.1427 0.4021,0.24649 l 0.1557,0.0519 v 0.12973 h -3.2951 v -0.12973 l 0.1946,-0.0649 q 0.2724,-0.10379 0.3243,-0.28541 0.065,-0.1946 -0.013,-0.45406 l -0.6097,-1.86811 h -2.88 l -0.6227,1.8292 q -0.091,0.2854 -0.065,0.45405 0.039,0.16865 0.3114,0.27243 l 0.2854,0.11676 v 0.12973 z m 1.9719,-3.06163 h 2.7113 l -1.3102,-4.0346 z"
           id="path17" />
      </g>
      <path
         id="path572"
         style="fill:none;stroke:#333333;stroke-width:0.240883;stroke-linecap:round;stroke-dasharray:none;stroke-opacity:1;paint-order:markers fill stroke"
         d="m 1447.784,155.3504 h 30.49 c 2.108,0 3.805,1.88935 3.805,4.23621 v 50.83505 c 0,2.34686 -1.697,4.23621 -3.805,4.23621 h -30.49 c -2.108,0 -3.805,-1.88935 -3.805,-4.23621 v -50.83505 c 0,-2.34686 1.697,-4.23621 3.805,-4.23621 z" />
      <g
         aria-label="A"
         transform="scale(-1)"
         id="text572"
         style="font-size:12.973px;line-height:0.9;font-family:'DM Serif Display';-inkscape-font-specification:'DM Serif Display';letter-spacing:0px;word-spacing:0px;stroke:#000000;stroke-width:0.470471;stroke-linecap:round;stroke-linejoin:round;stroke-miterlimit:1.1;paint-order:stroke fill markers">
        <path
           d="m -1488.5934,-216.9894 v -0.12973 l 0.3244,-0.11675 q 0.2594,-0.10379 0.4021,-0.24649 0.1427,-0.15568 0.2335,-0.42811 l 2.6725,-7.66704 h 1.1027 l 2.6335,7.71893 q 0.1038,0.28541 0.2335,0.44109 0.1297,0.1427 0.4022,0.24648 l 0.1557,0.0519 v 0.12973 h -3.2952 v -0.12973 l 0.1946,-0.0649 q 0.2724,-0.10378 0.3243,-0.28541 0.065,-0.19459 -0.013,-0.45405 l -0.6098,-1.86811 h -2.88 l -0.6227,1.82919 q -0.091,0.28541 -0.065,0.45405 0.039,0.16865 0.3113,0.27244 l 0.2854,0.11675 v 0.12973 z m 1.9719,-3.06162 h 2.7114 l -1.3103,-4.03461 z"
           id="path20" />
      </g>
      <path
         id="path575"
         style="fill:#7a5de5;fill-opacity:1;stroke-width:3.21417;stroke-linecap:round;paint-order:markers fill stroke"
         d="m 1485.8891,154.53856 c 0,0 -3.435,-2.40377 -4.7328,-4.99883 -1.2973,-2.59505 -1.2973,-5.19009 1.7176,-5.19009 3.0152,0 3.0152,2.59504 3.0152,2.59504 0,0 0,-2.59504 3.0152,-2.59504 3.0149,0 3.0149,2.59504 1.7175,5.19009 -1.2977,2.59506 -4.7327,4.99883 -4.7327,4.99883 z" />
      <path
         id="path576"
         style="fill:#7a5de5;fill-opacity:1;stroke-width:3.21417;stroke-linecap:round;paint-order:markers fill stroke"
         d="m 1440.1689,215.46973 c 0,0 3.435,2.40377 4.7328,4.99883 1.2973,2.59505 1.2973,5.19009 -1.7176,5.19009 -3.0152,0 -3.0152,-2.59504 -3.0152,-2.59504 0,0 0,2.59504 -3.0152,2.59504 -3.0149,0 -3.0149,-2.59504 -1.7175,-5.19009 1.2977,-2.59506 4.7327,-4.99883 4.7327,-4.99883 z" />
      <path
         id="path654"
         style="fill:#7a5de5;fill-opacity:1;stroke-width:3.21418;stroke-linecap:round;paint-order:markers fill stroke"
         d="m 1463.029,199.24184 c 0,0 -9.5999,-6.71795 -13.227,-13.9705 -3.6257,-7.25252 -3.6257,-14.50503 4.8002,-14.50503 8.4268,0 8.4268,7.25251 8.4268,7.25251 0,0 0,-7.25251 8.4268,-7.25251 8.4258,0 8.4258,7.25251 4.7999,14.50503 -3.6267,7.25255 -13.2267,13.9705 -13.2267,13.9705 z" />
    </g>
  </g>
</svg>
