<?xml version="1.0" encoding="UTF-8" standalone="no"?>
<!-- Created with Inkscape (http://www.inkscape.org/) -->

<svg
   width="63.5mm"
   height="88.899986mm"
   viewBox="0 0 63.5 88.899986"
   version="1.1"
   id="svg1"
   sodipodi:docname="Card_BS.svg"
   xmlns:inkscape="http://www.inkscape.org/namespaces/inkscape"
   xmlns:sodipodi="http://sodipodi.sourceforge.net/DTD/sodipodi-0.dtd"
   xmlns="http://www.w3.org/2000/svg"
   xmlns:svg="http://www.w3.org/2000/svg">
  <sodipodi:namedview
     id="namedview26"
     pagecolor="#ffffff"
     bordercolor="#000000"
     borderopacity="0.25"
     inkscape:showpageshadow="2"
     inkscape:pageopacity="0.0"
     inkscape:pagecheckerboard="0"
     inkscape:deskcolor="#d1d1d1"
     inkscape:document-units="mm" />
  <defs
     id="defs1" />
  <g
     id="layer1"
     transform="translate(-1202.679,-140.55414)">
    <g
       id="g36">
      <path
         id="path483"
         style="fill:#f4efe7;stroke:none;stroke-width:3.81;stroke-linecap:round;paint-order:markers fill stroke"
         d="m 1209.0207,140.55414 h 50.8166 c 3.5133,0 6.3417,2.83208 6.3417,6.34994 v 76.20011 c 0,3.51787 -2.8284,6.34994 -6.3417,6.34994 h -50.8166 c -3.5133,0 -6.3417,-2.83207 -6.3417,-6.34994 v -76.20011 c 0,-3.51786 2.8284,-6.34994 6.3417,-6.34994 z" />
      <g
         aria-label="B"
         id="text483"
         style="font-size:12.973px;line-height:0.9;font-family:'DM Serif Display';-inkscape-font-specification:'DM Serif Display';letter-spacing:0px;word-spacing:0px;stroke:#000000;stroke-width:0.470471;stroke-linecap:round;stroke-linejoin:round;stroke-miterlimit:1.1;paint-order:stroke fill markers">
        <path
           d="m 1209.0465,153.01892 v -0.12973 l 0.2335,-0.0908 q 0.2595,-0.10378 0.3503,-0.25946 0.1038,-0.15568 0.1038,-0.41514 v -6.7719 q 0,-0.27243 -0.1038,-0.42811 -0.091,-0.15568 -0.3503,-0.24649 l -0.2335,-0.0908 v -0.12973 h 3.7233 q 1.5827,0 2.2832,0.58379 0.7006,0.57081 0.7006,1.45297 0,0.66163 -0.519,1.20649 -0.5059,0.53189 -1.7513,0.75244 1.427,0.15567 2.0886,0.75243 0.6617,0.58378 0.6617,1.42703 0,0.41513 -0.1817,0.84324 -0.1816,0.41514 -0.6227,0.76541 -0.4281,0.35027 -1.1805,0.57081 -0.7524,0.20757 -1.907,0.20757 z m 2.6076,-4.57947 h 0.5578 q 0.8692,0 1.2454,-0.40216 0.3892,-0.40216 0.3892,-1.40108 0,-1.03784 -0.3502,-1.47893 -0.3503,-0.44108 -1.1417,-0.44108 h -0.7005 z m 0,4.32001 h 0.6486 q 0.973,0 1.44,-0.51892 0.48,-0.51892 0.48,-1.62162 0,-1.03784 -0.454,-1.47893 -0.4541,-0.44108 -1.4919,-0.44108 h -0.6227 z"
           id="path28" />
      </g>
      <path
         id="path484"
         style="fill:none;stroke:#333333;stroke-width:0.240883;stroke-linecap:round;stroke-dasharray:none;stroke-opacity:1;paint-order:markers fill stroke"
         d="m 1219.184,155.3504 h 30.49 c 2.108,0 3.805,1.88935 3.805,4.23621 v 50.83505 c 0,2.34686 -1.697,4.23621 -3.805,4.23621 h -30.49 c -2.108,0 -3.805,-1.88935 -3.805,-4.23621 v -50.83505 c 0,-2.34686 1.697,-4.23621 3.805,-4.23621 z" />
      <g
         aria-label="B"
         transform="scale(-1)"
         id="text484"
         style="font-size:12.973px;line-height:0.9;font-family:'DM Serif Display';-inkscape-font-specification:'DM Serif Display';letter-spacing:0px;word-spacing:0px;stroke:#000000;stroke-width:0.470471;stroke-linecap:round;stroke-linejoin:round;stroke-miterlimit:1.1;paint-order:stroke fill markers">
        <path
           d="m -1259.8116,-216.9894 v -0.12973 l 0.2335,-0.0908 q 0.2594,-0.10378 0.3502,-0.25946 0.1038,-0.15567 0.1038,-0.41513 v -6.77191 q 0,-0.27243 -0.1038,-0.42811 -0.091,-0.15567 -0.3502,-0.24648 l -0.2335,-0.0908 v -0.12973 h 3.7232 q 1.5827,0 2.2833,0.58378 0.7005,0.57081 0.7005,1.45298 0,0.66162 -0.5189,1.20649 -0.506,0.53189 -1.7514,0.75243 1.4271,0.15568 2.0887,0.75243 0.6616,0.58379 0.6616,1.42703 0,0.41514 -0.1816,0.84325 -0.1816,0.41513 -0.6227,0.7654 -0.4281,0.35028 -1.1806,0.57082 -0.7524,0.20756 -1.907,0.20756 z m 2.6075,-4.57946 h 0.5579 q 0.8692,0 1.2454,-0.40217 0.3892,-0.40216 0.3892,-1.40108 0,-1.03784 -0.3503,-1.47892 -0.3503,-0.44108 -1.1416,-0.44108 h -0.7006 z m 0,4.32 h 0.6487 q 0.973,0 1.44,-0.51892 0.48,-0.51892 0.48,-1.62162 0,-1.03784 -0.4541,-1.47892 -0.454,-0.44108 -1.4919,-0.44108 h -0.6227 z"
           id="path31" />
      </g>
      <path
         id="path487"
         style="fill:#7a5de5;fill-opacity:1;stroke-width:3.21417;stroke-linecap:round;paint-order:markers fill stroke"
         d="m 1257.2891,154.53856 c 0,0 -3.435,-2.40377 -4.7328,-4.99883 -1.2973,-2.59505 -1.2973,-5.19009 1.7176,-5.19009 3.0152,0 3.0152,2.59504 3.0152,2.59504 0,0 0,-2.59504 3.0152,-2.59504 3.0149,0 3.0149,2.59504 1.7175,5.19009 -1.2977,2.59506 -4.7327,4.99883 -4.7327,4.99883 z" />
      <path
         id="path488"
         style="fill:#7a5de5;fill-opacity:1;stroke-width:3.21417;stroke-linecap:round;paint-order:markers fill stroke"
         d="m 1211.5689,215.46973 c 0,0 3.435,2.40377 4.7328,4.99883 1.2973,2.59505 1.2973,5.19009 -1.7176,5.19009 -3.0152,0 -3.0152,-2.59504 -3.0152,-2.59504 0,0 0,2.59504 -3.0152,2.59504 -3.0149,0 -3.0149,-2.59504 -1.7175,-5.19009 1.2977,-2.59506 4.7327,-4.99883 4.7327,-4.99883 z" />
      <path
         style="fill:#f66065;fill-opacity:1;stroke:none;stroke-width:0.716832;stroke-linecap:square;paint-order:markers fill stroke"
         d="m 1224.3324,180.71115 c -12.1154,-4.58595 -4.8171,-20.47497 5.7126,-20.47497 10.5775,0 10.112,6.28056 16.5819,8.07544 5.1968,1.44169 6.3909,9.354 -1.2164,11.26298 0,0 -16.0911,3.02424 -21.0781,1.13655 z"
         id="path511" />
      <path
         id="path512"
         style="fill:#000000;fill-opacity:0.295445;stroke:none;stroke-width:0.351399;stroke-linecap:square;stroke-opacity:1;paint-order:markers fill stroke"
         d="m 1235.1565,165.14656 c 0,0 -7.9346,0.26342 -11.4666,5.07506 -1.5348,2.09071 -1.3942,4.08472 -0.8333,5.29177 0.5273,1.13499 1.5139,1.84084 2.5832,2.1454 0.4432,1.26954 1.0291,2.10864 1.1109,2.19339 0.1717,0.17772 1.5894,0.61907 1.8213,0.41865 0.1088,-0.0939 -0.5708,-1.06472 -1.1708,-2.46758 1.109,-0.13471 2.0812,-0.70546 2.4706,-1.68306 0.7087,-1.77963 -0.8183,-3.26181 0.4416,-5.95233 1.3968,-2.98298 5.0431,-5.0213 5.0431,-5.0213 z" />
      <path
         style="fill:#edfcf8;fill-opacity:1;stroke:none;stroke-width:0.351399;stroke-linecap:square;stroke-opacity:1;paint-order:markers fill stroke"
         d="m 1222.2938,170.85107 c 2.7789,-5.28255 10.5864,-6.72051 10.5864,-6.72051 0,0 -3.3033,2.55674 -4.2419,5.71399 -0.8466,2.84771 0.8834,4.08685 0.4466,5.95196 -0.5902,2.52029 -5.0336,3.12991 -6.83,0.41142 -0.7336,-1.11044 -1.1685,-3.06155 0.039,-5.35686 z"
         id="path513" />
      <path
         style="fill:#898877;fill-opacity:1;stroke:none;stroke-width:0.351399;stroke-linecap:square;stroke-opacity:1;paint-order:markers fill stroke"
         d="m 1226.6528,179.91677 c 0.1962,0.15027 1.6637,0.37643 1.8633,0.14383 0.2059,-0.23997 -3.4931,-3.06614 -2.7778,-7.43933 0.6029,-3.68637 4.8657,-7.1595 4.7835,-7.24277 -0.099,-0.0997 -4.874,2.37932 -5.9316,7.57528 -0.9005,4.42453 1.8553,6.80419 2.0626,6.96299 z"
         id="path514" />
      <path
         style="fill:#8f8f85;fill-opacity:1;stroke:none;stroke-width:0.351399;stroke-linecap:square;stroke-opacity:1;paint-order:markers fill stroke"
         d="m 1226.5523,179.95031 c 0.1961,0.15027 1.6637,0.37643 1.8632,0.14382 0.206,-0.23996 -4.0011,-4.09526 -2.7443,-8.34458 1.4077,-4.75925 5.5364,-6.60628 5.4541,-6.68955 -0.098,-0.0997 -5.1421,1.69199 -6.7027,6.95501 -1.2835,4.32897 1.9224,7.7765 2.1297,7.9353 z"
         id="path515" />
      <path
         id="rect515"
         style="fill:#4a2e2d;stroke-width:0.716843;stroke-linecap:square;paint-order:markers fill stroke"
         d="m 1222.1762,178.74854 h 21.995 c 0.7429,0 1.3411,0.59813 1.3411,1.34111 v 0.40233 c 0,0.74298 -0.5982,1.34111 -1.3411,1.34111 h -21.995 c -0.743,0 -1.3411,-0.59813 -1.3411,-1.34111 v -0.40233 c 0,-0.74298 0.5981,-1.34111 1.3411,-1.34111 z" />
      <path
         style="fill:#f66065;fill-opacity:1;stroke:none;stroke-width:0.716832;stroke-linecap:square;paint-order:markers fill stroke"
         d="m 1244.5256,189.29713 c 12.1154,4.58595 4.8171,20.47497 -5.7126,20.47497 -10.5775,0 -10.112,-6.28056 -16.5819,-8.07544 -5.1968,-1.44169 -6.3909,-9.354 1.2164,-11.26298 0,0 16.0911,-3.02424 21.0781,-1.13655 z"
         id="path516" />
      <path
         id="path517"
         style="fill:#000000;fill-opacity:0.295445;stroke:none;stroke-width:0.351399;stroke-linecap:square;stroke-opacity:1;paint-order:markers fill stroke"
         d="m 1233.7015,204.86172 c 0,0 7.9346,-0.26342 11.4666,-5.07506 1.5348,-2.09071 1.3942,-4.08472 0.8333,-5.29177 -0.5273,-1.13499 -1.5139,-1.84084 -2.5832,-2.1454 -0.4432,-1.26954 -1.0291,-2.10864 -1.1109,-2.19339 -0.1717,-0.17772 -1.5894,-0.61907 -1.8213,-0.41865 -0.1088,0.0939 0.5708,1.06472 1.1708,2.46758 -1.109,0.13471 -2.0812,0.70546 -2.4706,1.68306 -0.7087,1.77963 0.8183,3.26181 -0.4416,5.95233 -1.3968,2.98298 -5.0431,5.0213 -5.0431,5.0213 z" />
      <path
         style="fill:#edfcf8;fill-opacity:1;stroke:none;stroke-width:0.351399;stroke-linecap:square;stroke-opacity:1;paint-order:markers fill stroke"
         d="m 1246.5642,199.15721 c -2.7789,5.28255 -10.5864,6.72051 -10.5864,6.72051 0,0 3.3033,-2.55674 4.2419,-5.71399 0.8466,-2.84771 -0.8834,-4.08685 -0.4466,-5.95196 0.5902,-2.52029 5.0336,-3.12991 6.83,-0.41142 0.7336,1.11044 1.1685,3.06155 -0.039,5.35686 z"
         id="path518" />
      <path
         style="fill:#898877;fill-opacity:1;stroke:none;stroke-width:0.351399;stroke-linecap:square;stroke-opacity:1;paint-order:markers fill stroke"
         d="m 1242.2052,190.09151 c -0.1962,-0.15027 -1.6637,-0.37643 -1.8633,-0.14383 -0.2059,0.23997 3.4931,3.06614 2.7778,7.43933 -0.6029,3.68637 -4.8657,7.1595 -4.7835,7.24277 0.098,0.0997 4.874,-2.37932 5.9316,-7.57528 0.9005,-4.42453 -1.8553,-6.80419 -2.0626,-6.96299 z"
         id="path519" />
      <path
         style="fill:#8f8f85;fill-opacity:1;stroke:none;stroke-width:0.351399;stroke-linecap:square;stroke-opacity:1;paint-order:markers fill stroke"
         d="m 1242.3057,190.05797 c -0.1961,-0.15027 -1.6637,-0.37643 -1.8632,-0.14382 -0.206,0.23996 4.0011,4.09526 2.7443,8.34458 -1.4077,4.75925 -5.5364,6.60628 -5.4541,6.68955 0.098,0.0997 5.1421,-1.69199 6.7027,-6.95501 1.2835,-4.32897 -1.9224,-7.7765 -2.1297,-7.9353 z"
         id="path520" />
      <path
         id="rect520"
         style="fill:#4a2e2d;stroke-width:0.716843;stroke-linecap:square;paint-order:markers fill stroke"
         transform="scale(-1)"
         d="m -1246.6817,-191.25978 h 21.9949 c 0.743,0 1.3412,0.59814 1.3412,1.34111 v 0.40234 c 0,0.74297 -0.5982,1.34111 -1.3412,1.34111 h -21.9949 c -0.743,0 -1.3411,-0.59814 -1.3411,-1.34111 v -0.40234 c 0,-0.74297 0.5981,-1.34111 1.3411,-1.34111 z" />
    </g>
  </g>
</svg>
