<?xml version="1.0" encoding="UTF-8" standalone="no"?>
<!-- Created with Inkscape (http://www.inkscape.org/) -->

<svg
   width="63.5mm"
   height="88.899986mm"
   viewBox="0 0 63.5 88.899986"
   version="1.1"
   id="svg1"
   sodipodi:docname="Card_5C.svg"
   xmlns:inkscape="http://www.inkscape.org/namespaces/inkscape"
   xmlns:sodipodi="http://sodipodi.sourceforge.net/DTD/sodipodi-0.dtd"
   xmlns="http://www.w3.org/2000/svg"
   xmlns:svg="http://www.w3.org/2000/svg">
  <sodipodi:namedview
     id="namedview16"
     pagecolor="#ffffff"
     bordercolor="#000000"
     borderopacity="0.25"
     inkscape:showpageshadow="2"
     inkscape:pageopacity="0.0"
     inkscape:pagecheckerboard="0"
     inkscape:deskcolor="#d1d1d1"
     inkscape:document-units="mm" />
  <defs
     id="defs1" />
  <g
     id="layer1"
     transform="translate(-745.479,113.44583)">
    <g
       id="g4">
      <path
         id="path32"
         style="fill:#f4efe7;stroke:none;stroke-width:3.81;stroke-linecap:round;paint-order:markers fill stroke"
         d="m 751.8207,-113.44583 h 50.8166 c 3.5133,0 6.3417,2.83208 6.3417,6.34994 v 76.20011 c 0,3.51787 -2.8284,6.34994 -6.3417,6.34994 h -50.8166 c -3.5133,0 -6.3417,-2.83207 -6.3417,-6.34994 v -76.20011 c 0,-3.51786 2.8284,-6.34994 6.3417,-6.34994 z" />
      <path
         id="path33"
         style="fill:#7a5de5;fill-opacity:1;stroke-width:1.77626;stroke-linecap:round;paint-order:markers fill stroke"
         d="m 803.474,-109.36399 c -0.3622,-0.36236 -0.9454,-0.36233 -1.308,-1e-5 l -0.7114,0.71143 -0.7116,0.71163 -0.6539,0.654 -1.3656,-1.36566 -0.7114,-0.7114 c -0.3625,-0.36231 -0.9458,-0.36236 -1.3082,-2e-5 l -1.4231,1.42307 c -0.3623,0.36231 -0.3623,0.94571 0,1.30801 l 1.4231,1.42306 0.6541,0.65402 -1.3657,1.36565 -0.7114,0.71142 c -0.3623,0.36232 -0.3623,0.94566 0,1.30802 l 1.4232,1.42303 c 0.3622,0.36232 0.9455,0.36235 1.308,10e-6 l 1.423,-1.42304 0.6541,-0.65401 0.6538,0.65399 0.7117,0.71161 0.7115,0.71145 c 0.3624,0.36231 0.9457,0.36229 1.308,-2e-5 l 1.4231,-1.42304 c 0.3624,-0.36237 0.3624,-0.94569 0,-1.30799 l -0.7114,-0.71144 -0.7117,-0.71165 -0.6541,-0.65398 0.6541,-0.65401 0.7117,-0.71162 0.7114,-0.71144 c 0.3624,-0.36232 0.3624,-0.94572 0,-1.30802 z" />
      <path
         id="path36"
         style="fill:#7a5de5;fill-opacity:1;stroke-width:1.77626;stroke-linecap:round;paint-order:markers fill stroke"
         d="m 757.7538,-38.24391 c -0.3622,-0.36236 -0.9454,-0.36233 -1.308,-1e-5 l -0.7114,0.71143 -0.7116,0.71163 -0.6539,0.654 -1.3656,-1.36566 -0.7114,-0.7114 c -0.3625,-0.36231 -0.9458,-0.36236 -1.3082,-2e-5 l -1.4231,1.42307 c -0.3623,0.36231 -0.3623,0.94571 0,1.30801 l 1.4231,1.42306 0.6541,0.65402 -1.3657,1.36565 -0.7114,0.71142 c -0.3623,0.36232 -0.3623,0.94566 0,1.30802 l 1.4232,1.42303 c 0.3622,0.36232 0.9455,0.36235 1.308,10e-6 l 1.423,-1.42304 0.6541,-0.65401 0.6538,0.65399 0.7117,0.71161 0.7115,0.71145 c 0.3624,0.36231 0.9457,0.36229 1.308,-2e-5 l 1.4231,-1.42304 c 0.3624,-0.36237 0.3624,-0.94569 0,-1.30799 l -0.7114,-0.71144 -0.7117,-0.71165 -0.6541,-0.65398 0.6541,-0.65401 0.7117,-0.71162 0.7114,-0.71144 c 0.3624,-0.36232 0.3624,-0.94572 0,-1.30802 z" />
      <g
         aria-label="5"
         id="text36"
         style="font-size:12.973px;line-height:0.9;font-family:'DM Serif Display';-inkscape-font-specification:'DM Serif Display';letter-spacing:0px;word-spacing:0px;stroke:#000000;stroke-width:0.470471;stroke-linecap:round;stroke-linejoin:round;stroke-miterlimit:1.1;paint-order:stroke fill markers">
        <path
           d="m 754.72639,-100.78645 q -0.75244,0 -1.3492,-0.1427 -0.58378,-0.12973 -1.03784,-0.44108 l 0.0908,-1.6346 h 0.12973 l 0.59675,1.06379 q 0.25946,0.46703 0.63568,0.68757 0.37622,0.20756 0.83027,0.20756 1.4919,0 1.4919,-2.27027 0,-1.02487 -0.40217,-1.55676 -0.38919,-0.53189 -1.16757,-0.53189 -0.36324,0 -0.72648,0.10378 -0.35027,0.0908 -0.64865,0.24649 l -0.23352,-0.14271 0.28541,-4.00865 h 4.54055 v 1.47892 h -4.28109 l -0.18162,2.24433 q 0.29838,-0.22054 0.80432,-0.41514 0.50595,-0.19459 1.06379,-0.19459 0.84324,0 1.49189,0.29838 0.66163,0.29838 1.02487,0.88216 0.37622,0.57081 0.37622,1.41406 0,0.86919 -0.44109,1.47892 -0.4281,0.60973 -1.18054,0.92108 -0.75243,0.31135 -1.71243,0.31135 z"
           id="path18" />
      </g>
      <path
         id="path37"
         style="fill:none;fill-opacity:0;stroke:#333333;stroke-width:0.240883;stroke-linecap:round;stroke-dasharray:none;stroke-opacity:1;paint-order:markers fill stroke"
         d="m 761.984,-98.64957 h 30.49 c 2.108,0 3.805,1.88935 3.805,4.23621 v 50.83505 c 0,2.34686 -1.697,4.23621 -3.805,4.23621 h -30.49 c -2.108,0 -3.805,-1.88935 -3.805,-4.23621 v -50.83505 c 0,-2.34686 1.697,-4.23621 3.805,-4.23621 z" />
      <g
         aria-label="5"
         id="text40"
         style="font-size:55.5989px;line-height:0.9;font-family:'DM Serif Display';-inkscape-font-specification:'DM Serif Display';letter-spacing:0px;word-spacing:0px;stroke:#000000;stroke-width:2.032;stroke-linecap:round;stroke-linejoin:round;stroke-miterlimit:1.1;paint-order:stroke fill markers">
        <path
           d="m 775.19962,-50.953992 q -3.22474,0 -5.78229,-0.611588 -2.50195,-0.555989 -4.44791,-1.890362 l 0.38919,-7.005462 h 0.55599 l 2.55755,4.55911 q 1.11198,2.00156 2.72434,2.946742 1.61237,0.889582 3.55833,0.889582 6.39388,0 6.39388,-9.729807 0,-4.392313 -1.72357,-6.671868 -1.66797,-2.279555 -5.0039,-2.279555 -1.55677,0 -3.11354,0.444791 -1.50117,0.389192 -2.77994,1.056379 l -1.00078,-0.611588 1.22317,-17.18006 h 19.45962 v 6.338275 h -18.34764 l -0.77838,9.618609 q 1.27877,-0.945181 3.44713,-1.779164 2.16836,-0.833984 4.55911,-0.833984 3.61393,0 6.39387,1.278775 2.83555,1.278775 4.39231,3.780725 1.61237,2.446352 1.61237,6.06028 0,3.725126 -1.89036,6.338275 -1.83476,2.613148 -5.0595,3.947522 -3.22474,1.334373 -7.33905,1.334373 z"
           id="path21" />
      </g>
      <g
         aria-label="5"
         transform="scale(-1)"
         id="text44"
         style="font-size:12.973px;line-height:0.9;font-family:'DM Serif Display';-inkscape-font-specification:'DM Serif Display';letter-spacing:0px;word-spacing:0px;stroke:#000000;stroke-width:0.470471;stroke-linecap:round;stroke-linejoin:round;stroke-miterlimit:1.1;paint-order:stroke fill markers">
        <path
           d="m -799.7315,37.205196 q -0.75243,0 -1.34919,-0.142703 -0.58379,-0.12973 -1.03784,-0.441082 l 0.0908,-1.634598 h 0.12973 l 0.59676,1.063786 q 0.25946,0.467028 0.63567,0.687569 0.37622,0.207568 0.83028,0.207568 1.49189,0 1.49189,-2.270275 0,-1.024867 -0.40216,-1.55676 -0.38919,-0.531893 -1.16757,-0.531893 -0.36325,0 -0.72649,0.103784 -0.35027,0.09081 -0.64865,0.246487 l -0.23351,-0.142703 0.2854,-4.008657 h 4.54055 v 1.478922 h -4.28109 l -0.18162,2.244329 q 0.29838,-0.220541 0.80433,-0.415136 0.50594,-0.194595 1.06378,-0.194595 0.84325,0 1.4919,0.298379 0.66162,0.298379 1.02486,0.882164 0.37622,0.570812 0.37622,1.414057 0,0.869191 -0.44108,1.478922 -0.42811,0.609731 -1.18054,0.921083 -0.75244,0.311352 -1.71244,0.311352 z"
           id="path24" />
      </g>
    </g>
  </g>
</svg>
