<?xml version="1.0" encoding="UTF-8" standalone="no"?>
<!-- Created with Inkscape (http://www.inkscape.org/) -->

<svg
   width="63.5mm"
   height="88.899986mm"
   viewBox="0 0 63.5 88.899986"
   version="1.1"
   id="svg1"
   xmlns="http://www.w3.org/2000/svg"
   xmlns:svg="http://www.w3.org/2000/svg">
  <defs
     id="defs1" />
  <g
     id="layer1"
     transform="translate(-1278.879,113.44584)">
    <g
       id="g11">
      <path
         id="path531"
         style="fill:#f4efe7;stroke:none;stroke-width:3.81;stroke-linecap:round;paint-order:markers fill stroke"
         d="m 1285.2207,-113.44584 h 50.8166 c 3.5133,0 6.3417,2.83208 6.3417,6.34994 v 76.20011 c 0,3.51787 -2.8284,6.34994 -6.3417,6.34994 h -50.8166 c -3.5133,0 -6.3417,-2.83207 -6.3417,-6.34994 v -76.20011 c 0,-3.51786 2.8284,-6.34994 6.3417,-6.34994 z" />
      <path
         id="path532"
         style="fill:#7a5de5;fill-opacity:1;stroke-width:1.77626;stroke-linecap:round;paint-order:markers fill stroke"
         d="m 1336.874,-109.364 c -0.3622,-0.36236 -0.9454,-0.36233 -1.308,-10e-6 l -0.7114,0.71143 -0.7116,0.71163 -0.6539,0.654 -1.3656,-1.36566 -0.7114,-0.7114 c -0.3625,-0.36231 -0.9458,-0.36236 -1.3082,-2e-5 l -1.4231,1.42307 c -0.3623,0.36231 -0.3623,0.94571 0,1.30801 l 1.4231,1.42306 0.6541,0.65402 -1.3657,1.36565 -0.7114,0.71142 c -0.3623,0.36232 -0.3623,0.94566 0,1.30802 l 1.4232,1.42303 c 0.3622,0.36232 0.9455,0.36235 1.308,1e-5 l 1.423,-1.42304 0.6541,-0.65401 0.6538,0.65399 0.7117,0.71161 0.7115,0.71145 c 0.3624,0.36231 0.9457,0.36229 1.308,-2e-5 l 1.4231,-1.42304 c 0.3624,-0.36237 0.3624,-0.94569 0,-1.30799 l -0.7114,-0.71144 -0.7117,-0.71165 -0.6541,-0.65398 0.6541,-0.65401 0.7117,-0.71162 0.7114,-0.71144 c 0.3624,-0.36232 0.3624,-0.94572 0,-1.30802 z" />
      <path
         id="path533"
         style="fill:#7a5de5;fill-opacity:1;stroke-width:1.77626;stroke-linecap:round;paint-order:markers fill stroke"
         d="m 1291.1538,-38.24392 c -0.3622,-0.36236 -0.9454,-0.36233 -1.308,-10e-6 l -0.7114,0.71143 -0.7116,0.71163 -0.6539,0.654 -1.3656,-1.36566 -0.7114,-0.7114 c -0.3625,-0.36231 -0.9458,-0.36236 -1.3082,-2e-5 l -1.4231,1.42307 c -0.3623,0.36231 -0.3623,0.94571 0,1.30801 l 1.4231,1.42306 0.6541,0.65402 -1.3657,1.36565 -0.7114,0.71142 c -0.3623,0.36232 -0.3623,0.94566 0,1.30802 l 1.4232,1.42303 c 0.3622,0.36232 0.9455,0.36235 1.308,10e-6 l 1.423,-1.42304 0.6541,-0.65401 0.6538,0.65399 0.7117,0.71161 0.7115,0.71145 c 0.3624,0.36231 0.9457,0.36229 1.308,-2e-5 l 1.4231,-1.42304 c 0.3624,-0.36237 0.3624,-0.94569 0,-1.30799 l -0.7114,-0.71144 -0.7117,-0.71165 -0.6541,-0.65398 0.6541,-0.65401 0.7117,-0.71162 0.7114,-0.71144 c 0.3624,-0.36232 0.3624,-0.94572 0,-1.30802 z" />
      <text
         xml:space="preserve"
         style="font-size:12.973px;line-height:0.9;font-family:'DM Serif Display';-inkscape-font-specification:'DM Serif Display';text-align:start;letter-spacing:0px;word-spacing:0px;writing-mode:lr-tb;direction:ltr;text-anchor:start;fill:#000000;fill-opacity:1;stroke:#000000;stroke-width:0.470471;stroke-linecap:round;stroke-linejoin:round;stroke-miterlimit:1.1;stroke-dasharray:none;stroke-opacity:1;paint-order:stroke fill markers"
         x="1284.9613"
         y="-100.98107"
         id="text533"><tspan
           id="tspan533"
           style="font-size:12.973px;fill:#000000;fill-opacity:1;stroke:#000000;stroke-width:0.470471;stroke-linecap:round;stroke-linejoin:round;stroke-dasharray:none;stroke-opacity:1"
           x="1284.9613"
           y="-100.98107">Q</tspan></text>
      <path
         id="path534"
         style="fill:none;fill-opacity:0;stroke:#333333;stroke-width:0.240883;stroke-linecap:round;stroke-dasharray:none;stroke-opacity:1;paint-order:markers fill stroke"
         d="m 1295.384,-98.64958 h 30.49 c 2.108,0 3.805,1.88935 3.805,4.23621 v 50.83505 c 0,2.34686 -1.697,4.23621 -3.805,4.23621 h -30.49 c -2.108,0 -3.805,-1.88935 -3.805,-4.23621 v -50.83505 c 0,-2.34686 1.697,-4.23621 3.805,-4.23621 z" />
      <text
         xml:space="preserve"
         style="font-size:12.973px;line-height:0.9;font-family:'DM Serif Display';-inkscape-font-specification:'DM Serif Display';text-align:start;letter-spacing:0px;word-spacing:0px;writing-mode:lr-tb;direction:ltr;text-anchor:start;fill:#000000;fill-opacity:1;stroke:#000000;stroke-width:0.470471;stroke-linecap:round;stroke-linejoin:round;stroke-miterlimit:1.1;stroke-dasharray:none;stroke-opacity:1;paint-order:stroke fill markers"
         x="-1336.2972"
         y="37.010601"
         id="text534"
         transform="scale(-1)"><tspan
           id="tspan534"
           style="font-size:12.973px;fill:#000000;fill-opacity:1;stroke:#000000;stroke-width:0.470471;stroke-linecap:round;stroke-linejoin:round;stroke-dasharray:none;stroke-opacity:1"
           x="-1336.2972"
           y="37.010601">Q</tspan></text>
      <rect
         style="fill:#fff3d4;fill-opacity:1;stroke:none;stroke-width:2.49688;stroke-linecap:round;stroke-linejoin:round;stroke-miterlimit:100;stroke-dasharray:none;stroke-opacity:1;paint-order:markers fill stroke"
         id="rect578"
         width="20.316551"
         height="2.873827"
         x="1300.4708"
         y="-76.327431" />
      <path
         style="fill:#fff3d4;fill-opacity:1;stroke:#ffbe1a;stroke-width:2.5;stroke-linecap:round;stroke-dasharray:none;stroke-opacity:1;paint-order:markers fill stroke"
         d="m 1320.7873,-73.45363 c 0,0 5.0792,-4.99797 5.0792,-9.99594 0,-4.99796 -10.1583,0 -10.1583,0"
         id="path579" />
      <path
         style="fill:#fff3d4;fill-opacity:1;stroke:#ffbe1a;stroke-width:2.5;stroke-linecap:round;stroke-dasharray:none;stroke-opacity:1;paint-order:markers fill stroke"
         d="m 1300.4708,-73.45363 c 0,0 -5.0791,-4.99797 -5.0791,-9.99594 0,-4.99796 10.1583,0 10.1583,0"
         id="path580" />
      <path
         style="fill:none;fill-opacity:1;stroke:#ffbe1a;stroke-width:2.49999;stroke-linecap:round;stroke-linejoin:round;stroke-miterlimit:100;stroke-dasharray:none;stroke-opacity:1;paint-order:markers fill stroke"
         d="m 1305.55,-83.44957 c 0,0 5.079,0 5.079,-4.99797 v -3.12048 3.12048 c 0,5.32361 5.0792,4.99797 5.0792,4.99797"
         id="path581" />
      <path
         style="fill:#fff3d4;fill-opacity:1;stroke:#ffbe1a;stroke-width:2.5;stroke-linecap:round;stroke-dasharray:none;stroke-opacity:1;paint-order:markers fill stroke"
         d="m 1305.55,-73.45363 c 0,0 -5.0792,-4.99797 -5.0792,-9.99594 0,-4.99796 5.0792,-4.99796 10.1582,-4.99796 5.0792,0 10.1583,0 10.1583,4.99796 0,4.99797 -5.0791,9.99594 -5.0791,9.99594 z"
         id="path582" />
      <path
         style="fill:#ffbe1a;fill-opacity:1;stroke:#ffbe1a;stroke-width:2.49999;stroke-linecap:round;stroke-linejoin:round;stroke-miterlimit:100;stroke-dasharray:none;stroke-opacity:1;paint-order:markers fill stroke"
         d="m 1300.4708,-73.45363 h 20.3165"
         id="path583" />
      <path
         style="fill:#ffbe1a;fill-opacity:1;stroke:#ffbe1a;stroke-width:2.49688;stroke-linecap:round;stroke-linejoin:round;stroke-miterlimit:100;stroke-dasharray:none;stroke-opacity:1;paint-order:markers fill stroke"
         d="m 1310.629,-94.07964 v 5.02326"
         id="path584" />
      <path
         style="fill:#ffbe1a;fill-opacity:1;stroke:#ffbe1a;stroke-width:2.49688;stroke-linecap:round;stroke-linejoin:round;stroke-miterlimit:100;stroke-dasharray:none;stroke-opacity:1;paint-order:markers fill stroke"
         d="m 1308.1031,-91.59416 5.0783,0.0262"
         id="path585" />
      <rect
         style="fill:#fff3d4;fill-opacity:1;stroke:none;stroke-width:2.49688;stroke-linecap:round;stroke-linejoin:round;stroke-miterlimit:100;stroke-dasharray:none;stroke-opacity:1;paint-order:markers fill stroke"
         id="rect586"
         width="20.316551"
         height="2.873827"
         x="-1320.7875"
         y="61.795391"
         transform="scale(-1)" />
      <path
         style="fill:#fff3d4;fill-opacity:1;stroke:#ffbe1a;stroke-width:2.5;stroke-linecap:round;stroke-dasharray:none;stroke-opacity:1;paint-order:markers fill stroke"
         d="m 1300.4709,-64.6692 c 0,0 -5.0792,4.99797 -5.0792,9.99594 0,4.99796 10.1583,0 10.1583,0"
         id="path586" />
      <path
         style="fill:#fff3d4;fill-opacity:1;stroke:#ffbe1a;stroke-width:2.5;stroke-linecap:round;stroke-dasharray:none;stroke-opacity:1;paint-order:markers fill stroke"
         d="m 1320.7874,-64.6692 c 0,0 5.0791,4.99797 5.0791,9.99594 0,4.99796 -10.1583,0 -10.1583,0"
         id="path587" />
      <path
         style="fill:none;fill-opacity:1;stroke:#ffbe1a;stroke-width:2.49999;stroke-linecap:round;stroke-linejoin:round;stroke-miterlimit:100;stroke-dasharray:none;stroke-opacity:1;paint-order:markers fill stroke"
         d="m 1315.7082,-54.67326 c 0,0 -5.079,0 -5.079,4.99797 v 3.12048 -3.12048 c 0,-5.32361 -5.0792,-4.99797 -5.0792,-4.99797"
         id="path588" />
      <path
         style="fill:#fff3d4;fill-opacity:1;stroke:#ffbe1a;stroke-width:2.5;stroke-linecap:round;stroke-dasharray:none;stroke-opacity:1;paint-order:markers fill stroke"
         d="m 1315.7082,-64.6692 c 0,0 5.0792,4.99797 5.0792,9.99594 0,4.99796 -5.0792,4.99796 -10.1582,4.99796 -5.0792,0 -10.1583,0 -10.1583,-4.99796 0,-4.99797 5.0791,-9.99594 5.0791,-9.99594 z"
         id="path589" />
      <path
         style="fill:#ffbe1a;fill-opacity:1;stroke:#ffbe1a;stroke-width:2.49999;stroke-linecap:round;stroke-linejoin:round;stroke-miterlimit:100;stroke-dasharray:none;stroke-opacity:1;paint-order:markers fill stroke"
         d="m 1320.7874,-64.6692 h -20.3165"
         id="path590" />
      <path
         style="fill:#ffbe1a;fill-opacity:1;stroke:#ffbe1a;stroke-width:2.49688;stroke-linecap:round;stroke-linejoin:round;stroke-miterlimit:100;stroke-dasharray:none;stroke-opacity:1;paint-order:markers fill stroke"
         d="m 1310.6292,-44.04319 v -5.02326"
         id="path591" />
      <path
         style="fill:#ffbe1a;fill-opacity:1;stroke:#ffbe1a;stroke-width:2.49688;stroke-linecap:round;stroke-linejoin:round;stroke-miterlimit:100;stroke-dasharray:none;stroke-opacity:1;paint-order:markers fill stroke"
         d="m 1313.1551,-46.52867 -5.0783,-0.0261"
         id="path592" />
      <rect
         style="fill:#fff3d4;fill-opacity:1;stroke:none;stroke-width:2.49688;stroke-linecap:round;stroke-linejoin:round;stroke-miterlimit:100;stroke-dasharray:none;stroke-opacity:1;paint-order:markers fill stroke"
         id="rect593"
         width="20.316551"
         height="2.873827"
         x="1300.4708"
         y="-76.327431" />
      <path
         style="fill:#fff3d4;fill-opacity:1;stroke:#ffbe1a;stroke-width:2.5;stroke-linecap:round;stroke-dasharray:none;stroke-opacity:1;paint-order:markers fill stroke"
         d="m 1320.7873,-73.45363 c 0,0 5.0792,-4.99797 5.0792,-9.99594 0,-4.99796 -10.1583,0 -10.1583,0"
         id="path593" />
      <path
         style="fill:#fff3d4;fill-opacity:1;stroke:#ffbe1a;stroke-width:2.5;stroke-linecap:round;stroke-dasharray:none;stroke-opacity:1;paint-order:markers fill stroke"
         d="m 1300.4708,-73.45363 c 0,0 -5.0791,-4.99797 -5.0791,-9.99594 0,-4.99796 10.1583,0 10.1583,0"
         id="path594" />
      <path
         style="fill:none;fill-opacity:1;stroke:#ffbe1a;stroke-width:2.49999;stroke-linecap:round;stroke-linejoin:round;stroke-miterlimit:100;stroke-dasharray:none;stroke-opacity:1;paint-order:markers fill stroke"
         d="m 1305.55,-83.44957 c 0,0 5.079,0 5.079,-4.99797 v -3.12048 3.12048 c 0,5.32361 5.0792,4.99797 5.0792,4.99797"
         id="path595" />
      <path
         style="fill:#fff3d4;fill-opacity:1;stroke:#ffbe1a;stroke-width:2.5;stroke-linecap:round;stroke-dasharray:none;stroke-opacity:1;paint-order:markers fill stroke"
         d="m 1305.55,-73.45363 c 0,0 -5.0792,-4.99797 -5.0792,-9.99594 0,-4.99796 5.0792,-4.99796 10.1582,-4.99796 5.0792,0 10.1583,0 10.1583,4.99796 0,4.99797 -5.0791,9.99594 -5.0791,9.99594 z"
         id="path596" />
      <path
         style="fill:#ffbe1a;fill-opacity:1;stroke:#ffbe1a;stroke-width:2.49999;stroke-linecap:round;stroke-linejoin:round;stroke-miterlimit:100;stroke-dasharray:none;stroke-opacity:1;paint-order:markers fill stroke"
         d="m 1300.4708,-73.45363 h 20.3165"
         id="path597" />
      <path
         style="fill:#ffbe1a;fill-opacity:1;stroke:#ffbe1a;stroke-width:2.49688;stroke-linecap:round;stroke-linejoin:round;stroke-miterlimit:100;stroke-dasharray:none;stroke-opacity:1;paint-order:markers fill stroke"
         d="m 1310.629,-94.07964 v 5.02326"
         id="path598" />
      <path
         style="fill:#ffbe1a;fill-opacity:1;stroke:#ffbe1a;stroke-width:2.49688;stroke-linecap:round;stroke-linejoin:round;stroke-miterlimit:100;stroke-dasharray:none;stroke-opacity:1;paint-order:markers fill stroke"
         d="m 1308.1031,-91.59416 5.0783,0.0262"
         id="path599" />
      <rect
         style="fill:#fff3d4;fill-opacity:1;stroke:none;stroke-width:2.49688;stroke-linecap:round;stroke-linejoin:round;stroke-miterlimit:100;stroke-dasharray:none;stroke-opacity:1;paint-order:markers fill stroke"
         id="rect599"
         width="20.316551"
         height="2.873827"
         x="-1320.7875"
         y="61.795391"
         transform="scale(-1)" />
      <path
         style="fill:#fff3d4;fill-opacity:1;stroke:#ffbe1a;stroke-width:2.5;stroke-linecap:round;stroke-dasharray:none;stroke-opacity:1;paint-order:markers fill stroke"
         d="m 1300.4709,-64.6692 c 0,0 -5.0792,4.99797 -5.0792,9.99594 0,4.99796 10.1583,0 10.1583,0"
         id="path600" />
      <path
         style="fill:#fff3d4;fill-opacity:1;stroke:#ffbe1a;stroke-width:2.5;stroke-linecap:round;stroke-dasharray:none;stroke-opacity:1;paint-order:markers fill stroke"
         d="m 1320.7874,-64.6692 c 0,0 5.0791,4.99797 5.0791,9.99594 0,4.99796 -10.1583,0 -10.1583,0"
         id="path601" />
      <path
         style="fill:none;fill-opacity:1;stroke:#ffbe1a;stroke-width:2.49999;stroke-linecap:round;stroke-linejoin:round;stroke-miterlimit:100;stroke-dasharray:none;stroke-opacity:1;paint-order:markers fill stroke"
         d="m 1315.7082,-54.67326 c 0,0 -5.079,0 -5.079,4.99797 v 3.12048 -3.12048 c 0,-5.32361 -5.0792,-4.99797 -5.0792,-4.99797"
         id="path602" />
      <path
         style="fill:#fff3d4;fill-opacity:1;stroke:#ffbe1a;stroke-width:2.5;stroke-linecap:round;stroke-dasharray:none;stroke-opacity:1;paint-order:markers fill stroke"
         d="m 1315.7082,-64.6692 c 0,0 5.0792,4.99797 5.0792,9.99594 0,4.99796 -5.0792,4.99796 -10.1582,4.99796 -5.0792,0 -10.1583,0 -10.1583,-4.99796 0,-4.99797 5.0791,-9.99594 5.0791,-9.99594 z"
         id="path603" />
      <path
         style="fill:#ffbe1a;fill-opacity:1;stroke:#ffbe1a;stroke-width:2.49999;stroke-linecap:round;stroke-linejoin:round;stroke-miterlimit:100;stroke-dasharray:none;stroke-opacity:1;paint-order:markers fill stroke"
         d="m 1320.7874,-64.6692 h -20.3165"
         id="path604" />
      <path
         style="fill:#ffbe1a;fill-opacity:1;stroke:#ffbe1a;stroke-width:2.49688;stroke-linecap:round;stroke-linejoin:round;stroke-miterlimit:100;stroke-dasharray:none;stroke-opacity:1;paint-order:markers fill stroke"
         d="m 1310.6292,-44.04319 v -5.02326"
         id="path605" />
      <path
         style="fill:#ffbe1a;fill-opacity:1;stroke:#ffbe1a;stroke-width:2.49688;stroke-linecap:round;stroke-linejoin:round;stroke-miterlimit:100;stroke-dasharray:none;stroke-opacity:1;paint-order:markers fill stroke"
         d="m 1313.1551,-46.52867 -5.0783,-0.0261"
         id="path606" />
    </g>
  </g>
</svg>
