<?xml version="1.0" encoding="UTF-8" standalone="no"?>
<!-- Created with Inkscape (http://www.inkscape.org/) -->

<svg
   width="63.5mm"
   height="88.899986mm"
   viewBox="0 0 63.5 88.899986"
   version="1.1"
   id="svg1"
   sodipodi:docname="Card_2C.svg"
   xmlns:inkscape="http://www.inkscape.org/namespaces/inkscape"
   xmlns:sodipodi="http://sodipodi.sourceforge.net/DTD/sodipodi-0.dtd"
   xmlns="http://www.w3.org/2000/svg"
   xmlns:svg="http://www.w3.org/2000/svg">
  <sodipodi:namedview
     id="namedview16"
     pagecolor="#ffffff"
     bordercolor="#000000"
     borderopacity="0.25"
     inkscape:showpageshadow="2"
     inkscape:pageopacity="0.0"
     inkscape:pagecheckerboard="0"
     inkscape:deskcolor="#d1d1d1"
     inkscape:document-units="mm" />
  <defs
     id="defs1" />
  <g
     id="layer1"
     transform="translate(-516.879,113.44583)">
    <g
       id="g1">
      <path
         id="path1"
         style="fill:#f4efe7;stroke:none;stroke-width:3.81;stroke-linecap:round;paint-order:markers fill stroke"
         d="m 523.2207,-113.44583 h 50.8166 c 3.5133,0 6.3417,2.83208 6.3417,6.34994 v 76.20011 c 0,3.51787 -2.8284,6.34994 -6.3417,6.34994 h -50.8166 c -3.5133,0 -6.3417,-2.83207 -6.3417,-6.34994 v -76.20011 c 0,-3.51786 2.8284,-6.34994 6.3417,-6.34994 z" />
      <path
         id="path3"
         style="fill:#7a5de5;fill-opacity:1;stroke-width:1.77626;stroke-linecap:round;paint-order:markers fill stroke"
         d="m 574.874,-109.36399 c -0.3622,-0.36236 -0.9454,-0.36233 -1.308,-1e-5 l -0.7114,0.71143 -0.7116,0.71163 -0.6539,0.654 -1.3656,-1.36566 -0.7114,-0.7114 c -0.3625,-0.36231 -0.9458,-0.36236 -1.3082,-2e-5 l -1.4231,1.42307 c -0.3623,0.36231 -0.3623,0.94571 0,1.30801 l 1.4231,1.42306 0.6541,0.65402 -1.3657,1.36565 -0.7114,0.71142 c -0.3623,0.36232 -0.3623,0.94566 0,1.30802 l 1.4232,1.42303 c 0.3622,0.36232 0.9455,0.36235 1.308,10e-6 l 1.423,-1.42304 0.6541,-0.65401 0.6538,0.65399 0.7117,0.71161 0.7115,0.71145 c 0.3624,0.36231 0.9457,0.36229 1.308,-2e-5 l 1.4231,-1.42304 c 0.3624,-0.36237 0.3624,-0.94569 0,-1.30799 l -0.7114,-0.71144 -0.7117,-0.71165 -0.6541,-0.65398 0.6541,-0.65401 0.7117,-0.71162 0.7114,-0.71144 c 0.3624,-0.36232 0.3624,-0.94572 0,-1.30802 z" />
      <path
         id="path4"
         style="fill:#7a5de5;fill-opacity:1;stroke-width:1.77626;stroke-linecap:round;paint-order:markers fill stroke"
         d="m 529.1538,-38.24391 c -0.3622,-0.36236 -0.9454,-0.36233 -1.308,-1e-5 l -0.7114,0.71143 -0.7116,0.71163 -0.6539,0.654 -1.3656,-1.36566 -0.7114,-0.7114 c -0.3625,-0.36231 -0.9458,-0.36236 -1.3082,-2e-5 l -1.4231,1.42307 c -0.3623,0.36231 -0.3623,0.94571 0,1.30801 l 1.4231,1.42306 0.6541,0.65402 -1.3657,1.36565 -0.7114,0.71142 c -0.3623,0.36232 -0.3623,0.94566 0,1.30802 l 1.4232,1.42303 c 0.3622,0.36232 0.9455,0.36235 1.308,10e-6 l 1.423,-1.42304 0.6541,-0.65401 0.6538,0.65399 0.7117,0.71161 0.7115,0.71145 c 0.3624,0.36231 0.9457,0.36229 1.308,-2e-5 l 1.4231,-1.42304 c 0.3624,-0.36237 0.3624,-0.94569 0,-1.30799 l -0.7114,-0.71144 -0.7117,-0.71165 -0.6541,-0.65398 0.6541,-0.65401 0.7117,-0.71162 0.7114,-0.71144 c 0.3624,-0.36232 0.3624,-0.94572 0,-1.30802 z" />
      <g
         aria-label="2"
         id="text4"
         style="font-size:12.973px;line-height:0.9;font-family:'DM Serif Display';-inkscape-font-specification:'DM Serif Display';letter-spacing:0px;word-spacing:0px;stroke:#000000;stroke-width:0.470471;stroke-linecap:round;stroke-linejoin:round;stroke-miterlimit:1.1;paint-order:stroke fill markers">
        <path
           d="m 523.85626,-107.02647 0.0908,-1.84217 q 0.38919,-0.22054 0.96,-0.37622 0.58379,-0.15567 1.31027,-0.15567 1.03784,0 1.67352,0.29838 0.63568,0.2854 0.93406,0.79135 0.29838,0.50595 0.29838,1.14162 0,0.89514 -0.8692,1.75136 -0.86919,0.84324 -2.37405,1.86811 -0.28541,0.20757 -0.6746,0.50595 -0.38919,0.29838 -0.72649,0.58378 h 4.86488 v 1.47892 h -5.70812 v -1.08973 q 0.46702,-0.45405 0.90811,-0.89514 0.45405,-0.45405 0.85621,-0.85621 0.93406,-0.96001 1.38812,-1.69947 0.46702,-0.75243 0.46702,-1.60865 0,-0.89513 -0.32432,-1.44 -0.32433,-0.55784 -0.97298,-0.55784 -0.40216,0 -0.75243,0.20757 -0.3373,0.19459 -0.59676,0.68757 l -0.6227,1.20649 z"
           id="path18" />
      </g>
      <path
         id="path5"
         style="fill:none;fill-opacity:0;stroke:#333333;stroke-width:0.240883;stroke-linecap:round;stroke-dasharray:none;stroke-opacity:1;paint-order:markers fill stroke"
         d="m 533.384,-98.64957 h 30.49 c 2.108,0 3.805,1.88935 3.805,4.23621 v 50.83505 c 0,2.34686 -1.697,4.23621 -3.805,4.23621 h -30.49 c -2.108,0 -3.805,-1.88935 -3.805,-4.23621 v -50.83505 c 0,-2.34686 1.697,-4.23621 3.805,-4.23621 z" />
      <g
         aria-label="2"
         id="text5"
         style="font-size:55.5989px;line-height:0.9;font-family:'DM Serif Display';-inkscape-font-specification:'DM Serif Display';letter-spacing:0px;word-spacing:0px;stroke:#000000;stroke-width:2.032;stroke-linecap:round;stroke-linejoin:round;stroke-miterlimit:1.1;paint-order:stroke fill markers">
        <path
           d="m 537.34237,-76.863078 0.38919,-7.895044 q 1.66797,-0.945181 4.11432,-1.612368 2.50195,-0.667187 5.61549,-0.667187 4.44791,0 7.17225,1.278775 2.72435,1.223176 4.00313,3.391533 1.27877,2.168357 1.27877,4.892703 0,3.836324 -3.72513,7.505851 -3.72512,3.613929 -10.1746,8.006242 -1.22317,0.889582 -2.89114,2.168357 -1.66796,1.278775 -3.11354,2.50195 h 20.84959 v 6.338275 h -24.46351 v -4.670308 q 2.00156,-1.945961 3.89192,-3.836324 1.94596,-1.945961 3.66953,-3.669527 4.00312,-4.114319 5.94908,-7.283456 2.00156,-3.224736 2.00156,-6.894263 0,-3.836325 -1.38997,-6.171478 -1.38998,-2.390753 -4.16992,-2.390753 -1.72357,0 -3.22474,0.889582 -1.44557,0.833984 -2.55755,2.946742 l -2.66874,5.170698 z"
           id="path21" />
      </g>
      <g
         aria-label="2"
         transform="scale(-1)"
         id="text6"
         style="font-size:12.973px;line-height:0.9;font-family:'DM Serif Display';-inkscape-font-specification:'DM Serif Display';letter-spacing:0px;word-spacing:0px;stroke:#000000;stroke-width:0.470471;stroke-linecap:round;stroke-linejoin:round;stroke-miterlimit:1.1;paint-order:stroke fill markers">
        <path
           d="m -573.40192,30.965183 0.0908,-1.842166 q 0.38919,-0.220541 0.96,-0.376217 0.58379,-0.155676 1.31027,-0.155676 1.03784,0 1.67352,0.298379 0.63568,0.285406 0.93406,0.791353 0.29838,0.505947 0.29838,1.141624 0,0.895137 -0.86919,1.751355 -0.8692,0.843245 -2.37406,1.868112 -0.28541,0.207568 -0.6746,0.505947 -0.38919,0.298379 -0.72649,0.583785 h 4.86488 v 1.478922 h -5.70812 v -1.089732 q 0.46703,-0.454055 0.90811,-0.895137 0.45405,-0.454055 0.85622,-0.856218 0.93405,-0.960002 1.38811,-1.699463 0.46702,-0.752434 0.46702,-1.608652 0,-0.895137 -0.32432,-1.440003 -0.32433,-0.557839 -0.97298,-0.557839 -0.40216,0 -0.75243,0.207568 -0.3373,0.194595 -0.59676,0.687569 l -0.6227,1.206489 z"
           id="path24" />
      </g>
    </g>
  </g>
</svg>
