<?xml version="1.0" encoding="UTF-8" standalone="no"?>
<!-- Created with Inkscape (http://www.inkscape.org/) -->

<svg
   width="63.5mm"
   height="88.899986mm"
   viewBox="0 0 63.5 88.899986"
   version="1.1"
   id="svg1"
   sodipodi:docname="Card_5H.svg"
   xmlns:inkscape="http://www.inkscape.org/namespaces/inkscape"
   xmlns:sodipodi="http://sodipodi.sourceforge.net/DTD/sodipodi-0.dtd"
   xmlns="http://www.w3.org/2000/svg"
   xmlns:svg="http://www.w3.org/2000/svg">
  <sodipodi:namedview
     id="namedview16"
     pagecolor="#ffffff"
     bordercolor="#000000"
     borderopacity="0.25"
     inkscape:showpageshadow="2"
     inkscape:pageopacity="0.0"
     inkscape:pagecheckerboard="0"
     inkscape:deskcolor="#d1d1d1"
     inkscape:document-units="mm" />
  <defs
     id="defs1" />
  <g
     id="layer1"
     transform="translate(-745.479,-13.554174)">
    <g
       id="g17">
      <path
         id="path230"
         style="fill:#f4efe7;stroke:none;stroke-width:3.81;stroke-linecap:round;paint-order:markers fill stroke"
         d="m 751.8207,13.554174 h 50.8166 c 3.5133,0 6.3417,2.83208 6.3417,6.34994 v 76.20011 c 0,3.51787 -2.8284,6.349936 -6.3417,6.349936 h -50.8166 c -3.5133,0 -6.3417,-2.832066 -6.3417,-6.349936 v -76.20011 c 0,-3.51786 2.8284,-6.34994 6.3417,-6.34994 z" />
      <g
         aria-label="5"
         id="text231"
         style="font-size:12.973px;line-height:0.9;font-family:'DM Serif Display';-inkscape-font-specification:'DM Serif Display';letter-spacing:0px;word-spacing:0px;stroke:#000000;stroke-width:0.470471;stroke-linecap:round;stroke-linejoin:round;stroke-miterlimit:1.1;paint-order:stroke fill markers">
        <path
           d="m 754.72632,26.213539 q -0.75243,0 -1.34919,-0.142703 -0.58378,-0.12973 -1.03784,-0.441082 l 0.0908,-1.634598 h 0.12973 l 0.59676,1.063786 q 0.25946,0.467028 0.63568,0.687569 0.37622,0.207568 0.83027,0.207568 1.4919,0 1.4919,-2.270275 0,-1.024867 -0.40217,-1.55676 -0.38919,-0.531893 -1.16757,-0.531893 -0.36324,0 -0.72648,0.103784 -0.35028,0.09081 -0.64865,0.246487 l -0.23352,-0.142703 0.28541,-4.008657 h 4.54055 v 1.478922 h -4.28109 l -0.18162,2.244329 q 0.29837,-0.220541 0.80432,-0.415136 0.50595,-0.194595 1.06379,-0.194595 0.84324,0 1.49189,0.298379 0.66162,0.298379 1.02487,0.882164 0.37622,0.570812 0.37622,1.414057 0,0.869191 -0.44109,1.478922 -0.42811,0.609731 -1.18054,0.921083 -0.75243,0.311352 -1.71244,0.311352 z"
           id="path18" />
      </g>
      <path
         id="path231"
         style="fill:none;fill-opacity:0;stroke:#333333;stroke-width:0.240883;stroke-linecap:round;stroke-dasharray:none;stroke-opacity:1;paint-order:markers fill stroke"
         d="m 761.984,28.350434 h 30.49 c 2.108,0 3.805,1.88935 3.805,4.23621 v 50.83505 c 0,2.34686 -1.697,4.23621 -3.805,4.23621 h -30.49 c -2.108,0 -3.805,-1.88935 -3.805,-4.23621 v -50.83505 c 0,-2.34686 1.697,-4.23621 3.805,-4.23621 z" />
      <g
         aria-label="5"
         id="text232"
         style="font-size:55.5989px;line-height:0.9;font-family:'DM Serif Display';-inkscape-font-specification:'DM Serif Display';letter-spacing:0px;word-spacing:0px;stroke:#000000;stroke-width:2.032;stroke-linecap:round;stroke-linejoin:round;stroke-miterlimit:1.1;paint-order:stroke fill markers">
        <path
           d="m 775.19955,76.045989 q -3.22473,0 -5.78228,-0.611588 -2.50195,-0.555989 -4.44791,-1.890362 l 0.38919,-7.005462 h 0.55599 l 2.55755,4.55911 q 1.11198,2.00156 2.72434,2.946742 1.61237,0.889582 3.55833,0.889582 6.39388,0 6.39388,-9.729807 0,-4.392313 -1.72357,-6.671868 -1.66797,-2.279555 -5.0039,-2.279555 -1.55677,0 -3.11354,0.444791 -1.50117,0.389192 -2.77994,1.056379 l -1.00078,-0.611588 1.22317,-17.18006 h 19.45962 v 6.338275 h -18.34764 l -0.77838,9.618609 q 1.27877,-0.945181 3.44713,-1.779164 2.16835,-0.833984 4.55911,-0.833984 3.61393,0 6.39387,1.278775 2.83554,1.278774 4.39231,3.780725 1.61237,2.446352 1.61237,6.06028 0,3.725126 -1.89036,6.338275 -1.83476,2.613148 -5.0595,3.947522 -3.22474,1.334373 -7.33906,1.334373 z"
           id="path21" />
      </g>
      <g
         aria-label="5"
         transform="scale(-1)"
         id="text233"
         style="font-size:12.973px;line-height:0.9;font-family:'DM Serif Display';-inkscape-font-specification:'DM Serif Display';letter-spacing:0px;word-spacing:0px;stroke:#000000;stroke-width:0.470471;stroke-linecap:round;stroke-linejoin:round;stroke-miterlimit:1.1;paint-order:stroke fill markers">
        <path
           d="m -799.73144,-89.794785 q -0.75243,0 -1.34919,-0.142703 -0.58379,-0.12973 -1.03784,-0.441082 l 0.0908,-1.634598 h 0.12973 l 0.59676,1.063786 q 0.25946,0.467028 0.63568,0.687569 0.37621,0.207568 0.83027,0.207568 1.49189,0 1.49189,-2.270275 0,-1.024867 -0.40216,-1.55676 -0.38919,-0.531893 -1.16757,-0.531893 -0.36324,0 -0.72649,0.103784 -0.35027,0.09081 -0.64865,0.246487 l -0.23351,-0.142703 0.2854,-4.008657 h 4.54055 v 1.478922 h -4.28109 l -0.18162,2.244329 q 0.29838,-0.220541 0.80433,-0.415136 0.50594,-0.194595 1.06378,-0.194595 0.84325,0 1.4919,0.298379 0.66162,0.298379 1.02487,0.882164 0.37621,0.570812 0.37621,1.414057 0,0.869191 -0.44108,1.478922 -0.42811,0.609731 -1.18054,0.921083 -0.75244,0.311352 -1.71244,0.311352 z"
           id="path24" />
      </g>
      <path
         id="path286"
         style="fill:#ffbe1a;stroke-width:2.71543;stroke-linecap:round;paint-order:markers fill stroke"
         d="m 759.4634,93.564204 a 5.0944629,5.0944629 0 0 1 -5.0944,5.09447 5.0944629,5.0944629 0 0 1 -5.0945,-5.09447 5.0944629,5.0944629 0 0 1 5.0945,-5.09446 5.0944629,5.0944629 0 0 1 5.0944,5.09446 z" />
      <path
         id="path287"
         style="fill:#ffbe1a;stroke-width:2.71543;stroke-linecap:round;paint-order:markers fill stroke"
         d="m 805.1836,22.444124 a 5.0944629,5.0944629 0 0 1 -5.0944,5.09447 5.0944629,5.0944629 0 0 1 -5.0945,-5.09447 5.0944629,5.0944629 0 0 1 5.0945,-5.09446 5.0944629,5.0944629 0 0 1 5.0944,5.09446 z" />
    </g>
  </g>
</svg>
