<?xml version="1.0" encoding="UTF-8" standalone="no"?>
<!-- Created with Inkscape (http://www.inkscape.org/) -->

<svg
   width="556.25983mm"
   height="92.710022mm"
   viewBox="0 0 556.25983 92.710022"
   version="1.1"
   id="svg1"
   xmlns="http://www.w3.org/2000/svg"
   xmlns:svg="http://www.w3.org/2000/svg">
  <defs
     id="defs1" />
  <g
     id="layer1"
     transform="translate(-1109.3449,-194.94501)">
    <rect
       style="fill:#f4efe7;fill-opacity:1;stroke:#000000;stroke-width:3.81;stroke-linecap:round;stroke-linejoin:miter;stroke-dasharray:none;paint-order:markers fill stroke"
       id="rect3-1-5"
       width="63.5"
       height="88.900002"
       x="1181.1"
       y="196.84999"
       ry="6.3499432"
       rx="6.3416772" />
    <rect
       style="fill:#f4efe7;fill-opacity:1;stroke:#000000;stroke-width:3.81;stroke-linecap:round;stroke-linejoin:miter;stroke-dasharray:none;paint-order:markers fill stroke"
       id="rect3-5-7-3"
       width="63.5"
       height="88.900002"
       x="1250.95"
       y="196.84999"
       ry="6.3499432"
       rx="6.3416772" />
    <rect
       style="fill:#f4efe7;fill-opacity:1;stroke:#000000;stroke-width:3.81;stroke-linecap:round;stroke-linejoin:miter;stroke-dasharray:none;paint-order:markers fill stroke"
       id="rect3-2-7-5"
       width="63.5"
       height="88.900002"
       x="1320.7999"
       y="196.85001"
       ry="6.3499432"
       rx="6.3416772" />
    <rect
       style="fill:#f4efe7;fill-opacity:1;stroke:#000000;stroke-width:3.81;stroke-linecap:round;stroke-linejoin:miter;stroke-dasharray:none;paint-order:markers fill stroke"
       id="rect3-7-1-6"
       width="63.5"
       height="88.900002"
       x="1390.6499"
       y="196.85001"
       ry="6.3499432"
       rx="6.3416772" />
    <rect
       style="fill:#f4efe7;fill-opacity:1;stroke:#000000;stroke-width:3.81;stroke-linecap:round;stroke-linejoin:miter;stroke-dasharray:none;paint-order:markers fill stroke"
       id="rect3-6-1-2"
       width="63.5"
       height="88.900002"
       x="1460.4999"
       y="196.85001"
       ry="6.3499432"
       rx="6.3416772" />
    <rect
       style="fill:#f4efe7;fill-opacity:1;stroke:#000000;stroke-width:3.81;stroke-linecap:round;stroke-linejoin:miter;stroke-dasharray:none;paint-order:markers fill stroke"
       id="rect3-61-5-9"
       width="63.5"
       height="88.900002"
       x="1530.3499"
       y="196.85001"
       ry="6.3499432"
       rx="6.3416772" />
    <rect
       style="fill:#f4efe7;fill-opacity:1;stroke:#000000;stroke-width:3.81;stroke-linecap:round;stroke-linejoin:miter;stroke-dasharray:none;paint-order:markers fill stroke"
       id="rect3-20-9-1"
       width="63.5"
       height="88.900002"
       x="1600.1998"
       y="196.85001"
       ry="6.3499432"
       rx="6.3416772" />
    <rect
       style="fill:#f4efe7;fill-opacity:1;stroke:#000000;stroke-width:3.81;stroke-linecap:round;stroke-linejoin:miter;stroke-dasharray:none;paint-order:markers fill stroke"
       id="rect1-9-2"
       width="63.5"
       height="88.900002"
       x="1111.25"
       y="196.84999"
       ry="6.3499432"
       rx="6.3416772" />
    <text
       xml:space="preserve"
       style="font-style:normal;font-variant:normal;font-weight:normal;font-stretch:normal;font-size:76.5708px;font-family:'DM Serif Display';-inkscape-font-specification:'DM Serif Display';text-align:start;writing-mode:lr-tb;direction:ltr;text-anchor:start;fill:#000000;stroke:#000000;stroke-width:2.52683;stroke-linecap:round;stroke-linejoin:miter;stroke-dasharray:none;paint-order:markers fill stroke"
       x="1354.1581"
       y="225.26631"
       id="text3-77-7"
       transform="scale(0.82883525,1.2065124)"><tspan
         id="tspan3-6-0"
         style="fill:#000000;stroke:#000000;stroke-width:2.52683;stroke-dasharray:none;stroke-opacity:1"
         x="1354.1581"
         y="225.26631">D</tspan></text>
    <path
       id="rect6-9-1-2-9-1-5-4"
       style="fill:#7a5de5;fill-opacity:1;stroke-width:1.78133;stroke-linecap:round;paint-order:markers fill stroke"
       d="m 1448.6546,200.91812 c -0.3632,-0.36339 -0.9481,-0.36336 -1.3116,-10e-6 l -0.7135,0.71346 -0.7136,0.71365 -0.6558,0.65588 -1.3695,-1.36956 -0.7135,-0.71343 c -0.3635,-0.36334 -0.9484,-0.36339 -1.3118,-2e-5 l -1.4272,1.42712 c -0.3633,0.36335 -0.3633,0.94841 0,1.31175 l 1.4272,1.42711 0.6559,0.65589 -1.3696,1.36954 -0.7134,0.71345 c -0.3633,0.36336 -0.3633,0.94835 0,1.31175 l 1.4273,1.42709 c 0.3632,0.36335 0.9481,0.36338 1.3116,1e-5 l 1.4271,-1.4271 0.656,-0.65588 0.6557,0.65585 0.7137,0.71365 0.7135,0.71348 c 0.3634,0.36334 0.9484,0.36332 1.3117,-3e-5 l 1.4272,-1.4271 c 0.3635,-0.36339 0.3635,-0.94837 0,-1.31171 l -0.7135,-0.71347 -0.7137,-0.71368 -0.6559,-0.65584 0.6559,-0.65588 0.7137,-0.71364 0.7135,-0.71347 c 0.3635,-0.36336 0.3635,-0.94842 0,-1.31176 z" />
    <g
       id="g25"
       transform="matrix(0.75406369,0,0,1.3144163,-0.04016061,2.4289044)"
       style="stroke:#f4efe7;stroke-width:2;stroke-dasharray:none;stroke-opacity:1">
      <path
         style="-inkscape-font-specification:'DM Serif Display';stroke:#f4efe7;stroke-width:2;stroke-linecap:round;stroke-dasharray:none;stroke-opacity:1;paint-order:markers fill stroke"
         d="m 1860.1824,205.02159 v -0.69912 l 1.3983,-0.48939 q 2.377,-0.76903 2.377,-3.98499 v -35.79505 q 0,-1.39824 -0.3496,-2.23719 -0.2796,-0.83895 -1.608,-1.39824 l -1.8177,-0.83895 v -0.69912 h 13.4931 l 12.9337,33.8375 12.1648,-33.8375 h 13.7727 v 0.69912 l -1.1186,0.41947 q -1.3284,0.48939 -1.8178,1.39825 -0.4893,0.83894 -0.4893,2.23719 v 36.56408 q 0,1.39824 0.3495,2.16728 0.3496,0.76903 1.6779,1.32833 l 1.3983,0.62921 v 0.69912 h -17.4082 v -0.69912 l 1.4682,-0.62921 q 1.3283,-0.5593 1.6779,-1.32833 0.3495,-0.76904 0.3495,-2.16728 V 184.4674 l 0.1399,-19.99489 -14.6117,40.54908 h -3.4956 l -15.2409,-40.05969 0.2098,17.40814 v 17.61787 q 0,1.53807 0.4194,2.51684 0.4894,0.90886 1.8178,1.32833 l 1.538,0.48939 v 0.69912 z"
         id="path24" />
      <path
         style="-inkscape-font-specification:'DM Serif Display';stroke:#f4efe7;stroke-width:2;stroke-linecap:round;stroke-dasharray:none;stroke-opacity:1;paint-order:markers fill stroke"
         d="m 1859.0293,157.72656 v 2.58985 l 2.5059,1.15625 0.017,0.008 c 0.7222,0.30405 0.9235,0.58684 0.961,0.69922 l 0.014,0.041 0.016,0.0391 c 0.1455,0.34926 0.2617,0.95694 0.2617,1.79296 v 35.79493 c 0,0.92988 -0.1754,1.584 -0.4317,2.01367 -0.2562,0.42967 -0.5781,0.69114 -1.1464,0.875 l -0.014,0.004 -2.1836,0.76368 v 2.67187 h 11.5352 v -2.69726 l -2.3438,-0.74415 v -0.002 c -0.6759,-0.21342 -0.9585,-0.47399 -1.1172,-0.75195 -0.1827,-0.45179 -0.3144,-1.10308 -0.3144,-1.99219 v -17.625 l -0.1309,-10.91797 13.2129,34.73047 h 5.1016 l 12.6015,-34.96875 -0.094,13.25586 v 15.73438 c 0,0.83604 -0.1221,1.41649 -0.2461,1.68945 -0.049,0.10754 -0.3316,0.43061 -1.0762,0.74414 v 0 l -2.1719,0.93164 v 2.61328 h 19.7168 v -2.59961 l -2.0918,-0.9414 -0.014,-0.004 c -0.7446,-0.31353 -1.0253,-0.6366 -1.0742,-0.74414 -0.1241,-0.27296 -0.2461,-0.85341 -0.2461,-1.68945 v -36.56446 c 0,-0.79761 0.1463,-1.33592 0.332,-1.65429 l 0.01,-0.0176 0.01,-0.0176 c 0.1607,-0.2984 0.4898,-0.60121 1.2012,-0.86328 v 0 l 1.8711,-0.70117 v -2.65235 h -15.7383 l -11.3867,31.67188 -12.1074,-31.67188 z m 4.5488,2.30664 h 9.3028 l 13.5214,35.3711 -3.0507,8.46289 h -1.8887 l -14.959,-39.31641 -1.3926,0.26563 v -0.76368 c 0,-1.0103 -0.1216,-1.87301 -0.4297,-2.63281 -0.2029,-0.58054 -0.6113,-1.01747 -1.1035,-1.38672 z m 36.0078,0 h 9.7129 c -0.2537,0.24694 -0.5187,0.48706 -0.6894,0.79883 -0.4603,0.7971 -0.6426,1.7407 -0.6426,2.80078 v 36.56446 c 0,1.02827 0.1112,1.8921 0.4531,2.64453 0.1876,0.41262 0.4841,0.7356 0.8203,1.02539 h -10.7246 c 0.3362,-0.28977 0.6308,-0.61281 0.8184,-1.02539 0.3419,-0.75243 0.4531,-1.61626 0.4531,-2.64453 V 184.4707 l 0.1406,-19.99023 -1.8242,-0.32422 z m -34.8535,41.41016 c 0.082,0.50638 0.075,1.0801 0.2617,1.51562 l 0.022,0.0469 0.024,0.0449 c 0.1751,0.32516 0.4557,0.5659 0.7226,0.81641 h -2.1406 c 0.2662,-0.25514 0.5417,-0.50447 0.7324,-0.82422 0.2683,-0.44985 0.2567,-1.0642 0.3789,-1.59961 z"
         id="path25" />
    </g>
    <g
       id="text3-7-7-9"
       transform="scale(0.7540429,1.3261845)">
      <path
         style="-inkscape-font-specification:'DM Serif Display';stroke-linecap:round;paint-order:markers fill stroke"
         d="m 1860.1824,205.02159 v -0.69912 l 1.3983,-0.48939 q 2.377,-0.76903 2.377,-3.98499 v -35.79505 q 0,-1.39824 -0.3496,-2.23719 -0.2796,-0.83895 -1.608,-1.39824 l -1.8177,-0.83895 v -0.69912 h 13.4931 l 12.9337,33.8375 12.1648,-33.8375 h 13.7727 v 0.69912 l -1.1186,0.41947 q -1.3284,0.48939 -1.8178,1.39825 -0.4893,0.83894 -0.4893,2.23719 v 36.56408 q 0,1.39824 0.3495,2.16728 0.3496,0.76903 1.6779,1.32833 l 1.3983,0.62921 v 0.69912 h -17.4082 v -0.69912 l 1.4682,-0.62921 q 1.3283,-0.5593 1.6779,-1.32833 0.3495,-0.76904 0.3495,-2.16728 V 184.4674 l 0.1399,-19.99489 -14.6117,40.54908 h -3.4956 l -15.2409,-40.05969 0.2098,17.40814 v 17.61787 q 0,1.53807 0.4194,2.51684 0.4894,0.90886 1.8178,1.32833 l 1.538,0.48939 v 0.69912 z"
         id="path22" />
      <path
         style="-inkscape-font-specification:'DM Serif Display';stroke-linecap:round;paint-order:markers fill stroke"
         d="m 1859.0293,157.72656 v 2.58985 l 2.5059,1.15625 0.017,0.008 c 0.7222,0.30405 0.9235,0.58684 0.961,0.69922 l 0.014,0.041 0.016,0.0391 c 0.1455,0.34926 0.2617,0.95694 0.2617,1.79296 v 35.79493 c 0,0.92988 -0.1754,1.584 -0.4317,2.01367 -0.2562,0.42967 -0.5781,0.69114 -1.1464,0.875 l -0.014,0.004 -2.1836,0.76368 v 2.67187 h 11.5352 v -2.69726 l -2.3438,-0.74415 v -0.002 c -0.6759,-0.21342 -0.9585,-0.47399 -1.1172,-0.75195 -0.1827,-0.45179 -0.3144,-1.10308 -0.3144,-1.99219 v -17.625 l -0.1309,-10.91797 13.2129,34.73047 h 5.1016 l 12.6015,-34.96875 -0.094,13.25586 v 15.73438 c 0,0.83604 -0.1221,1.41649 -0.2461,1.68945 -0.049,0.10754 -0.3316,0.43061 -1.0762,0.74414 v 0 l -2.1719,0.93164 v 2.61328 h 19.7168 v -2.59961 l -2.0918,-0.9414 -0.014,-0.004 c -0.7446,-0.31353 -1.0253,-0.6366 -1.0742,-0.74414 -0.1241,-0.27296 -0.2461,-0.85341 -0.2461,-1.68945 v -36.56446 c 0,-0.79761 0.1463,-1.33592 0.332,-1.65429 l 0.01,-0.0176 0.01,-0.0176 c 0.1607,-0.2984 0.4898,-0.60121 1.2012,-0.86328 v 0 l 1.8711,-0.70117 v -2.65235 h -15.7383 l -11.3867,31.67188 -12.1074,-31.67188 z m 4.5488,2.30664 h 9.3028 l 13.5214,35.3711 -3.0507,8.46289 h -1.8887 l -14.959,-39.31641 -1.3926,0.26563 v -0.76368 c 0,-1.0103 -0.1216,-1.87301 -0.4297,-2.63281 -0.2029,-0.58054 -0.6113,-1.01747 -1.1035,-1.38672 z m 36.0078,0 h 9.7129 c -0.2537,0.24694 -0.5187,0.48706 -0.6894,0.79883 -0.4603,0.7971 -0.6426,1.7407 -0.6426,2.80078 v 36.56446 c 0,1.02827 0.1112,1.8921 0.4531,2.64453 0.1876,0.41262 0.4841,0.7356 0.8203,1.02539 h -10.7246 c 0.3362,-0.28977 0.6308,-0.61281 0.8184,-1.02539 0.3419,-0.75243 0.4531,-1.61626 0.4531,-2.64453 V 184.4707 l 0.1406,-19.99023 -1.8242,-0.32422 z m -34.8535,41.41016 c 0.082,0.50638 0.075,1.0801 0.2617,1.51562 l 0.022,0.0469 0.024,0.0449 c 0.1751,0.32516 0.4557,0.5659 0.7226,0.81641 h -2.1406 c 0.2662,-0.25514 0.5417,-0.50447 0.7324,-0.82422 0.2683,-0.44985 0.2567,-1.0642 0.3789,-1.59961 z"
         id="path23" />
    </g>
    <text
       xml:space="preserve"
       style="font-style:normal;font-variant:normal;font-weight:normal;font-stretch:normal;font-size:75.6704px;font-family:'DM Serif Display';-inkscape-font-specification:'DM Serif Display';text-align:start;writing-mode:lr-tb;direction:ltr;text-anchor:start;fill:#000000;stroke:#000000;stroke-width:2.49712;stroke-linecap:round;stroke-linejoin:miter;stroke-dasharray:none;paint-order:markers fill stroke"
       x="1437.9689"
       y="224.96918"
       id="text3-6-6-6"
       transform="scale(0.82883525,1.2065124)"><tspan
         id="tspan3-3-56-0"
         style="fill:#000000;stroke:#000000;stroke-width:2.49712;stroke-dasharray:none;stroke-opacity:1"
         x="1437.9689"
         y="224.96918">O</tspan></text>
    <text
       xml:space="preserve"
       style="font-style:normal;font-variant:normal;font-weight:normal;font-stretch:normal;font-size:75.6704px;font-family:'DM Serif Display';-inkscape-font-specification:'DM Serif Display';text-align:start;writing-mode:lr-tb;direction:ltr;text-anchor:start;fill:#000000;stroke:#000000;stroke-width:2.49712;stroke-linecap:round;stroke-linejoin:miter;stroke-dasharray:none;paint-order:markers fill stroke"
       x="1943.6182"
       y="224.96919"
       id="text3-6-3-3-6"
       transform="scale(0.82883525,1.2065124)"><tspan
         id="tspan3-3-1-9-2"
         style="fill:#000000;stroke:#000000;stroke-width:2.49712;stroke-dasharray:none;stroke-opacity:1"
         x="1943.6182"
         y="224.96919">O</tspan></text>
    <text
       xml:space="preserve"
       style="font-style:normal;font-variant:normal;font-weight:normal;font-stretch:normal;font-size:76.5708px;font-family:'DM Serif Display';-inkscape-font-specification:'DM Serif Display';text-align:start;writing-mode:lr-tb;direction:ltr;text-anchor:start;fill:#000000;stroke:#000000;stroke-width:2.52683;stroke-linecap:round;stroke-linejoin:miter;stroke-dasharray:none;paint-order:markers fill stroke"
       x="1525.809"
       y="225.26631"
       id="text3-6-1-4-6"
       transform="scale(0.82883525,1.2065124)"><tspan
         id="tspan3-3-5-8-1"
         style="fill:#000000;stroke:#000000;stroke-width:2.52683;stroke-dasharray:none;stroke-opacity:1"
         x="1525.809"
         y="225.26631">P</tspan></text>
    <text
       xml:space="preserve"
       style="font-style:normal;font-variant:normal;font-weight:normal;font-stretch:normal;font-size:76.3486px;font-family:'DM Serif Display';-inkscape-font-specification:'DM Serif Display';text-align:start;writing-mode:lr-tb;direction:ltr;text-anchor:start;fill:#000000;stroke:#000000;stroke-width:2.5195;stroke-linecap:round;stroke-linejoin:miter;stroke-dasharray:none;paint-order:markers fill stroke"
       x="1607.2457"
       y="225.26935"
       id="text3-6-1-6-1-8"
       transform="scale(0.82883525,1.2065124)"><tspan
         id="tspan3-3-5-5-2-7"
         style="fill:#000000;stroke:#000000;stroke-width:2.5195;stroke-dasharray:none;stroke-opacity:1"
         x="1607.2457"
         y="225.26935">A</tspan></text>
    <text
       xml:space="preserve"
       style="font-style:normal;font-variant:normal;font-weight:normal;font-stretch:normal;font-size:76.5708px;font-family:'DM Serif Display';-inkscape-font-specification:'DM Serif Display';text-align:start;writing-mode:lr-tb;direction:ltr;text-anchor:start;fill:#000000;stroke:#000000;stroke-width:2.52683;stroke-linecap:round;stroke-linejoin:miter;stroke-dasharray:none;paint-order:markers fill stroke"
       x="1788.894"
       y="225.26631"
       id="text3-4-9-9"
       transform="scale(0.82883525,1.2065124)"><tspan
         id="tspan3-7-3-2"
         style="fill:#000000;stroke:#000000;stroke-width:2.52683;stroke-dasharray:none;stroke-opacity:1"
         x="1788.894"
         y="225.26631">I</tspan></text>
    <g
       id="g29"
       transform="matrix(0.82899038,0,0,1.1975482,-0.29237825,2.0358028)"
       style="fill:#f4efe7;fill-opacity:1;stroke:#f4efe7;stroke-width:2;stroke-dasharray:none;stroke-opacity:1">
      <path
         style="-inkscape-font-specification:'DM Serif Display';fill:#f4efe7;fill-opacity:1;stroke:#f4efe7;stroke-width:2;stroke-linecap:round;stroke-dasharray:none;stroke-opacity:1;paint-order:markers fill stroke"
         d="m 1862.66,225.04213 v -0.76238 l 2.5159,-0.76238 q 1.3723,-0.38119 1.9822,-1.44852 0.6099,-1.14357 0.6099,-2.66833 v -36.67048 q -0.8386,-1.82971 -1.3723,-2.74457 -0.4574,-0.91485 -1.0673,-1.52476 -0.6099,-0.68614 -1.6773,-1.67723 l -1.296,-1.29605 v -0.76238 h 13.4941 l 25.311,34.53581 v -28.74172 q 0,-1.52476 -0.5336,-2.74457 -0.4575,-1.21981 -1.9822,-1.601 l -2.5159,-0.68614 v -0.76238 h 10.902 v 0.76238 l -2.0584,0.68614 q -1.3723,0.45743 -1.6772,1.601 -0.305,1.14357 -0.305,2.66833 v 44.82794 h -4.2693 l -29.1229,-40.02495 v 34.15463 q 0,1.52476 0.4574,2.59209 0.4574,1.06733 1.906,1.52476 l 2.2871,0.76238 v 0.76238 z"
         id="path28" />
      <path
         style="-inkscape-font-specification:'DM Serif Display';fill:#f4efe7;fill-opacity:1;stroke:#f4efe7;stroke-width:2;stroke-linecap:round;stroke-dasharray:none;stroke-opacity:1;paint-order:markers fill stroke"
         d="m 1861.0977,173.4668 v 2.54101 l 1.6796,1.68164 0.018,0.0156 c 0.6931,0.64352 1.2295,1.18194 1.5938,1.59179 l 0.023,0.0273 0.027,0.0254 c 0.2954,0.29542 0.5771,0.68934 0.832,1.19922 l 0.018,0.0351 0.02,0.0352 c 0.2887,0.49488 0.7156,1.35861 1.2012,2.4043 v 36.37695 c 0,0.83991 -0.1636,1.50064 -0.4551,2.05469 -0.2363,0.40738 -0.5522,0.66554 -1.2149,0.84961 l -0.016,0.004 -3.4219,1.03711 v 2.95508 h 14.1036 v -2.92773 l -3.1563,-1.05274 -0.01,-0.002 c -0.734,-0.23181 -0.9877,-0.49088 -1.1289,-0.82031 -0.2195,-0.51221 -0.3554,-1.20694 -0.3554,-2.09766 v -30.28711 l 27.2246,37.41602 h 6.1679 v -46.08594 c 0,-0.93263 0.094,-1.71588 0.2618,-2.34375 0.093,-0.3488 0.2163,-0.51808 0.8593,-0.73242 l 2.92,-0.97266 v -2.92773 h -13.418 v 2.98047 l 3.4551,0.94335 0.014,0.004 c 0.7389,0.18473 0.9506,0.39894 1.1094,0.82227 l 0.012,0.0312 0.014,0.0312 c 0.2786,0.63688 0.4277,1.37046 0.4277,2.24023 v 24.89649 l -23.416,-31.94922 z m 3.5312,2.51562 h 10.582 l 26.5215,36.1875 v 11.84375 h -2.3711 l -30.5136,-41.93555 c -0.5227,-1.13364 -0.9638,-2.02462 -1.336,-2.66796 -0.3508,-0.69814 -0.7744,-1.31451 -1.2832,-1.82618 -0.4132,-0.46175 -0.955,-0.99805 -1.5996,-1.60156 z m 36.1895,0 h 2.1445 c -0.4104,0.41179 -0.7323,0.90417 -0.8828,1.46875 -0.068,0.25405 -0.05,0.57767 -0.098,0.84766 -0.089,-0.3215 -0.065,-0.68934 -0.1953,-0.99219 -0.2013,-0.52176 -0.5581,-0.95082 -0.9687,-1.32422 z m -32.1778,45.07617 c 0.091,0.4731 0.077,1.00799 0.2578,1.42969 0.2198,0.51285 0.5789,0.93644 1.002,1.29688 h -2.6348 c 0.3814,-0.31436 0.7378,-0.66026 0.9844,-1.0918 l 0.01,-0.0156 0.01,-0.0176 c 0.2534,-0.47525 0.248,-1.06578 0.373,-1.60157 z"
         id="path29" />
    </g>
    <g
       id="text3-4-8-9-0"
       transform="scale(0.82883525,1.2065124)">
      <path
         style="-inkscape-font-specification:'DM Serif Display';stroke-linecap:round;paint-order:markers fill stroke"
         d="m 1862.66,225.04213 v -0.76238 l 2.5159,-0.76238 q 1.3723,-0.38119 1.9822,-1.44852 0.6099,-1.14357 0.6099,-2.66833 v -36.67048 q -0.8386,-1.82971 -1.3723,-2.74457 -0.4574,-0.91485 -1.0673,-1.52476 -0.6099,-0.68614 -1.6773,-1.67723 l -1.296,-1.29605 v -0.76238 h 13.4941 l 25.311,34.53581 v -28.74172 q 0,-1.52476 -0.5336,-2.74457 -0.4575,-1.21981 -1.9822,-1.601 l -2.5159,-0.68614 v -0.76238 h 10.902 v 0.76238 l -2.0584,0.68614 q -1.3723,0.45743 -1.6772,1.601 -0.305,1.14357 -0.305,2.66833 v 44.82794 h -4.2693 l -29.1229,-40.02495 v 34.15463 q 0,1.52476 0.4574,2.59209 0.4574,1.06733 1.906,1.52476 l 2.2871,0.76238 v 0.76238 z"
         id="path26" />
      <path
         style="-inkscape-font-specification:'DM Serif Display';stroke-linecap:round;paint-order:markers fill stroke"
         d="m 1861.0977,173.4668 v 2.54101 l 1.6796,1.68164 0.018,0.0156 c 0.6931,0.64352 1.2295,1.18194 1.5938,1.59179 l 0.023,0.0273 0.027,0.0254 c 0.2954,0.29542 0.5771,0.68934 0.832,1.19922 l 0.018,0.0351 0.02,0.0352 c 0.2887,0.49488 0.7156,1.35861 1.2012,2.4043 v 36.37695 c 0,0.83991 -0.1636,1.50064 -0.4551,2.05469 -0.2363,0.40738 -0.5522,0.66554 -1.2149,0.84961 l -0.016,0.004 -3.4219,1.03711 v 2.95508 h 14.1036 v -2.92773 l -3.1563,-1.05274 -0.01,-0.002 c -0.734,-0.23181 -0.9877,-0.49088 -1.1289,-0.82031 -0.2195,-0.51221 -0.3554,-1.20694 -0.3554,-2.09766 v -30.28711 l 27.2246,37.41602 h 6.1679 v -46.08594 c 0,-0.93263 0.094,-1.71588 0.2618,-2.34375 0.093,-0.3488 0.2163,-0.51808 0.8593,-0.73242 l 2.92,-0.97266 v -2.92773 h -13.418 v 2.98047 l 3.4551,0.94335 0.014,0.004 c 0.7389,0.18473 0.9506,0.39894 1.1094,0.82227 l 0.012,0.0312 0.014,0.0312 c 0.2786,0.63688 0.4277,1.37046 0.4277,2.24023 v 24.89649 l -23.416,-31.94922 z m 3.5312,2.51562 h 10.582 l 26.5215,36.1875 v 11.84375 h -2.3711 l -30.5136,-41.93555 c -0.5227,-1.13364 -0.9638,-2.02462 -1.336,-2.66796 -0.3508,-0.69814 -0.7744,-1.31451 -1.2832,-1.82618 -0.4132,-0.46175 -0.955,-0.99805 -1.5996,-1.60156 z m 36.1895,0 h 2.1445 c -0.4104,0.41179 -0.7323,0.90417 -0.8828,1.46875 -0.068,0.25405 -0.05,0.57767 -0.098,0.84766 -0.089,-0.3215 -0.065,-0.68934 -0.1953,-0.99219 -0.2013,-0.52176 -0.5581,-0.95082 -0.9687,-1.32422 z m -32.1778,45.07617 c 0.091,0.4731 0.077,1.00799 0.2578,1.42969 0.2198,0.51285 0.5789,0.93644 1.002,1.29688 h -2.6348 c 0.3814,-0.31436 0.7378,-0.66026 0.9844,-1.0918 l 0.01,-0.0156 0.01,-0.0176 c 0.2534,-0.47525 0.248,-1.06578 0.373,-1.60157 z"
         id="path27" />
    </g>
    <circle
       style="fill:#ffbe1a;fill-opacity:1;stroke-width:2.71543;stroke-linecap:round;paint-order:markers fill stroke"
       id="path1-9-4-1-9-0-4"
       cx="1235.7101"
       cy="205.73994"
       r="5.0944629" />
    <circle
       style="fill:#ffbe1a;fill-opacity:1;stroke-width:2.71543;stroke-linecap:round;paint-order:markers fill stroke"
       id="path1-9-4-1-9-0-4-3-9"
       cx="1515.0566"
       cy="205.73994"
       r="5.0944629" />
    <rect
       style="fill:#ffbe1a;fill-opacity:1;stroke-width:3.82709;stroke-linecap:round;paint-order:markers fill stroke"
       id="rect2-6-3-4-8-8"
       width="8.3217058"
       height="8.3217058"
       x="1311.4467"
       y="-1028.8081"
       ry="0.67849743"
       transform="rotate(45)" />
    <rect
       style="fill:#ffbe1a;fill-opacity:1;stroke-width:3.82709;stroke-linecap:round;paint-order:markers fill stroke"
       id="rect2-6-3-4-8-7"
       width="8.3217058"
       height="8.3217058"
       x="1113.881"
       y="-831.24249"
       ry="0.67849743"
       transform="rotate(45)" />
    <path
       id="circle6-1-3-7-8-8-8"
       style="fill:#7a5de5;fill-opacity:1;stroke-width:3.21417;stroke-linecap:round;paint-order:markers fill stroke"
       d="m 1584.9601,210.83441 c 0,0 -3.435,-2.40377 -4.7328,-4.99883 -1.2973,-2.59505 -1.2973,-5.19009 1.7176,-5.19009 3.0152,0 3.0152,2.59504 3.0152,2.59504 0,0 0,-2.59504 3.0152,-2.59504 3.0149,0 3.0149,2.59504 1.7175,5.19009 -1.2977,2.59506 -4.7327,4.99883 -4.7327,4.99883 z" />
    <path
       id="circle6-1-3-7-8-8-9"
       style="fill:#7a5de5;fill-opacity:1;stroke-width:3.21417;stroke-linecap:round;paint-order:markers fill stroke"
       d="m 1305.56,210.83441 c 0,0 -3.435,-2.40377 -4.7328,-4.99883 -1.2973,-2.59505 -1.2973,-5.19009 1.7176,-5.19009 3.0152,0 3.0152,2.59504 3.0152,2.59504 0,0 0,-2.59504 3.0152,-2.59504 3.0149,0 3.0149,2.59504 1.7175,5.19009 -1.2977,2.59506 -4.7327,4.99883 -4.7327,4.99883 z" />
    <path
       id="rect6-9-1-2-9-1-5-3"
       style="fill:#7a5de5;fill-opacity:1;stroke-width:1.77626;stroke-linecap:round;paint-order:markers fill stroke"
       d="m 1169.245,200.93183 c -0.3622,-0.36236 -0.9454,-0.36233 -1.308,-1e-5 l -0.7114,0.71143 -0.7116,0.71163 -0.6539,0.654 -1.3656,-1.36566 -0.7114,-0.7114 c -0.3625,-0.36231 -0.9458,-0.36236 -1.3082,-2e-5 l -1.4231,1.42307 c -0.3623,0.36231 -0.3623,0.94571 0,1.30801 l 1.4231,1.42306 0.6541,0.65402 -1.3657,1.36565 -0.7114,0.71142 c -0.3623,0.36232 -0.3623,0.94566 0,1.30802 l 1.4232,1.42303 c 0.3622,0.36232 0.9455,0.36235 1.308,1e-5 l 1.423,-1.42304 0.6541,-0.65401 0.6538,0.65399 0.7117,0.71161 0.7115,0.71145 c 0.3624,0.36231 0.9457,0.36229 1.308,-2e-5 l 1.4231,-1.42304 c 0.3624,-0.36237 0.3624,-0.94569 0,-1.30799 l -0.7114,-0.71144 -0.7117,-0.71165 -0.6541,-0.65398 0.6541,-0.65401 0.7117,-0.71162 0.7114,-0.71144 c 0.3624,-0.36232 0.3624,-0.94572 0,-1.30802 z" />
  </g>
</svg>
