<?xml version="1.0" encoding="UTF-8" standalone="no"?>
<!-- Created with Inkscape (http://www.inkscape.org/) -->

<svg
   width="552.44977mm"
   height="88.900024mm"
   viewBox="0 0 552.44977 88.900024"
   version="1.1"
   id="svg1"
   xml:space="preserve"
   xmlns="http://www.w3.org/2000/svg"
   xmlns:svg="http://www.w3.org/2000/svg"><defs
     id="defs1" /><g
     id="layer1"
     transform="translate(-253.99997,-63.499993)"><path
       id="rect3-1-5"
       style="fill:#f4efe7;stroke:none;stroke-width:3.81;stroke-linecap:round;paint-order:markers fill stroke"
       d="m 330.1917,63.499992 h 50.8166 c 3.5133,0 6.3417,2.83208 6.3417,6.34994 v 76.200118 c 0,3.51787 -2.8284,6.34994 -6.3417,6.34994 h -50.8166 c -3.5133,0 -6.3417,-2.83207 -6.3417,-6.34994 V 69.849932 c 0,-3.51786 2.8284,-6.34994 6.3417,-6.34994 z" /><path
       id="rect3-5-7-3"
       style="fill:#f4efe7;stroke:none;stroke-width:3.81;stroke-linecap:round;paint-order:markers fill stroke"
       d="m 400.0416,63.499992 h 50.8167 c 3.5133,0 6.3417,2.83208 6.3417,6.34994 v 76.200118 c 0,3.51787 -2.8284,6.34994 -6.3417,6.34994 h -50.8167 c -3.5133,0 -6.3416,-2.83207 -6.3416,-6.34994 V 69.849932 c 0,-3.51786 2.8283,-6.34994 6.3416,-6.34994 z" /><path
       id="rect3-2-7-5"
       style="fill:#f4efe7;stroke:none;stroke-width:3.81;stroke-linecap:round;paint-order:markers fill stroke"
       d="m 469.8916,63.500012 h 50.8166 c 3.5133,0 6.3417,2.83207 6.3417,6.34994 v 76.200108 c 0,3.51787 -2.8284,6.34995 -6.3417,6.34995 h -50.8166 c -3.5133,0 -6.3417,-2.83208 -6.3417,-6.34995 V 69.849952 c 0,-3.51787 2.8284,-6.34994 6.3417,-6.34994 z" /><path
       id="rect3-7-1-6"
       style="fill:#f4efe7;stroke:none;stroke-width:3.81;stroke-linecap:round;paint-order:markers fill stroke"
       d="m 539.7416,63.500012 h 50.8166 c 3.5133,0 6.3417,2.83207 6.3417,6.34994 v 76.200108 c 0,3.51787 -2.8284,6.34995 -6.3417,6.34995 h -50.8166 c -3.5133,0 -6.3417,-2.83208 -6.3417,-6.34995 V 69.849952 c 0,-3.51787 2.8284,-6.34994 6.3417,-6.34994 z" /><path
       id="rect3-6-1-2"
       style="fill:#f4efe7;stroke:none;stroke-width:3.81;stroke-linecap:round;paint-order:markers fill stroke"
       d="m 609.5916,63.500012 h 50.8166 c 3.5133,0 6.3417,2.83207 6.3417,6.34994 v 76.200108 c 0,3.51787 -2.8284,6.34995 -6.3417,6.34995 h -50.8166 c -3.5133,0 -6.3417,-2.83208 -6.3417,-6.34995 V 69.849952 c 0,-3.51787 2.8284,-6.34994 6.3417,-6.34994 z" /><path
       id="rect3-61-5-9"
       style="fill:#f4efe7;stroke:none;stroke-width:3.81;stroke-linecap:round;paint-order:markers fill stroke"
       d="m 679.4415,63.500012 h 50.8167 c 3.5133,0 6.3417,2.83207 6.3417,6.34994 v 76.200108 c 0,3.51787 -2.8284,6.34995 -6.3417,6.34995 h -50.8167 c -3.5133,0 -6.3416,-2.83208 -6.3416,-6.34995 V 69.849952 c 0,-3.51787 2.8283,-6.34994 6.3416,-6.34994 z" /><path
       id="rect3-20-9-1"
       style="fill:#f4efe7;stroke:none;stroke-width:3.81;stroke-linecap:round;paint-order:markers fill stroke"
       d="m 749.2915,63.500012 h 50.8167 c 3.5132,0 6.3416,2.83207 6.3416,6.34994 v 76.200108 c 0,3.51787 -2.8284,6.34995 -6.3416,6.34995 h -50.8167 c -3.5133,0 -6.3417,-2.83208 -6.3417,-6.34995 V 69.849952 c 0,-3.51787 2.8284,-6.34994 6.3417,-6.34994 z" /><path
       id="rect1-9-2"
       style="fill:#f4efe7;stroke:none;stroke-width:3.81;stroke-linecap:round;paint-order:markers fill stroke"
       d="m 260.3417,63.499992 h 50.8166 c 3.5133,0 6.3417,2.83208 6.3417,6.34994 v 76.200118 c 0,3.51787 -2.8284,6.34994 -6.3417,6.34994 h -50.8166 c -3.5133,0 -6.3417,-2.83207 -6.3417,-6.34994 V 69.849932 c 0,-3.51786 2.8284,-6.34994 6.3417,-6.34994 z" /><path
       d="m 266.52014,138.4366 v -0.92384 l 1.33277,-0.73906 q 2.03089,-1.20099 2.03089,-4.71157 V 83.837882 q 0,-3.695342 -2.03089,-4.711563 l -1.33277,-0.739073 v -0.923839 h 16.75466 q 6.72724,0 11.55056,3.695355 4.88681,3.60296 7.48886,10.43935 2.66545,6.743985 2.66545,16.259508 0,9.70028 -2.85583,16.53667 -2.85592,6.83639 -7.99661,10.43935 -5.07711,3.60296 -11.99473,3.60296 z m 12.88333,-1.84767 h 2.72903 q 4.56945,0 7.36188,-2.58675 2.79242,-2.67912 4.0617,-8.86882 1.33277,-6.28209 1.33277,-17.18335 0,-10.901278 -1.33277,-17.090978 -1.26928,-6.28209 -3.9983,-8.86883 -2.72894,-2.679118 -7.1715,-2.679118 h -2.98281 z"
       id="text3-77-7"
       style="font-size:76.5708px;font-family:'DM Serif Display';-inkscape-font-specification:'DM Serif Display';stroke:#000000;stroke-width:2.52683;stroke-linecap:round;paint-order:markers fill stroke"
       aria-label="D" /><path
       id="rect6-9-1-2-9-1-5-4"
       style="fill:#7a5de5;fill-opacity:1;stroke-width:1.78133;stroke-linecap:round;paint-order:markers fill stroke"
       d="m 591.4046,67.568122 c -0.3632,-0.36339 -0.9481,-0.36336 -1.3116,-1e-5 l -0.7135,0.71346 -0.7136,0.71365 -0.6558,0.65588 -1.3695,-1.36956 -0.7135,-0.71343 c -0.3635,-0.36334 -0.9484,-0.36339 -1.3118,-2e-5 l -1.4272,1.42712 c -0.3633,0.36335 -0.3633,0.94841 0,1.31175 l 1.4272,1.42711 0.6559,0.65589 -1.3696,1.36954 -0.7134,0.71345 c -0.3633,0.36336 -0.3633,0.94835 0,1.31175 l 1.4273,1.42709 c 0.3632,0.36335 0.9481,0.36338 1.3116,1e-5 l 1.4271,-1.4271 0.656,-0.65588 0.6557,0.65585 0.7137,0.71365 0.7135,0.71348 c 0.3634,0.36334 0.9484,0.36332 1.3117,-3e-5 l 1.4272,-1.4271 c 0.3635,-0.36339 0.3635,-0.94837 0,-1.31171 l -0.7135,-0.71347 -0.7137,-0.71368 -0.6559,-0.65584 0.6559,-0.65588 0.7137,-0.71364 0.7135,-0.71347 c 0.3635,-0.36336 0.3635,-0.94842 0,-1.31176 z" /><g
       id="g25"
       transform="matrix(0.75406369,0,0,1.3144163,-857.29016,-130.9211)"
       style="stroke:#f4efe7;stroke-width:2;stroke-dasharray:none;stroke-opacity:1"><path
         style="-inkscape-font-specification:'DM Serif Display';stroke:#f4efe7;stroke-width:2;stroke-linecap:round;stroke-dasharray:none;stroke-opacity:1;paint-order:markers fill stroke"
         d="m 1860.1824,205.02159 v -0.69912 l 1.3983,-0.48939 q 2.377,-0.76903 2.377,-3.98499 v -35.79505 q 0,-1.39824 -0.3496,-2.23719 -0.2796,-0.83895 -1.608,-1.39824 l -1.8177,-0.83895 v -0.69912 h 13.4931 l 12.9337,33.8375 12.1648,-33.8375 h 13.7727 v 0.69912 l -1.1186,0.41947 q -1.3284,0.48939 -1.8178,1.39825 -0.4893,0.83894 -0.4893,2.23719 v 36.56408 q 0,1.39824 0.3495,2.16728 0.3496,0.76903 1.6779,1.32833 l 1.3983,0.62921 v 0.69912 h -17.4082 v -0.69912 l 1.4682,-0.62921 q 1.3283,-0.5593 1.6779,-1.32833 0.3495,-0.76904 0.3495,-2.16728 V 184.4674 l 0.1399,-19.99489 -14.6117,40.54908 h -3.4956 l -15.2409,-40.05969 0.2098,17.40814 v 17.61787 q 0,1.53807 0.4194,2.51684 0.4894,0.90886 1.8178,1.32833 l 1.538,0.48939 v 0.69912 z"
         id="path24" /><path
         style="-inkscape-font-specification:'DM Serif Display';stroke:#f4efe7;stroke-width:2;stroke-linecap:round;stroke-dasharray:none;stroke-opacity:1;paint-order:markers fill stroke"
         d="m 1859.0293,157.72656 v 2.58985 l 2.5059,1.15625 0.017,0.008 c 0.7222,0.30405 0.9235,0.58684 0.961,0.69922 l 0.014,0.041 0.016,0.0391 c 0.1455,0.34926 0.2617,0.95694 0.2617,1.79296 v 35.79493 c 0,0.92988 -0.1754,1.584 -0.4317,2.01367 -0.2562,0.42967 -0.5781,0.69114 -1.1464,0.875 l -0.014,0.004 -2.1836,0.76368 v 2.67187 h 11.5352 v -2.69726 l -2.3438,-0.74415 v -0.002 c -0.6759,-0.21342 -0.9585,-0.47399 -1.1172,-0.75195 -0.1827,-0.45179 -0.3144,-1.10308 -0.3144,-1.99219 v -17.625 l -0.1309,-10.91797 13.2129,34.73047 h 5.1016 l 12.6015,-34.96875 -0.094,13.25586 v 15.73438 c 0,0.83604 -0.1221,1.41649 -0.2461,1.68945 -0.049,0.10754 -0.3316,0.43061 -1.0762,0.74414 v 0 l -2.1719,0.93164 v 2.61328 h 19.7168 v -2.59961 l -2.0918,-0.9414 -0.014,-0.004 c -0.7446,-0.31353 -1.0253,-0.6366 -1.0742,-0.74414 -0.1241,-0.27296 -0.2461,-0.85341 -0.2461,-1.68945 v -36.56446 c 0,-0.79761 0.1463,-1.33592 0.332,-1.65429 l 0.01,-0.0176 0.01,-0.0176 c 0.1607,-0.2984 0.4898,-0.60121 1.2012,-0.86328 v 0 l 1.8711,-0.70117 v -2.65235 h -15.7383 l -11.3867,31.67188 -12.1074,-31.67188 z m 4.5488,2.30664 h 9.3028 l 13.5214,35.3711 -3.0507,8.46289 h -1.8887 l -14.959,-39.31641 -1.3926,0.26563 v -0.76368 c 0,-1.0103 -0.1216,-1.87301 -0.4297,-2.63281 -0.2029,-0.58054 -0.6113,-1.01747 -1.1035,-1.38672 z m 36.0078,0 h 9.7129 c -0.2537,0.24694 -0.5187,0.48706 -0.6894,0.79883 -0.4603,0.7971 -0.6426,1.7407 -0.6426,2.80078 v 36.56446 c 0,1.02827 0.1112,1.8921 0.4531,2.64453 0.1876,0.41262 0.4841,0.7356 0.8203,1.02539 h -10.7246 c 0.3362,-0.28977 0.6308,-0.61281 0.8184,-1.02539 0.3419,-0.75243 0.4531,-1.61626 0.4531,-2.64453 V 184.4707 l 0.1406,-19.99023 -1.8242,-0.32422 z m -34.8535,41.41016 c 0.082,0.50638 0.075,1.0801 0.2617,1.51562 l 0.022,0.0469 0.024,0.0449 c 0.1751,0.32516 0.4557,0.5659 0.7226,0.81641 h -2.1406 c 0.2662,-0.25514 0.5417,-0.50447 0.7324,-0.82422 0.2683,-0.44985 0.2567,-1.0642 0.3789,-1.59961 z"
         id="path25" /></g><g
       id="text3-7-7-9"
       transform="matrix(0.7540429,0,0,1.3261845,-857.25,-133.35)"><path
         style="-inkscape-font-specification:'DM Serif Display';stroke-linecap:round;paint-order:markers fill stroke"
         d="m 1860.1824,205.02159 v -0.69912 l 1.3983,-0.48939 q 2.377,-0.76903 2.377,-3.98499 v -35.79505 q 0,-1.39824 -0.3496,-2.23719 -0.2796,-0.83895 -1.608,-1.39824 l -1.8177,-0.83895 v -0.69912 h 13.4931 l 12.9337,33.8375 12.1648,-33.8375 h 13.7727 v 0.69912 l -1.1186,0.41947 q -1.3284,0.48939 -1.8178,1.39825 -0.4893,0.83894 -0.4893,2.23719 v 36.56408 q 0,1.39824 0.3495,2.16728 0.3496,0.76903 1.6779,1.32833 l 1.3983,0.62921 v 0.69912 h -17.4082 v -0.69912 l 1.4682,-0.62921 q 1.3283,-0.5593 1.6779,-1.32833 0.3495,-0.76904 0.3495,-2.16728 V 184.4674 l 0.1399,-19.99489 -14.6117,40.54908 h -3.4956 l -15.2409,-40.05969 0.2098,17.40814 v 17.61787 q 0,1.53807 0.4194,2.51684 0.4894,0.90886 1.8178,1.32833 l 1.538,0.48939 v 0.69912 z"
         id="path22" /><path
         style="-inkscape-font-specification:'DM Serif Display';stroke-linecap:round;paint-order:markers fill stroke"
         d="m 1859.0293,157.72656 v 2.58985 l 2.5059,1.15625 0.017,0.008 c 0.7222,0.30405 0.9235,0.58684 0.961,0.69922 l 0.014,0.041 0.016,0.0391 c 0.1455,0.34926 0.2617,0.95694 0.2617,1.79296 v 35.79493 c 0,0.92988 -0.1754,1.584 -0.4317,2.01367 -0.2562,0.42967 -0.5781,0.69114 -1.1464,0.875 l -0.014,0.004 -2.1836,0.76368 v 2.67187 h 11.5352 v -2.69726 l -2.3438,-0.74415 v -0.002 c -0.6759,-0.21342 -0.9585,-0.47399 -1.1172,-0.75195 -0.1827,-0.45179 -0.3144,-1.10308 -0.3144,-1.99219 v -17.625 l -0.1309,-10.91797 13.2129,34.73047 h 5.1016 l 12.6015,-34.96875 -0.094,13.25586 v 15.73438 c 0,0.83604 -0.1221,1.41649 -0.2461,1.68945 -0.049,0.10754 -0.3316,0.43061 -1.0762,0.74414 v 0 l -2.1719,0.93164 v 2.61328 h 19.7168 v -2.59961 l -2.0918,-0.9414 -0.014,-0.004 c -0.7446,-0.31353 -1.0253,-0.6366 -1.0742,-0.74414 -0.1241,-0.27296 -0.2461,-0.85341 -0.2461,-1.68945 v -36.56446 c 0,-0.79761 0.1463,-1.33592 0.332,-1.65429 l 0.01,-0.0176 0.01,-0.0176 c 0.1607,-0.2984 0.4898,-0.60121 1.2012,-0.86328 v 0 l 1.8711,-0.70117 v -2.65235 h -15.7383 l -11.3867,31.67188 -12.1074,-31.67188 z m 4.5488,2.30664 h 9.3028 l 13.5214,35.3711 -3.0507,8.46289 h -1.8887 l -14.959,-39.31641 -1.3926,0.26563 v -0.76368 c 0,-1.0103 -0.1216,-1.87301 -0.4297,-2.63281 -0.2029,-0.58054 -0.6113,-1.01747 -1.1035,-1.38672 z m 36.0078,0 h 9.7129 c -0.2537,0.24694 -0.5187,0.48706 -0.6894,0.79883 -0.4603,0.7971 -0.6426,1.7407 -0.6426,2.80078 v 36.56446 c 0,1.02827 0.1112,1.8921 0.4531,2.64453 0.1876,0.41262 0.4841,0.7356 0.8203,1.02539 h -10.7246 c 0.3362,-0.28977 0.6308,-0.61281 0.8184,-1.02539 0.3419,-0.75243 0.4531,-1.61626 0.4531,-2.64453 V 184.4707 l 0.1406,-19.99023 -1.8242,-0.32422 z m -34.8535,41.41016 c 0.082,0.50638 0.075,1.0801 0.2617,1.51562 l 0.022,0.0469 0.024,0.0449 c 0.1751,0.32516 0.4557,0.5659 0.7226,0.81641 h -2.1406 c 0.2662,-0.25514 0.5417,-0.50447 0.7324,-0.82422 0.2683,-0.44985 0.2567,-1.0642 0.3789,-1.59961 z"
         id="path23" /></g><path
       d="m 355.59995,139.72145 q -3.82582,0 -7.40083,-2.00853 -3.51219,-2.00854 -6.33454,-5.93433 -2.75961,-4.01708 -4.39026,-9.9514 -1.63065,-5.93433 -1.63065,-13.8772 0,-7.85156 1.63065,-13.785878 1.63065,-5.93432 4.453,-9.86011 2.82235,-4.017079 6.33454,-6.02562 3.57493,-2.099838 7.33809,-2.099838 3.82583,0 7.33801,2.008541 3.57494,1.917245 6.33454,5.934327 2.82235,3.92579 4.453,9.9514 1.63065,5.934328 1.63065,13.877178 0,7.76028 -1.63065,13.7859 -1.63065,5.93432 -4.453,9.9514 -2.7596,3.92579 -6.33454,6.02563 -3.51218,2.00853 -7.33801,2.00853 z m 0,-1.91724 q 3.44945,0 5.58188,-2.64763 2.13243,-2.73891 3.07324,-9.22102 1.00347,-6.57341 1.00347,-17.98557 0,-11.503448 -1.00347,-17.985548 -0.94081,-6.5734 -3.07324,-9.22103 -2.13243,-2.73892 -5.58188,-2.73892 -3.38678,0 -5.51921,2.73892 -2.13243,2.64763 -3.13598,9.22103 -0.94073,6.4821 -0.94073,17.985548 0,11.41216 0.94073,17.98557 1.00355,6.48211 3.13598,9.22102 2.13243,2.64763 5.51921,2.64763 z"
       id="text3-6-6-6"
       style="font-size:75.6704px;font-family:'DM Serif Display';-inkscape-font-specification:'DM Serif Display';stroke:#000000;stroke-width:2.49712;stroke-linecap:round;paint-order:markers fill stroke"
       aria-label="O" /><path
       d="m 774.69984,139.72147 q -3.82574,0 -7.40076,-2.00854 -3.51219,-2.00854 -6.33454,-5.93433 -2.7596,-4.01707 -4.39025,-9.9514 -1.63065,-5.93432 -1.63065,-13.87718 0,-7.85156 1.63065,-13.785888 1.63065,-5.93433 4.453,-9.8601 2.82235,-4.017084 6.33454,-6.025626 3.57493,-2.099838 7.33801,-2.099838 3.82582,0 7.33809,2.008541 3.57493,1.917245 6.33454,5.934313 2.82235,3.92579 4.453,9.95141 1.63065,5.934318 1.63065,13.877188 0,7.76026 -1.63065,13.78589 -1.63065,5.93432 -4.453,9.9514 -2.75961,3.92578 -6.33454,6.02562 -3.51227,2.00854 -7.33809,2.00854 z m 0,-1.91724 q 3.44953,0 5.58195,-2.64762 2.13243,-2.73892 3.07324,-9.22103 1.00347,-6.5734 1.00347,-17.98556 0,-11.503458 -1.00347,-17.985568 -0.94081,-6.5734 -3.07324,-9.22102 -2.13242,-2.738916 -5.58195,-2.738916 -3.38679,0 -5.51914,2.738916 -2.13242,2.64762 -3.13598,9.22102 -0.94072,6.48211 -0.94072,17.985568 0,11.41216 0.94072,17.98556 1.00356,6.48211 3.13598,9.22103 2.13235,2.64762 5.51914,2.64762 z"
       id="text3-6-3-3-6"
       style="font-size:75.6704px;font-family:'DM Serif Display';-inkscape-font-specification:'DM Serif Display';stroke:#000000;stroke-width:2.49712;stroke-linecap:round;paint-order:markers fill stroke"
       aria-label="O" /><path
       d="m 408.79046,138.4366 v -0.92384 l 1.26928,-0.64668 q 1.26927,-0.55431 1.65012,-1.66291 0.44426,-1.10861 0.44426,-2.95627 V 83.837882 q 0,-1.84768 -0.44426,-2.95628 -0.44425,-1.108605 -1.71353,-1.755283 l -1.20587,-0.739073 v -0.923839 h 15.42189 q 9.45626,0 13.64486,5.081105 4.25218,4.98871 4.25218,13.21085 0,5.265878 -1.77703,9.700288 -1.71353,4.34202 -5.71183,6.92877 -3.99822,2.58674 -10.78895,2.58674 h -2.15779 v 16.99859 q 0,3.60296 2.47515,4.71156 l 1.90392,0.83145 v 0.92384 z m 12.88333,-25.31312 h 2.41166 q 3.10971,0 5.07711,-1.47813 1.96741,-1.47814 2.91941,-5.17349 0.952,-3.69534 0.952,-10.254568 0,-6.65162 -1.07889,-10.34697 -1.01549,-3.69535 -3.04631,-5.0811 -2.03089,-1.478138 -5.07719,-1.478138 h -2.15779 z"
       id="text3-6-1-4-6"
       style="font-size:76.5708px;font-family:'DM Serif Display';-inkscape-font-specification:'DM Serif Display';stroke:#000000;stroke-width:2.52683;stroke-linecap:round;paint-order:markers fill stroke"
       aria-label="P" /><path
       d="m 475.39814,138.44026 v -0.92116 l 1.582,-0.82904 q 1.26563,-0.73691 1.96169,-1.75019 0.69614,-1.10538 1.13907,-3.03981 l 13.03575,-54.440285 h 5.37889 l 12.84587,54.808745 q 0.50626,2.02654 1.13907,3.13192 0.63282,1.01328 1.96169,1.75021 l 0.75938,0.36845 v 0.92116 h -16.07327 v -0.92116 l 0.94926,-0.46057 q 1.32887,-0.73693 1.582,-2.02654 0.31637,-1.38174 -0.063,-3.22405 l -2.97411,-13.26463 h -14.04826 l -3.03752,12.98828 q -0.44293,2.02655 -0.31636,3.22405 0.1898,1.19751 1.51876,1.93442 l 1.39211,0.82904 v 0.92116 z m 9.61864,-21.73926 h 13.22564 L 491.8511,88.053062 Z"
       id="text3-6-1-6-1-8"
       style="font-size:76.3486px;font-family:'DM Serif Display';-inkscape-font-specification:'DM Serif Display';stroke:#000000;stroke-width:2.5195;stroke-linecap:round;paint-order:markers fill stroke"
       aria-label="A" /><path
       d="m 626.84466,138.4366 v -0.92384 l 1.26928,-0.73906 q 1.26928,-0.64669 1.65013,-1.7553 0.44425,-1.1086 0.44425,-2.95627 V 83.837882 q 0,-1.84768 -0.38085,-2.95628 -0.38076,-1.108605 -1.71353,-1.755283 l -1.26928,-0.739073 v -0.923839 h 16.3104 v 0.923839 l -1.26928,0.739073 q -1.26927,0.646678 -1.71353,1.755283 -0.38085,1.1086 -0.38085,2.95628 v 48.224248 q 0,1.84767 0.38085,2.95627 0.44426,1.01622 1.71353,1.7553 l 1.26928,0.73906 v 0.92384 z"
       id="text3-4-9-9"
       style="font-size:76.5708px;font-family:'DM Serif Display';-inkscape-font-specification:'DM Serif Display';stroke:#000000;stroke-width:2.52683;stroke-linecap:round;paint-order:markers fill stroke"
       aria-label="I" /><g
       id="g29"
       transform="matrix(0.82899038,0,0,1.1975482,-857.54238,-131.3142)"
       style="fill:#f4efe7;fill-opacity:1;stroke:#f4efe7;stroke-width:2;stroke-dasharray:none;stroke-opacity:1"><path
         style="-inkscape-font-specification:'DM Serif Display';fill:#f4efe7;fill-opacity:1;stroke:#f4efe7;stroke-width:2;stroke-linecap:round;stroke-dasharray:none;stroke-opacity:1;paint-order:markers fill stroke"
         d="m 1862.66,225.04213 v -0.76238 l 2.5159,-0.76238 q 1.3723,-0.38119 1.9822,-1.44852 0.6099,-1.14357 0.6099,-2.66833 v -36.67048 q -0.8386,-1.82971 -1.3723,-2.74457 -0.4574,-0.91485 -1.0673,-1.52476 -0.6099,-0.68614 -1.6773,-1.67723 l -1.296,-1.29605 v -0.76238 h 13.4941 l 25.311,34.53581 v -28.74172 q 0,-1.52476 -0.5336,-2.74457 -0.4575,-1.21981 -1.9822,-1.601 l -2.5159,-0.68614 v -0.76238 h 10.902 v 0.76238 l -2.0584,0.68614 q -1.3723,0.45743 -1.6772,1.601 -0.305,1.14357 -0.305,2.66833 v 44.82794 h -4.2693 l -29.1229,-40.02495 v 34.15463 q 0,1.52476 0.4574,2.59209 0.4574,1.06733 1.906,1.52476 l 2.2871,0.76238 v 0.76238 z"
         id="path28" /><path
         style="-inkscape-font-specification:'DM Serif Display';fill:#f4efe7;fill-opacity:1;stroke:#f4efe7;stroke-width:2;stroke-linecap:round;stroke-dasharray:none;stroke-opacity:1;paint-order:markers fill stroke"
         d="m 1861.0977,173.4668 v 2.54101 l 1.6796,1.68164 0.018,0.0156 c 0.6931,0.64352 1.2295,1.18194 1.5938,1.59179 l 0.023,0.0273 0.027,0.0254 c 0.2954,0.29542 0.5771,0.68934 0.832,1.19922 l 0.018,0.0351 0.02,0.0352 c 0.2887,0.49488 0.7156,1.35861 1.2012,2.4043 v 36.37695 c 0,0.83991 -0.1636,1.50064 -0.4551,2.05469 -0.2363,0.40738 -0.5522,0.66554 -1.2149,0.84961 l -0.016,0.004 -3.4219,1.03711 v 2.95508 h 14.1036 v -2.92773 l -3.1563,-1.05274 -0.01,-0.002 c -0.734,-0.23181 -0.9877,-0.49088 -1.1289,-0.82031 -0.2195,-0.51221 -0.3554,-1.20694 -0.3554,-2.09766 v -30.28711 l 27.2246,37.41602 h 6.1679 v -46.08594 c 0,-0.93263 0.094,-1.71588 0.2618,-2.34375 0.093,-0.3488 0.2163,-0.51808 0.8593,-0.73242 l 2.92,-0.97266 v -2.92773 h -13.418 v 2.98047 l 3.4551,0.94335 0.014,0.004 c 0.7389,0.18473 0.9506,0.39894 1.1094,0.82227 l 0.012,0.0312 0.014,0.0312 c 0.2786,0.63688 0.4277,1.37046 0.4277,2.24023 v 24.89649 l -23.416,-31.94922 z m 3.5312,2.51562 h 10.582 l 26.5215,36.1875 v 11.84375 h -2.3711 l -30.5136,-41.93555 c -0.5227,-1.13364 -0.9638,-2.02462 -1.336,-2.66796 -0.3508,-0.69814 -0.7744,-1.31451 -1.2832,-1.82618 -0.4132,-0.46175 -0.955,-0.99805 -1.5996,-1.60156 z m 36.1895,0 h 2.1445 c -0.4104,0.41179 -0.7323,0.90417 -0.8828,1.46875 -0.068,0.25405 -0.05,0.57767 -0.098,0.84766 -0.089,-0.3215 -0.065,-0.68934 -0.1953,-0.99219 -0.2013,-0.52176 -0.5581,-0.95082 -0.9687,-1.32422 z m -32.1778,45.07617 c 0.091,0.4731 0.077,1.00799 0.2578,1.42969 0.2198,0.51285 0.5789,0.93644 1.002,1.29688 h -2.6348 c 0.3814,-0.31436 0.7378,-0.66026 0.9844,-1.0918 l 0.01,-0.0156 0.01,-0.0176 c 0.2534,-0.47525 0.248,-1.06578 0.373,-1.60157 z"
         id="path29" /></g><g
       id="text3-4-8-9-0"
       transform="matrix(0.82883525,0,0,1.2065124,-857.25,-133.35)"><path
         style="-inkscape-font-specification:'DM Serif Display';stroke-linecap:round;paint-order:markers fill stroke"
         d="m 1862.66,225.04213 v -0.76238 l 2.5159,-0.76238 q 1.3723,-0.38119 1.9822,-1.44852 0.6099,-1.14357 0.6099,-2.66833 v -36.67048 q -0.8386,-1.82971 -1.3723,-2.74457 -0.4574,-0.91485 -1.0673,-1.52476 -0.6099,-0.68614 -1.6773,-1.67723 l -1.296,-1.29605 v -0.76238 h 13.4941 l 25.311,34.53581 v -28.74172 q 0,-1.52476 -0.5336,-2.74457 -0.4575,-1.21981 -1.9822,-1.601 l -2.5159,-0.68614 v -0.76238 h 10.902 v 0.76238 l -2.0584,0.68614 q -1.3723,0.45743 -1.6772,1.601 -0.305,1.14357 -0.305,2.66833 v 44.82794 h -4.2693 l -29.1229,-40.02495 v 34.15463 q 0,1.52476 0.4574,2.59209 0.4574,1.06733 1.906,1.52476 l 2.2871,0.76238 v 0.76238 z"
         id="path26" /><path
         style="-inkscape-font-specification:'DM Serif Display';stroke-linecap:round;paint-order:markers fill stroke"
         d="m 1861.0977,173.4668 v 2.54101 l 1.6796,1.68164 0.018,0.0156 c 0.6931,0.64352 1.2295,1.18194 1.5938,1.59179 l 0.023,0.0273 0.027,0.0254 c 0.2954,0.29542 0.5771,0.68934 0.832,1.19922 l 0.018,0.0351 0.02,0.0352 c 0.2887,0.49488 0.7156,1.35861 1.2012,2.4043 v 36.37695 c 0,0.83991 -0.1636,1.50064 -0.4551,2.05469 -0.2363,0.40738 -0.5522,0.66554 -1.2149,0.84961 l -0.016,0.004 -3.4219,1.03711 v 2.95508 h 14.1036 v -2.92773 l -3.1563,-1.05274 -0.01,-0.002 c -0.734,-0.23181 -0.9877,-0.49088 -1.1289,-0.82031 -0.2195,-0.51221 -0.3554,-1.20694 -0.3554,-2.09766 v -30.28711 l 27.2246,37.41602 h 6.1679 v -46.08594 c 0,-0.93263 0.094,-1.71588 0.2618,-2.34375 0.093,-0.3488 0.2163,-0.51808 0.8593,-0.73242 l 2.92,-0.97266 v -2.92773 h -13.418 v 2.98047 l 3.4551,0.94335 0.014,0.004 c 0.7389,0.18473 0.9506,0.39894 1.1094,0.82227 l 0.012,0.0312 0.014,0.0312 c 0.2786,0.63688 0.4277,1.37046 0.4277,2.24023 v 24.89649 l -23.416,-31.94922 z m 3.5312,2.51562 h 10.582 l 26.5215,36.1875 v 11.84375 h -2.3711 l -30.5136,-41.93555 c -0.5227,-1.13364 -0.9638,-2.02462 -1.336,-2.66796 -0.3508,-0.69814 -0.7744,-1.31451 -1.2832,-1.82618 -0.4132,-0.46175 -0.955,-0.99805 -1.5996,-1.60156 z m 36.1895,0 h 2.1445 c -0.4104,0.41179 -0.7323,0.90417 -0.8828,1.46875 -0.068,0.25405 -0.05,0.57767 -0.098,0.84766 -0.089,-0.3215 -0.065,-0.68934 -0.1953,-0.99219 -0.2013,-0.52176 -0.5581,-0.95082 -0.9687,-1.32422 z m -32.1778,45.07617 c 0.091,0.4731 0.077,1.00799 0.2578,1.42969 0.2198,0.51285 0.5789,0.93644 1.002,1.29688 h -2.6348 c 0.3814,-0.31436 0.7378,-0.66026 0.9844,-1.0918 l 0.01,-0.0156 0.01,-0.0176 c 0.2534,-0.47525 0.248,-1.06578 0.373,-1.60157 z"
         id="path27" /></g><path
       id="path1-9-4-1-9-0-4"
       style="fill:#ffbe1a;stroke-width:2.71543;stroke-linecap:round;paint-order:markers fill stroke"
       d="m 383.5545,72.389942 a 5.0944629,5.0944629 0 0 1 -5.0944,5.09447 5.0944629,5.0944629 0 0 1 -5.0945,-5.09447 5.0944629,5.0944629 0 0 1 5.0945,-5.09446 5.0944629,5.0944629 0 0 1 5.0944,5.09446 z" /><path
       id="path1-9-4-1-9-0-4-3-9"
       style="fill:#ffbe1a;stroke-width:2.71543;stroke-linecap:round;paint-order:markers fill stroke"
       d="m 662.9011,72.389942 a 5.0944629,5.0944629 0 0 1 -5.0945,5.09447 5.0944629,5.0944629 0 0 1 -5.0944,-5.09447 5.0944629,5.0944629 0 0 1 5.0944,-5.09446 5.0944629,5.0944629 0 0 1 5.0945,5.09446 z" /><path
       id="rect2-6-3-4-8-8"
       style="fill:#ffbe1a;stroke-width:3.82709;stroke-linecap:round;paint-order:markers fill stroke"
       d="m 798.03983,66.985454 4.92479,4.924786 c 0.2658,0.265802 0.2658,0.693743 0,0.959544 l -4.92479,4.924787 c -0.2658,0.265801 -0.69374,0.265801 -0.95954,0 l -4.92479,-4.924787 c -0.2658,-0.265801 -0.2658,-0.693742 0,-0.959544 l 4.92479,-4.924786 c 0.2658,-0.265802 0.69374,-0.265802 0.95954,0 z" /><path
       id="rect2-6-3-4-8-7"
       style="fill:#ffbe1a;stroke-width:3.82709;stroke-linecap:round;paint-order:markers fill stroke"
       d="m 518.6398,66.98539 4.92479,4.924787 c 0.2658,0.265801 0.26579,0.693749 0,0.959536 l -4.9248,4.924801 c -0.26578,0.265787 -0.69373,0.265795 -0.95953,-7e-6 l -4.92479,-4.924787 c -0.2658,-0.265801 -0.26579,-0.693749 -10e-6,-0.959536 l 4.9248,-4.924801 c 0.26579,-0.265787 0.69374,-0.265794 0.95954,7e-6 z" /><path
       id="circle6-1-3-7-8-8-8"
       style="fill:#7a5de5;fill-opacity:1;stroke-width:3.21417;stroke-linecap:round;paint-order:markers fill stroke"
       d="m 727.7101,77.484412 c 0,0 -3.435,-2.40377 -4.7328,-4.99883 -1.2973,-2.59505 -1.2973,-5.19009 1.7176,-5.19009 3.0152,0 3.0152,2.59504 3.0152,2.59504 0,0 0,-2.59504 3.0152,-2.59504 3.0149,0 3.0149,2.59504 1.7175,5.19009 -1.2977,2.59506 -4.7327,4.99883 -4.7327,4.99883 z" /><path
       id="circle6-1-3-7-8-8-9"
       style="fill:#7a5de5;fill-opacity:1;stroke-width:3.21417;stroke-linecap:round;paint-order:markers fill stroke"
       d="m 448.31,77.484412 c 0,0 -3.435,-2.40377 -4.7328,-4.99883 -1.2973,-2.59505 -1.2973,-5.19009 1.7176,-5.19009 3.0152,0 3.0152,2.59504 3.0152,2.59504 0,0 0,-2.59504 3.0152,-2.59504 3.0149,0 3.0149,2.59504 1.7175,5.19009 -1.2977,2.59506 -4.7327,4.99883 -4.7327,4.99883 z" /><path
       id="rect6-9-1-2-9-1-5-3"
       style="fill:#7a5de5;fill-opacity:1;stroke-width:1.77626;stroke-linecap:round;paint-order:markers fill stroke"
       d="m 311.995,67.581832 c -0.3622,-0.36236 -0.9454,-0.36233 -1.308,-1e-5 l -0.7114,0.71143 -0.7116,0.71163 -0.6539,0.654 -1.3656,-1.36566 -0.7114,-0.7114 c -0.3625,-0.36231 -0.9458,-0.36236 -1.3082,-2e-5 l -1.4231,1.42307 c -0.3623,0.36231 -0.3623,0.94571 0,1.30801 l 1.4231,1.42306 0.6541,0.65402 -1.3657,1.36565 -0.7114,0.71142 c -0.3623,0.36232 -0.3623,0.94566 0,1.30802 l 1.4232,1.42303 c 0.3622,0.36232 0.9455,0.36235 1.308,1e-5 l 1.423,-1.42304 0.6541,-0.65401 0.6538,0.65399 0.7117,0.71161 0.7115,0.71145 c 0.3624,0.36231 0.9457,0.36229 1.308,-2e-5 l 1.4231,-1.42304 c 0.3624,-0.36237 0.3624,-0.94569 0,-1.30799 l -0.7114,-0.71144 -0.7117,-0.71165 -0.6541,-0.65398 0.6541,-0.65401 0.7117,-0.71162 0.7114,-0.71144 c 0.3624,-0.36232 0.3624,-0.94572 0,-1.30802 z" /></g></svg>
